<?xml version="1.0" encoding="UTF-8"?>
<svg width="105px" height="59px" viewBox="0 0 105 59" version="1.1" xmlns="http://www.w3.org/2000/svg" xmlns:xlink="http://www.w3.org/1999/xlink">
    <!-- Generator: Sketch 51.3 (57544) - http://www.bohemiancoding.com/sketch -->
    <title>digital-business / cell-division</title>
    <desc>Created with Sketch.</desc>
    <defs>
        <circle id="path-1" cx="60.5" cy="20" r="3"></circle>
        <circle id="path-2" cx="109.5" cy="40" r="3"></circle>
        <circle id="path-3" cx="12" cy="40" r="3"></circle>
        <circle id="path-4" cx="60.5" cy="60" r="3"></circle>
    </defs>
    <g id="Symbols" stroke="none" stroke-width="1" fill="none" fill-rule="evenodd">
        <g id="14" transform="translate(-14.000000, -38.000000)">
            <g id="digital-business-/-cell-division" transform="translate(6.000000, 27.000000)">
                <path d="M80.8050865,68.8050865 C96.5452019,68.8050865 109.305087,56.0452019 109.305087,40.3050865 C109.305087,24.5649712 96.5452019,11.8050865 80.8050865,11.8050865 C65.0649712,11.8050865 52.3050865,24.5649712 52.3050865,40.3050865" id="Oval-7" stroke="#E5E5E5" stroke-linecap="round" stroke-linejoin="round" transform="translate(80.805087, 40.305087) rotate(-315.000000) translate(-80.805087, -40.305087) "></path>
                <path d="M40.3050865,68.8050865 C56.0452019,68.8050865 68.8050865,56.0452019 68.8050865,40.3050865 C68.8050865,24.5649712 56.0452019,11.8050865 40.3050865,11.8050865 C24.5649712,11.8050865 11.8050865,24.5649712 11.8050865,40.3050865" id="Oval-7-Copy" stroke="#E5E5E5" stroke-linecap="round" stroke-linejoin="round" transform="translate(40.305087, 40.305087) scale(-1, 1) rotate(-315.000000) translate(-40.305087, -40.305087) "></path>
                <path d="M60.5,19.5 L60.5,60.5121933" id="Line-2" stroke="#E5E5E5" stroke-linecap="round" stroke-linejoin="round"></path>
                <g id="Oval-Copy-469" transform="translate(60.500000, 20.000000) rotate(-360.000000) translate(-60.500000, -20.000000) " stroke="#FFFFFF">
                    <circle stroke-width="1.5" stroke-linejoin="square" fill="#515151" fill-rule="evenodd" cx="60.5" cy="20" r="2.25"></circle>
                    <use stroke-width="1" xlink:href="#path-1"></use>
                </g>
                <g id="Oval-Copy-469" transform="translate(109.500000, 40.000000) rotate(-360.000000) translate(-109.500000, -40.000000) " stroke="#FFFFFF">
                    <circle stroke-width="1.5" stroke-linejoin="square" fill="#515151" fill-rule="evenodd" cx="109.5" cy="40" r="2.25"></circle>
                    <use stroke-width="1" xlink:href="#path-2"></use>
                </g>
                <g id="Oval-Copy-471" transform="translate(12.000000, 40.000000) rotate(-360.000000) translate(-12.000000, -40.000000) " stroke="#FFFFFF">
                    <circle stroke-width="1.5" stroke-linejoin="square" fill="#515151" fill-rule="evenodd" cx="12" cy="40" r="2.25"></circle>
                    <use stroke-width="1" xlink:href="#path-3"></use>
                </g>
                <g id="Oval-Copy-470" transform="translate(60.500000, 60.000000) rotate(-360.000000) translate(-60.500000, -60.000000) " stroke="#FFFFFF">
                    <circle stroke-width="1.5" stroke-linejoin="square" fill="#515151" fill-rule="evenodd" cx="60.5" cy="60" r="2.25"></circle>
                    <use stroke-width="1" xlink:href="#path-4"></use>
                </g>
            </g>
        </g>
    </g>
</svg>