<?xml version="1.0" encoding="UTF-8"?>
<svg width="81px" height="97px" viewBox="0 0 81 97" version="1.1" xmlns="http://www.w3.org/2000/svg" xmlns:xlink="http://www.w3.org/1999/xlink">
    <!-- Generator: Sketch 51.3 (57544) - http://www.bohemiancoding.com/sketch -->
    <title>other / jewel-stone-diamond</title>
    <desc>Created with Sketch.</desc>
    <defs>
        <circle id="path-1" cx="3" cy="42" r="3"></circle>
        <circle id="path-2" cx="76" cy="42" r="3"></circle>
        <circle id="path-3" cx="40.5" cy="3" r="3"></circle>
        <circle id="path-4" cx="40" cy="92" r="3"></circle>
    </defs>
    <g id="Symbols" stroke="none" stroke-width="1" fill="none" fill-rule="evenodd">
        <g id="20" transform="translate(-28.000000, -20.000000)">
            <g id="other-/-jewel-stone-diamond" transform="translate(29.000000, 21.000000)">
                <path d="M40.1465517,2.64655172 L53.1767311,49.1511465" id="Line-4" stroke="#3F3F3F" stroke-linecap="round" stroke-linejoin="round"></path>
                <path d="M40.1465517,49.2845225 L53.2471348,93.1637931" id="Line-4-Copy-2" stroke="#3F3F3F" stroke-linecap="round" stroke-linejoin="round" transform="translate(46.696843, 71.224158) scale(-1, 1) translate(-46.696843, -71.224158) "></path>
                <path d="M40.1465517,42.7327586 L76.3534483,93.1637931" id="Line-4-Copy-2" stroke="#3F3F3F" stroke-linecap="round" stroke-linejoin="round" transform="translate(58.250000, 67.948276) scale(-1, 1) translate(-58.250000, -67.948276) "></path>
                <path d="M40.1465517,41.4396552 L2.64655172,93.1637931" id="Line-4-Copy-2" stroke="#3F3F3F" stroke-linecap="round" stroke-linejoin="round" transform="translate(21.396552, 67.301724) scale(-1, 1) translate(-21.396552, -67.301724) "></path>
                <path d="M40.1465517,41.4396552 L2.64655172,2.64655172" id="Line-4-Copy-2" stroke="#3F3F3F" stroke-linecap="round" stroke-linejoin="round" transform="translate(21.396552, 22.043103) scale(-1, 1) translate(-21.396552, -22.043103) "></path>
                <path d="M40.1465517,41.4396552 L76.3534483,2.64655172" id="Line-4-Copy-2" stroke="#3F3F3F" stroke-linecap="round" stroke-linejoin="round" transform="translate(58.250000, 22.043103) scale(-1, 1) translate(-58.250000, -22.043103) "></path>
                <path d="M24.7692054,3.93965517 L40.1465517,49.2849136" id="Line-4-Copy" stroke="#3F3F3F" stroke-linecap="round" stroke-linejoin="round" transform="translate(32.457879, 26.612284) scale(-1, 1) translate(-32.457879, -26.612284) "></path>
                <path d="M24.6293103,49.1982759 L40.1465517,93.1637931" id="Line-4-Copy-3" stroke="#3F3F3F" stroke-linecap="round" stroke-linejoin="round"></path>
                <path d="M75.0603448,42.7327586 L53.0775862,49.1982759" id="Line-5" stroke="#3F3F3F" stroke-linecap="round" stroke-linejoin="round"></path>
                <path d="M24.8795046,41.4396552 L2.64655172,49.3666602" id="Line-5-Copy" stroke="#3F3F3F" stroke-linecap="round" stroke-linejoin="round" transform="translate(13.763028, 45.403158) scale(-1, 1) translate(-13.763028, -45.403158) "></path>
                <path d="M24.6293103,49.1982759 L53.1948992,49.1982759" id="Line-6" stroke="#3F3F3F" stroke-linecap="round" stroke-linejoin="round"></path>
                <g id="Oval-Copy-5" transform="translate(3.000000, 42.000000) rotate(-90.000000) translate(-3.000000, -42.000000) " stroke="#151515">
                    <circle stroke-width="1.5" stroke-linejoin="square" fill="#C2C2C2" fill-rule="evenodd" cx="3" cy="42" r="2.25"></circle>
                    <use stroke-width="1" xlink:href="#path-1"></use>
                </g>
                <g id="Oval-Copy-12" transform="translate(76.000000, 42.000000) rotate(-90.000000) translate(-76.000000, -42.000000) " stroke="#151515">
                    <circle stroke-width="1.5" stroke-linejoin="square" fill="#C2C2C2" fill-rule="evenodd" cx="76" cy="42" r="2.25"></circle>
                    <use stroke-width="1" xlink:href="#path-2"></use>
                </g>
                <g id="Oval-Copy-13" transform="translate(40.500000, 3.000000) rotate(-90.000000) translate(-40.500000, -3.000000) " stroke="#151515">
                    <circle stroke-width="1.5" stroke-linejoin="square" fill="#C2C2C2" fill-rule="evenodd" cx="40.5" cy="3" r="2.25"></circle>
                    <use stroke-width="1" xlink:href="#path-3"></use>
                </g>
                <g id="Oval-Copy-14" transform="translate(40.000000, 92.000000) rotate(-90.000000) translate(-40.000000, -92.000000) " stroke="#151515">
                    <circle stroke-width="1.5" stroke-linejoin="square" fill="#C2C2C2" fill-rule="evenodd" cx="40" cy="92" r="2.25"></circle>
                    <use stroke-width="1" xlink:href="#path-4"></use>
                </g>
            </g>
        </g>
    </g>
</svg>