<?xml version="1.0" encoding="UTF-8" standalone="no"?>
<svg
   xmlns:dc="http://purl.org/dc/elements/1.1/"
   xmlns:cc="http://creativecommons.org/ns#"
   xmlns:rdf="http://www.w3.org/1999/02/22-rdf-syntax-ns#"
   xmlns:svg="http://www.w3.org/2000/svg"
   xmlns="http://www.w3.org/2000/svg"
   id="svg8"
   version="1.1"
   viewBox="0 0 118.10705 13.4279"
   height="13.4279mm"
   width="118.10705mm">
  <defs
     id="defs2" />
  <metadata
     id="metadata5">
    <rdf:RDF>
      <cc:Work
         rdf:about="">
        <dc:format>image/svg+xml</dc:format>
        <dc:type
           rdf:resource="http://purl.org/dc/dcmitype/StillImage" />
        <dc:title></dc:title>
      </cc:Work>
    </rdf:RDF>
  </metadata>
  <g
     transform="translate(-22.037586,-39.903467)"
     id="layer1">
    <g
       id="text817"
       style="font-style:normal;font-variant:normal;font-weight:normal;font-stretch:normal;font-size:22.57777786px;line-height:0.25;font-family:'Upperercase and Lowerercase';-inkscape-font-specification:'Upperercase and Lowerercase';letter-spacing:0px;word-spacing:0px;stroke-width:0.26458332"
       aria-label="DEAD NEURON">
      <path
         id="path835-2"
         style="font-style:normal;font-variant:normal;font-weight:normal;font-stretch:normal;font-size:22.57777786px;line-height:0.25;font-family:'Upperercase and Lowerercase';-inkscape-font-specification:'Upperercase and Lowerercase';letter-spacing:0px;word-spacing:0px;fill:#000000;stroke-width:0.26458332"
         d="m 120.75473,41.296743 c 1.14285,0.0074 1.71428,0.08636 1.71428,0.237023 0.38952,0.323379 0.85438,0.576938 1.39457,0.760677 1.42214,0.981163 2.63849,1.75654 3.64905,2.326129 0.19109,0.202112 0.50161,0.391362 0.93155,0.567751 0.13964,0 0.18742,-0.301331 0.14332,-0.903993 -0.011,-1.991725 0.0202,-2.987587 0.0937,-2.987587 0,-0.05512 0.3638,-0.06798 1.0914,-0.03858 0.19477,0 0.29215,0.455671 0.29215,1.367014 -0.0551,1.231047 -0.0827,2.22691 -0.0827,2.987587 0.10657,2.157089 0.15985,3.595761 0.15985,4.316016 -0.0478,0 -0.10106,0.885619 -0.15985,2.656857 0,0.165365 -0.40239,0.248047 -1.20716,0.248047 -0.20946,0 -0.54019,-0.209462 -0.99219,-0.628385 -0.3491,-0.117593 -1.01424,-0.558565 -1.9954,-1.322917 -0.0882,0 -0.97381,-0.521817 -2.65686,-1.565451 -0.62103,-0.40055 -0.95176,-0.600825 -0.99218,-0.600825 -0.11025,0 -0.16537,0.847034 -0.16537,2.541103 0.0551,0.779051 0.0551,1.22186 0,1.328428 0,0.08452 -0.38769,0.12678 -1.16306,0.12678 -0.23519,-0.01103 -0.36013,-0.05329 -0.37483,-0.12678 0.0551,-0.444647 0.0827,-1.107942 0.0827,-1.989887 -0.0551,0 -0.0276,-0.885619 0.0827,-2.656857 -0.0184,-4.387674 0.0331,-6.601722 0.15434,-6.642145 z m 1.33945,1.659158 v 1.328429 c 0.0441,0.143316 0.0441,0.808449 0,1.9954 0,0.650434 0.12995,0.949591 0.54019,0.997699 2.10381,1.057446 4.03275,2.884959 5.80981,3.566363 0.11025,0 0.16537,-1.078545 0.16537,-3.235634 0,-0.745978 -0.16537,-1.126316 -0.4961,-1.141015" />
      <path
         id="path827"
         style="fill:#000000;stroke-width:0.26458332"
         d="m 22.247048,40.635285 q 0,-0.121267 1.576476,-0.192925 2.524566,0.997699 2.524566,1.190625 2.105642,1.372526 2.452908,2.386762 1.703255,1.835547 1.703255,3.588411 -0.07717,0.496094 -1.091406,1.659158 0,0.214974 -1.9954,1.659158 -0.639409,0.76619 -3.593923,2.039497 0,-0.07717 -1.659158,-0.132292 -0.12678,0 -0.12678,-2.237934 0.08268,-0.595312 0.0441,-4.316015 -0.03859,0 0.03858,-3.323829 -0.03858,-2.210373 0.0441,-2.210373 z m 1.367014,2.320616 q 0.06615,0.76619 -0.03859,1.328429 0,4.420747 0.104731,4.652257 -0.02205,2.083594 0.143316,2.083594 0.380338,0 1.659158,-0.661458 3.114366,-2.392275 3.318316,-3.25217 0.04961,-0.578777 -0.661459,-1.438672 -1.593012,-2.14974 -4.316015,-2.987587 z" />
      <path
         id="path829"
         style="fill:#000000;stroke-width:0.26458332"
         d="m 32.328775,40.966014 q 0.727605,0.0441 1.438672,-0.03859 2.254471,-0.0441 3.985287,0.165365 2.574175,0.0441 2.574175,0.203949 0.03858,0.09371 0.01654,0.9977 0,0.242535 -2.590712,0.292144 0,0.09371 -3.985287,0.248047 -0.319705,0.01654 -0.374826,0.121267 0,1.686719 0.126779,1.9954 0,0.165364 2.574176,0.165364 1.091406,0 1.091406,0.165365 0.110243,0.308681 0,0.9977 0,0.121267 -1.758377,0.08268 -1.659158,0 -1.659158,0.03858 -0.286632,0 -0.286632,1.537891 0,0.248046 0.953603,0.209461 2.651345,-0.0441 2.651345,0.02756 0.192926,0 0.12678,1.091406 0,0.286632 -2.447396,0.248047 -1.163064,0.02205 -1.163064,0.08268 -0.07717,0 -0.121268,1.659158 0,0.336241 1.118967,0.336241 0.292144,0.07166 2.656858,0 1.477257,0.03307 2.155252,-0.0441 0.711067,0 0.711067,0.374826 0.07717,1.036285 -0.0441,1.036285 -0.413411,0 -2.656857,-0.12678 -1.785938,0.115755 -3.654558,0.170877 -1.74184,-0.03307 -1.74184,-0.08268 -0.209462,0 -0.165365,-1.66467 0.02756,0 0,-4.977474 0.02205,0 -0.0441,-3.985287 0,-0.9977 0.01654,-0.9977 0.159852,-0.220486 0.496093,-0.330729 z" />
      <path
         id="path831"
         style="fill:#000000;stroke-width:0.26458332"
         d="m 47.062758,41.632985 q 1.604037,-0.0441 1.604037,0 0.429948,0 0.429948,3.318316 0.170877,3.952213 0.418923,4.646745 0.05512,0 0.33073,2.656857 0,0.374827 -1.620573,0.374827 -0.248047,0 -0.248047,-1.372526 0,-0.711068 -0.08268,-0.711068 -3.345877,-1.085894 -4.316016,-1.422136 -0.325217,0 -0.540191,2.133204 -0.407899,1.703255 -0.457509,1.703255 -1.30638,-0.03858 -1.367014,-0.374827 0,-0.09371 0.705556,-4.812109 0.374826,-2.408811 0.854384,-4.48138 0.176388,-1.493794 0.474045,-1.493794 0,-0.03859 3.814409,-0.165364 z m -2.568663,1.989887 q -0.07717,0 -0.622873,2.656858 0,0.09371 0.369314,0.09371 0.08819,0 2.656858,-0.650434 0.705555,0 0.66697,-0.606337 -0.09371,-1.730816 -0.336241,-1.730816 -2.734028,0.03307 -2.734028,0.237023 z m 2.237934,3.654557 q -3.197048,0.501606 -3.197048,0.661459 3.886067,0.986675 4.029383,1.185112 l 0.264584,-0.187413 q 0.02205,-1.785937 -0.264584,-1.785937 -0.832335,0.09371 -0.832335,0.126779 z" />
      <path
         id="path833"
         style="fill:#000000;stroke-width:0.26458332"
         d="m 51.968575,40.635285 q 0,-0.121267 1.576476,-0.192925 2.524566,0.997699 2.524566,1.190625 2.105642,1.372526 2.452908,2.386762 1.703255,1.835547 1.703255,3.588411 -0.07717,0.496094 -1.091406,1.659158 0,0.214974 -1.9954,1.659158 -0.639409,0.76619 -3.593923,2.039497 0,-0.07717 -1.659158,-0.132292 -0.12678,0 -0.12678,-2.237934 0.08268,-0.595312 0.0441,-4.316015 -0.03858,0 0.03859,-3.323829 -0.03859,-2.210373 0.0441,-2.210373 z m 1.367014,2.320616 q 0.06615,0.76619 -0.03858,1.328429 0,4.420747 0.104731,4.652257 -0.02205,2.083594 0.143316,2.083594 0.380338,0 1.659158,-0.661458 3.114366,-2.392275 3.318316,-3.25217 0.04961,-0.578777 -0.661459,-1.438672 -1.593012,-2.14974 -4.316015,-2.987587 z" />
      <path
         id="path835"
         style="fill:#000000;stroke-width:0.26458332"
         d="m 67.000216,41.296743 c 1.142853,0.0074 1.71428,0.08636 1.71428,0.237023 0.389525,0.323379 0.854383,0.576938 1.394574,0.760677 1.422136,0.981163 2.638485,1.75654 3.649046,2.326129 0.191088,0.202112 0.501606,0.391362 0.931553,0.567751 0.139641,0 0.187413,-0.301331 0.143316,-0.903993 -0.01103,-1.991725 0.02021,-2.987587 0.09371,-2.987587 0,-0.05512 0.363802,-0.06798 1.091406,-0.03858 0.194763,0 0.292144,0.455671 0.292144,1.367014 -0.05512,1.231047 -0.08268,2.22691 -0.08268,2.987587 0.106569,2.157089 0.159853,3.595761 0.159853,4.316016 -0.04777,0 -0.101058,0.885619 -0.159853,2.656857 0,0.165365 -0.402387,0.248047 -1.207161,0.248047 -0.209462,0 -0.540191,-0.209462 -0.992188,-0.628385 -0.349103,-0.117593 -1.014236,-0.558565 -1.995399,-1.322917 -0.08819,0 -0.973814,-0.521817 -2.656858,-1.565451 -0.621036,-0.40055 -0.951765,-0.600825 -0.992187,-0.600825 -0.110243,0 -0.165365,0.847034 -0.165365,2.541103 0.05512,0.779051 0.05512,1.22186 0,1.328428 0,0.08452 -0.387688,0.12678 -1.163064,0.12678 -0.235185,-0.01103 -0.360128,-0.05329 -0.374827,-0.12678 0.05512,-0.444647 0.08268,-1.107942 0.08268,-1.989887 -0.05512,0 -0.02756,-0.885619 0.08268,-2.656857 -0.01837,-4.387674 0.03307,-6.601722 0.15434,-6.642145 z m 1.339453,1.659158 v 1.328429 c 0.0441,0.143316 0.0441,0.808449 0,1.9954 0,0.650434 0.129951,0.949591 0.540191,0.997699 2.103802,1.057446 4.03275,2.884959 5.809809,3.566363 0.110243,0 0.165365,-1.078545 0.165365,-3.235634 0,-0.745978 -0.165365,-1.126316 -0.496094,-1.141015" />
      <path
         id="path837"
         style="fill:#000000;stroke-width:0.26458332"
         d="m 78.89544,40.966014 q 0.727604,0.0441 1.438672,-0.03859 2.254471,-0.0441 3.985286,0.165365 2.574176,0.0441 2.574176,0.203949 0.03858,0.09371 0.01654,0.9977 0,0.242535 -2.590712,0.292144 0,0.09371 -3.985286,0.248047 -0.319705,0.01654 -0.374826,0.121267 0,1.686719 0.126779,1.9954 0,0.165364 2.574175,0.165364 1.091407,0 1.091407,0.165365 0.110243,0.308681 0,0.9977 0,0.121267 -1.758377,0.08268 -1.659158,0 -1.659158,0.03858 -0.286632,0 -0.286632,1.537891 0,0.248046 0.953602,0.209461 2.651346,-0.0441 2.651346,0.02756 0.192925,0 0.12678,1.091406 0,0.286632 -2.447396,0.248047 -1.163065,0.02205 -1.163065,0.08268 -0.07717,0 -0.121267,1.659158 0,0.336241 1.118967,0.336241 0.292144,0.07166 2.656858,0 1.477257,0.03307 2.155251,-0.0441 0.711068,0 0.711068,0.374826 0.07717,1.036285 -0.0441,1.036285 -0.413411,0 -2.656858,-0.12678 -1.785937,0.115755 -3.654557,0.170877 -1.74184,-0.03307 -1.74184,-0.08268 -0.209462,0 -0.165365,-1.66467 0.02756,0 0,-4.977474 0.02205,0 -0.0441,-3.985287 0,-0.9977 0.01654,-0.9977 0.159853,-0.220486 0.496094,-0.330729 z" />
      <path
         id="path839"
         style="fill:#000000;stroke-width:0.26458332"
         d="m 95.575205,46.599434 c 0.02572,-1.624247 -0.0018,-2.730353 -0.08268,-3.318316 0,-1.367013 0.01286,-2.05052 0.03858,-2.05052 0.918692,-0.02572 1.378038,-0.0073 1.378038,0.05512 0.106568,0 0.145153,1.107943 0.115755,3.323828 0.0294,0 0.0441,1.326592 0.0441,3.979775 -0.07717,1.995399 -0.163527,2.993099 -0.259071,2.993099 -0.382176,0.885619 -1.251259,1.422135 -2.607248,1.609548 -0.132292,0.113918 -0.905831,0.158015 -2.320616,0.132292 -1.477257,-0.216811 -2.417998,-0.687182 -2.822223,-1.411111 -0.507118,-0.657784 -0.760677,-1.986213 -0.760677,-3.985287 0.03675,-2.487818 0.05512,-4.589786 0.05512,-6.305903 0,-0.176389 0.235185,-0.288469 0.705555,-0.336241 l 1.1e-5,10e-7 c 0.602662,-0.02572 0.915017,-0.02572 0.937066,0 0.07349,0 0.0096,0.720255 0.0831,2.160764 0.0294,1.216349 0.02145,1.152305 0.02029,1.785269 -0.01457,0.947153 -0.119104,1.461796 0.04761,4.164854 0,1.153877 0.27068,1.557012 0.851293,1.876717 0.25063,0.149043 0.893891,0.138221 2.205782,0.138221 1.440509,0 2.188325,-0.718417 2.243447,-2.155252" />
      <path
         id="path841"
         style="fill:#000000;stroke-width:0.26458332"
         d="m 102.39926,39.968315 q 0.31971,-0.110243 1.82453,-0.03307 2.23793,0.556727 2.28203,1.361501 0,1.080382 -1.28433,2.436372 -0.0937,0.159852 -0.83234,0.551215 0,0.12678 1.55994,0.666971 0.81029,0.446484 0.78824,1.989887 -0.16537,0.887457 -0.85439,1.493793 -0.0827,0.446485 0.28112,0.501606 1.08039,1.918229 1.09141,2.987587 0,0.9977 -0.20946,0.9977 -1.19614,0.0441 -1.27331,0 -0.22048,0 -0.42443,-2.326129 -0.35829,-1.703255 -1.62058,-1.659158 -2.82222,0.689019 -2.82222,0.826823 -0.16536,0 -0.14331,2.160764 0.0165,1.036285 -0.18742,1.036285 -0.666969,-0.08268 -1.328427,0 -0.165365,0 -0.08268,-2.364714 0.06063,-4.150651 0.08268,-4.150651 0.03858,0 0.03858,-4.150651 0,-1.565451 0.622873,-1.565451 1.030764,-0.413412 2.491484,-0.760677 z m 0.38586,1.66467 q 0,0.04961 -1.21819,0.369314 -0.70556,0 -0.66146,0.457509 0.12127,1.824522 0.22049,1.824522 0.15434,0.0441 0.44097,-0.03858 2.3592,-1.014236 3.11437,-2.282031 0,-0.198438 -0.62288,-0.330729 -0.74965,-0.08819 -1.2733,0 z m -0.38586,3.979774 q 0,0.03307 -1.32842,0.336241 -0.29215,0 -0.29215,1.328429 -0.0386,1.411111 0.12678,1.411111 0,-0.03307 2.32613,-0.66697 1.79145,-0.407899 1.86311,-1.74184 0,-0.76619 -0.87092,-0.870921 -1.73633,0 -1.82453,0.20395 z" />
      <path
         id="path843"
         style="fill:#000000;stroke-width:0.26458332"
         d="m 112.2605,41.963714 q 0.16537,-0.292144 2.24345,-0.292144 2.33164,0.297656 3.46163,1.951302 1.22921,1.857595 1.22921,3.985286 -0.51263,3.472657 -2.86632,4.646745 -1.48828,0.87092 -2.49149,0.87092 -1.91823,-0.02205 -3.45061,-0.87092 -1.91272,-1.295356 -2.19384,-4.812109 -0.0386,-1.052821 0.38034,-1.830035 0.53468,-1.185113 1.94579,-2.700955 1.24024,-0.738628 1.74184,-0.94809 z m 0.46853,1.328429 q -0.79375,0.319705 -1.43867,0.992187 -1.55994,1.306381 -1.7253,2.993099 0,1.55994 0.47956,2.320617 1.08589,1.565451 3.1309,2.028472 2.26549,0.0055 2.98759,-0.975651 1.48828,-1.86862 1.74184,-3.373438 0,-1.361501 -0.41342,-1.830034 -0.56775,-1.63711 -2.98758,-2.282032 -1.61506,-0.03858 -1.77492,0.12678 z" />
    </g>
  </g>
  <g
     id="text1401"
     style="font-style:normal;font-variant:normal;font-weight:normal;font-stretch:normal;font-size:22.57777977px;line-height:0.25;font-family:'Upperercase and Lowerercase';-inkscape-font-specification:'Upperercase and Lowerercase';letter-spacing:0px;word-spacing:0px;stroke-width:0.26458335"
     aria-label="S">
    <path
       id="path1403"
       style="stroke-width:0.26458335"
       d="m 113.43153,1.2234831 q 0.36931,-0.1212674 1.65916,0 1.07487,0.055122 1.83003,0.7992622 1.16858,0.5787761 1.18512,1.5268665 0.0165,1.9843751 -0.19293,2.0725696 -0.452,0.8764324 -1.32843,0.8764324 -0.85438,0 -3.09783,-0.6228734 -0.30317,0 -0.22048,-0.5567274 0.0827,-0.9150175 0.66697,-0.9150175 0.33073,0 2.32061,0.5567275 0.50161,0.038585 0.50161,-0.082682 0.0386,-1.0252605 -0.226,-1.3284289 -0.69453,-0.9536026 -1.93477,-0.9536026 -1.17408,0 -2.45842,0.6228734 -0.90399,0.6008247 -0.90399,1.6591581 0.0386,1.6646703 3.69314,2.2269099 2.04501,0.4905817 2.65686,1.6756946 0.29215,0.396875 0.28663,2.0725698 -0.41892,1.477257 -3.27422,2.199349 -2.21588,0 -2.65685,-0.248047 -1.46072,-0.391363 -2.36472,-2.282031 -0.0441,-1.0638459 0.0386,-1.0638459 0.5016,-0.7000435 1.32843,-0.7220921 1.96784,0.2480469 2.9931,0.8323351 0.70555,0.071658 0.66145,0.3968751 -0.27009,0.6394098 -0.33072,0.6394098 -1.27331,-0.540191 -2.32613,-0.540191 -0.48507,0 -0.54019,0.457509 0.27009,1.201649 2.86632,1.201649 1.15755,0 1.74184,-1.201649 0.0441,-1.4221359 -0.41342,-1.5489154 0,-0.1488282 -2.82222,-0.7772136 -2.1773,-0.2811199 -2.49149,-1.4937936 -0.62287,-0.8433594 -0.62287,-1.8245227 0,-1.725304 1.62057,-2.7671009 0.23702,-0.3803386 2.15525,-0.8874567 z" />
  </g>
</svg>
