<?xml version="1.0" encoding="UTF-8" standalone="no"?>
<svg
   xmlns:dc="http://purl.org/dc/elements/1.1/"
   xmlns:cc="http://creativecommons.org/ns#"
   xmlns:rdf="http://www.w3.org/1999/02/22-rdf-syntax-ns#"
   xmlns:svg="http://www.w3.org/2000/svg"
   xmlns="http://www.w3.org/2000/svg"
   width="111.29046mm"
   height="15.148102mm"
   viewBox="0 0 111.29046 15.148102"
   version="1.1"
   id="svg8">
  <defs
     id="defs2" />
  <metadata
     id="metadata5">
    <rdf:RDF>
      <cc:Work
         rdf:about="">
        <dc:format>image/svg+xml</dc:format>
        <dc:type
           rdf:resource="http://purl.org/dc/dcmitype/StillImage" />
        <dc:title></dc:title>
      </cc:Work>
    </rdf:RDF>
  </metadata>
  <g
     id="layer1"
     transform="translate(-44.170377,-113.25667)">
    <g
       id="text821"
       style="font-style:normal;font-variant:normal;font-weight:normal;font-stretch:normal;font-size:22.57777786px;line-height:0.25;font-family:'Wild Mango';-inkscape-font-specification:'Wild Mango';letter-spacing:0px;word-spacing:0px;stroke-width:0.26458332"
       aria-label="The White Acre">
      <path
         id="path829"
         style="font-style:normal;font-variant:normal;font-weight:normal;font-stretch:normal;font-family:'American Horror Story';-inkscape-font-specification:'American Horror Story';stroke-width:0.26458332"
         d="m 48.979443,114.92742 h 3.386667 v -1.64817 h -8.195733 v 1.64817 h 2.980266 v 13.4112 h 1.8288 z m 3.386667,5.59929 h 3.702756 v 7.81191 h 1.8288 v -15.05937 h -1.8288 v 3.58986 H 52.36611 v -1.33209 h -1.8288 v 12.8016 h 1.8288 z m 3.702756,-1.44498 H 52.36611 v -0.76764 h 3.702756 z" />
      <path
         id="path831"
         style="font-style:normal;font-variant:normal;font-weight:normal;font-stretch:normal;font-family:'American Horror Story';-inkscape-font-specification:'American Horror Story';stroke-width:0.26458332"
         d="m 62.077024,118.2012 h 2.032 v -1.78364 h -2.032 v -1.35467 h 2.032 v -1.78364 h -3.8608 v 15.05937 h 3.8608 v -1.78364 h -2.032 z" />
      <path
         id="path833"
         style="font-style:normal;font-variant:normal;font-weight:normal;font-stretch:normal;font-family:'American Horror Story';-inkscape-font-specification:'American Horror Story';stroke-width:0.26458332"
         d="m 79.328916,119.91711 1.738489,-6.63786 h -1.783644 l -0.835378,3.77048 -0.835378,-3.77048 h -1.919111 l 1.8288,6.9088 -1.2192,4.76391 -3.002844,-11.67271 h -1.919111 l 3.973688,15.05937 h 1.738489 l 1.286934,-5.50897 1.286933,5.50897 h 1.738489 l 3.973689,-15.05937 h -1.783645 l -2.980266,11.67271 z" />
      <path
         id="path835"
         style="font-style:normal;font-variant:normal;font-weight:normal;font-stretch:normal;font-family:Willow;-inkscape-font-specification:Willow"
         d="m 94.23069,128.33862 h -1.66467 l -0.07717,-0.0992 v -8.9848 h -4.178212 q -0.09922,0 -0.09922,0.12126 l -0.06615,8.96276 h -1.741841 l -0.08819,-0.14331 v -14.76155 l 0.08819,-0.0661 h 1.741841 l 0.110243,0.0661 v 1.97335 l 0.06615,0.0661 h 4.101041 l 0.06615,-0.11024 v -1.92926 l 0.132292,-0.0661 h 1.565451 l 0.08819,0.0661 z m -1.74184,-10.62743 v -1.01423 h -4.233333 l -0.07717,0.0882 v 0.83785 l 0.07717,0.0882 z" />
      <path
         id="path837"
         style="font-style:normal;font-variant:normal;font-weight:normal;font-stretch:normal;font-family:'American Horror Story';-inkscape-font-specification:'American Horror Story';stroke-width:0.26458332"
         d="m 96.079158,114.15978 v -0.90311 h 1.761067 1.761066 v 0.90311 0.88053 h -0.428977 -0.451556 v 5.75734 5.73475 h 0.451556 0.428977 v 0.90311 0.88054 h -1.761066 -1.761067 v -0.88054 -0.90311 h 0.428978 0.451555 v -5.73475 -5.75734 h -0.451555 -0.428978 z" />
      <path
         id="path839"
         style="font-style:normal;font-variant:normal;font-weight:normal;font-stretch:normal;font-family:'American Horror Story';-inkscape-font-specification:'American Horror Story';stroke-width:0.26458332"
         d="m 105.98057,114.92742 h 3.61245 v -1.64817 h -9.05369 v 1.64817 h 3.61244 v 13.4112 h 1.8288 z" />
      <path
         id="path841"
         style="font-style:normal;font-variant:normal;font-weight:normal;font-stretch:normal;font-family:'American Horror Story';-inkscape-font-specification:'American Horror Story';stroke-width:0.26458332"
         d="m 113.09751,118.2012 h 2.032 v -1.78364 h -2.032 v -1.35467 h 2.032 v -1.78364 h -3.8608 v 15.05937 h 3.8608 v -1.78364 h -2.032 z" />
      <path
         id="path843"
         style="letter-spacing:-1.32291663px"
         d="m 132.23147,128.09609 -0.14331,0.22048 -1.59853,0.011 -0.23151,-0.22049 -1.62057,-7.47448 h -2.66788 l -1.75287,7.68394 -0.13229,0.0551 q -0.80477,-0.0331 -1.42213,0 l -0.15434,-0.26459 3.61597,-14.78359 h 2.01745 l 0.19843,0.19844 z m -4.27743,-10.45104 -0.54019,-2.4915 h -0.35277 l -0.58429,2.4915 z m 0.38585,1.76389 -0.0882,-0.58429 h -1.9072 l -0.12127,0.58429 z" />
      <path
         id="path845"
         style="letter-spacing:0.02645833px"
         d="m 139.97054,128.17326 q -0.0221,0.0331 -0.17639,0.15434 -0.69453,0.0661 -1.01424,0.0661 -2.78915,0 -4.63021,-2.41432 -1.69774,-2.21588 -1.69774,-5.09323 0,-2.8112 1.47726,-5.02708 1.67569,-2.51354 4.34357,-2.51354 0.52917,0 1.42214,0.17639 l 0.0992,0.0661 v 1.49931 l -0.0992,0.0992 q -0.23151,0 -0.76068,-0.0331 -0.51814,-0.0441 -0.79375,-0.0441 -1.94028,0 -2.95451,1.80798 -0.8158,1.47726 -0.8158,3.5829 0,2.49149 1.2237,4.22231 1.35599,1.92925 3.68211,1.92925 0.23151,0 0.47405,-0.022 0.0662,0.011 0.22049,0.13229 z" />
      <path
         id="path847"
         style="letter-spacing:-1.05833328px"
         d="m 149.98501,128.15121 q -0.0441,0.16536 -0.23151,0.20946 -0.13229,0.0331 -0.3638,0.0221 -0.35278,-0.0331 -0.34175,-0.0331 -0.0992,0 -0.28664,0.0221 -0.17638,0.0331 -0.2756,0.0331 -0.50712,0 -0.50712,-0.50712 0,-0.7717 -2.18281,-8.41154 -0.95912,0.35277 -2.29306,0.47404 l 0.011,8.14696 q 0,0.23151 -0.31971,0.23151 h -1.26779 q -0.31971,0 -0.31971,-0.46302 l -0.0221,-14.05599 q 0,-0.50712 0.38585,-0.50712 0.83785,0 2.51354,0.0221 1.6757,0.011 2.51355,0.011 0.98116,0 1.5875,0.66146 0.57326,0.63941 0.57326,1.63159 0,1.81901 -1.96233,2.98759 0.48507,1.87413 1.36702,4.77352 1.19062,3.95773 1.42213,4.75148 z m -2.64583,-12.3362 q 0,-0.85989 -2.41432,-0.84887 l -1.42214,0.011 q 0,0.0992 -0.0221,0.41893 -0.011,0.26458 -0.011,0.41892 0,0.33073 0.0331,2.29306 h 0.11024 q 1.01424,0.011 2.28204,-0.63941 1.44418,-0.73863 1.44418,-1.65365 z" />
      <path
         id="path849"
         style="font-style:normal;font-variant:normal;font-weight:normal;font-stretch:normal;font-family:'American Horror Story';-inkscape-font-specification:'American Horror Story';letter-spacing:-1.05833328px"
         d="m 153.34064,118.2012 h 2.032 v -1.78364 h -2.032 v -1.35467 h 2.032 v -1.78364 h -3.8608 v 15.05937 h 3.8608 v -1.78364 h -2.032 z" />
    </g>
  </g>
</svg>
