<?xml version="1.0" encoding="UTF-8" standalone="no"?>
<svg
   xmlns:dc="http://purl.org/dc/elements/1.1/"
   xmlns:cc="http://creativecommons.org/ns#"
   xmlns:rdf="http://www.w3.org/1999/02/22-rdf-syntax-ns#"
   xmlns:svg="http://www.w3.org/2000/svg"
   xmlns="http://www.w3.org/2000/svg"
   xmlns:sodipodi="http://sodipodi.sourceforge.net/DTD/sodipodi-0.dtd"
   xmlns:inkscape="http://www.inkscape.org/namespaces/inkscape"
   width="73.349297mm"
   height="8.0046539mm"
   viewBox="0 0 73.349297 8.0046539"
   version="1.1"
   id="svg8"
   inkscape:version="1.0.2 (394de47547, 2021-03-26)"
   sodipodi:docname="logo.svg">
  <defs
     id="defs2" />
  <sodipodi:namedview
     id="base"
     pagecolor="#ffffff"
     bordercolor="#666666"
     borderopacity="1.0"
     inkscape:pageopacity="0.0"
     inkscape:pageshadow="2"
     inkscape:zoom="0.7"
     inkscape:cx="67.454726"
     inkscape:cy="312.14812"
     inkscape:document-units="mm"
     inkscape:current-layer="layer1"
     inkscape:document-rotation="0"
     showgrid="false"
     fit-margin-top="0"
     fit-margin-left="0"
     fit-margin-right="0"
     fit-margin-bottom="0"
     inkscape:window-width="1439"
     inkscape:window-height="1023"
     inkscape:window-x="0"
     inkscape:window-y="27"
     inkscape:window-maximized="0" />
  <metadata
     id="metadata5">
    <rdf:RDF>
      <cc:Work
         rdf:about="">
        <dc:format>image/svg+xml</dc:format>
        <dc:type
           rdf:resource="http://purl.org/dc/dcmitype/StillImage" />
        <dc:title></dc:title>
      </cc:Work>
    </rdf:RDF>
  </metadata>
  <g
     inkscape:label="Layer 1"
     inkscape:groupmode="layer"
     id="layer1"
     transform="translate(-40.079282,-33.452992)">
    <g
       aria-label="WITTESENDE"
       id="text835"
       style="font-size:10.5833px;line-height:1.25;font-family:Ballpark;-inkscape-font-specification:Ballpark;word-spacing:0px;stroke-width:0.264583">
      <path
         d="m 40.079282,33.592518 h 1.906855 l 1.333247,5.606875 1.322913,-5.606875 h 1.917189 l 1.322913,5.606875 1.333248,-5.606875 h 1.891351 l -1.819005,7.715267 H 46.993567 L 45.59314,35.442529 44.208216,41.307785 H 41.91379 Z"
         style="font-style:normal;font-variant:normal;font-weight:bold;font-stretch:normal;font-family:'DejaVu Sans';-inkscape-font-specification:'DejaVu Sans Bold'"
         id="path841" />
      <path
         d="m 52.414408,33.592518 h 1.989536 v 7.715267 h -1.989536 z"
         style="font-style:normal;font-variant:normal;font-weight:bold;font-stretch:normal;font-family:'DejaVu Sans';-inkscape-font-specification:'DejaVu Sans Bold'"
         id="path843" />
      <path
         d="m 55.442637,33.592518 h 7.110654 v 1.50378 h -2.557975 v 6.211487 H 58.00578 v -6.211487 h -2.563143 z"
         style="font-style:normal;font-variant:normal;font-weight:bold;font-stretch:normal;font-family:'DejaVu Sans';-inkscape-font-specification:'DejaVu Sans Bold'"
         id="path845" />
      <path
         d="m 62.90469,33.592518 h 7.110655 v 1.50378 h -2.557976 v 6.211487 H 65.467833 V 35.096298 H 62.90469 Z"
         style="font-style:normal;font-variant:normal;font-weight:bold;font-stretch:normal;font-family:'DejaVu Sans';-inkscape-font-specification:'DejaVu Sans Bold'"
         id="path847" />
      <path
         d="m 71.038534,33.592518 h 5.369164 v 1.50378 h -3.379627 v 1.4366 h 3.17809 v 1.503779 h -3.17809 v 1.767329 h 3.493315 v 1.503779 h -5.482852 z"
         style="font-style:normal;font-variant:normal;font-weight:bold;font-stretch:normal;font-family:'DejaVu Sans';-inkscape-font-specification:'DejaVu Sans Bold'"
         id="path849" />
      <path
         d="m 83.642375,33.835397 v 1.63297 q -0.635618,-0.28422 -1.240231,-0.428913 -0.604612,-0.144694 -1.142045,-0.144694 -0.713133,0 -1.054196,0.19637 -0.341063,0.19637 -0.341063,0.60978 0,0.310058 0.227375,0.485757 0.232543,0.170532 0.837156,0.294555 l 0.847491,0.170531 q 1.286739,0.258382 1.829339,0.78548 0.542601,0.527098 0.542601,1.498611 0,1.276404 -0.759641,1.901687 -0.754473,0.620115 -2.309929,0.620115 -0.733803,0 -1.472774,-0.139526 -0.73897,-0.139526 -1.477941,-0.41341 v -1.679479 q 0.738971,0.39274 1.426265,0.594278 0.692462,0.196369 1.333248,0.196369 0.651121,0 0.997352,-0.21704 0.346231,-0.21704 0.346231,-0.620115 0,-0.361734 -0.237711,-0.558104 -0.232543,-0.19637 -0.935341,-0.351399 l -0.769976,-0.170531 q -1.157548,-0.248046 -1.694982,-0.790647 -0.532265,-0.542601 -0.532265,-1.462438 0,-1.152381 0.744138,-1.772496 0.744138,-0.620116 2.139398,-0.620116 0.635618,0 1.307409,0.09819 0.671792,0.09302 1.390092,0.28422 z"
         style="font-style:normal;font-variant:normal;font-weight:bold;font-stretch:normal;font-family:'DejaVu Sans';-inkscape-font-specification:'DejaVu Sans Bold'"
         id="path851" />
      <path
         d="m 86.215854,33.592518 h 4.361477 v 0.428913 h -3.834379 v 2.96105 h 3.674183 v 0.418578 h -3.674183 v 3.488148 h 3.927397 v 0.418578 h -4.454495 z"
         style="font-style:normal;font-variant:normal;font-weight:200;font-stretch:normal;font-family:'DejaVu Sans';-inkscape-font-specification:'DejaVu Sans Ultra-Light'"
         id="path853" />
      <path
         d="m 92.907929,33.592518 h 0.764809 l 3.741362,7.053811 v -7.053811 h 0.516763 v 7.715267 H 97.19706 l -3.762033,-7.100319 v 7.100319 h -0.527098 z"
         style="font-style:normal;font-variant:normal;font-weight:200;font-stretch:normal;font-family:'DejaVu Sans';-inkscape-font-specification:'DejaVu Sans Ultra-Light'"
         id="path855" />
      <path
         d="m 101.357,34.031767 v 6.85744 h 1.52962 q 1.74666,0 2.55797,-0.82682 0.81649,-0.82682 0.81649,-2.609652 0,-1.772496 -0.81649,-2.599316 -0.81131,-0.821652 -2.55797,-0.821652 z m -0.5271,-0.439249 h 1.89652 q 2.10839,0 3.09541,0.935341 0.98702,0.930173 0.98702,2.914541 0,1.994704 -0.99219,2.930045 -0.99218,0.93534 -3.09024,0.93534 h -1.89652 z"
         style="font-style:normal;font-variant:normal;font-weight:200;font-stretch:normal;font-family:'DejaVu Sans';-inkscape-font-specification:'DejaVu Sans Ultra-Light'"
         id="path857" />
      <path
         d="m 108.97408,33.592518 h 4.36148 v 0.428913 h -3.83438 v 2.96105 h 3.67418 v 0.418578 h -3.67418 v 3.488148 h 3.9274 v 0.418578 h -4.4545 z"
         style="font-style:normal;font-variant:normal;font-weight:200;font-stretch:normal;font-family:'DejaVu Sans';-inkscape-font-specification:'DejaVu Sans Ultra-Light'"
         id="path859" />
    </g>
  </g>
</svg>
