<?xml version="1.0" encoding="UTF-8" standalone="no"?>
<svg
   xmlns:dc="http://purl.org/dc/elements/1.1/"
   xmlns:cc="http://creativecommons.org/ns#"
   xmlns:rdf="http://www.w3.org/1999/02/22-rdf-syntax-ns#"
   xmlns:svg="http://www.w3.org/2000/svg"
   xmlns="http://www.w3.org/2000/svg"
   id="svg8"
   version="1.1"
   viewBox="0 0 84.758385 15.642059"
   height="15.642059mm"
   width="84.758385mm">
  <defs
     id="defs2" />
  <metadata
     id="metadata5">
    <rdf:RDF>
      <cc:Work
         rdf:about="">
        <dc:format>image/svg+xml</dc:format>
        <dc:type
           rdf:resource="http://purl.org/dc/dcmitype/StillImage" />
        <dc:title></dc:title>
      </cc:Work>
    </rdf:RDF>
  </metadata>
  <g
     transform="translate(-23.615145,-22.411888)"
     id="layer1">
    <g
       id="text817"
       style="font-style:normal;font-variant:normal;font-weight:normal;font-stretch:normal;font-size:22.57777786px;line-height:0.25;font-family:'American Horror Story';-inkscape-font-specification:'American Horror Story';letter-spacing:0px;word-spacing:0px;stroke-width:0.26458332"
       aria-label="Wittes Ende">
      <path
         id="path819"
         style="stroke-width:0.26458332"
         d="m 31.562523,29.286821 1.738489,-6.637867 h -1.783645 l -0.835378,3.770489 -0.835377,-3.770489 H 27.9275 l 1.8288,6.9088 -1.2192,4.763911 -3.002844,-11.672711 h -1.919111 l 3.973689,15.059378 h 1.738489 l 1.286933,-5.508978 1.286933,5.508978 h 1.738489 l 3.973689,-15.059378 h -1.783644 l -2.980267,11.672711 z" />
      <path
         id="path821"
         style="stroke-width:0.26458332"
         d="m 38.126306,23.529488 v -0.903112 h 1.761066 1.761067 v 0.903112 0.880533 h -0.428978 -0.451555 v 5.757333 5.734756 h 0.451555 0.428978 v 0.903111 0.880533 H 39.887372 38.126306 V 36.805221 35.90211 h 0.428978 0.451555 v -5.734756 -5.757333 h -0.451555 -0.428978 z" />
      <path
         id="path823"
         style="stroke-width:0.26458332"
         d="m 49.179186,25.448599 h -7.134578 v 1.648177 h 2.754489 v 10.611556 h 1.8288 V 27.096776 h 2.551289 v 10.611556 h 1.8288 v -13.4112 h 3.341511 v -1.648178 h -8.782756 v 1.648178 h 3.612445 z" />
      <path
         id="path825"
         style="stroke-width:0.26458332"
         d="m 57.393616,27.57091 h 2.032 v -1.783645 h -2.032 v -1.354666 h 2.032 v -1.783645 h -3.8608 v 15.059378 h 3.8608 v -1.783644 h -2.032 z" />
      <path
         id="path827"
         style="stroke-width:0.26458332"
         d="m 64.197289,22.513488 q 0.428978,-0.135467 1.2192,-0.09031 0.8128,0.04516 1.061156,0.225778 0.06773,0.06773 0,0.338667 -0.04516,0.248355 -0.316089,1.286933 l -0.04516,0.225778 -0.180623,-0.112889 q -0.361244,-0.270933 -0.857955,-0.270933 -0.474134,-0.02258 -0.6096,0.225778 -0.112889,0.248355 0.2032,0.6096 0.316089,0.361244 1.2192,1.061155 1.761066,1.332089 2.596444,2.619022 0.835378,1.264356 1.016,2.8448 0.09031,0.903111 -0.09031,1.919111 -0.180622,0.993423 -0.587022,1.806223 -0.293511,0.587022 -0.767645,1.128889 -0.474133,0.541866 -1.061155,0.948266 -0.564445,0.383823 -1.128889,0.564445 -0.790222,0.248355 -1.761067,0.2032 -0.970844,-0.02258 -1.8288,-0.338667 -0.293511,-0.09031 -0.654755,-0.270933 -0.361245,-0.2032 -0.451556,-0.316089 -0.04516,-0.06773 0.361245,-0.8128 0.4064,-0.745067 0.428977,-0.790222 0.04516,-0.02258 0.225778,0.112888 0.451556,0.338667 1.309511,0.519289 0.857956,0.158045 1.467556,0 1.557867,-0.361244 2.280355,-1.896533 0.383823,-0.8128 0.428978,-1.715911 0.06773,-1.6256 -0.677333,-2.8448 -0.361245,-0.564445 -0.790222,-0.993422 -0.428978,-0.428978 -1.377245,-1.196623 -1.241778,-0.970844 -1.535289,-1.332088 -0.835377,-0.925689 -0.722489,-1.919112 0.09031,-0.699911 0.541867,-1.128888 0.451556,-0.4064 1.083733,-0.6096 z" />
      <path
         id="path829"
         style="stroke-width:0.26458332"
         d="m 76.740305,30.189932 v -7.540978 h 1.941689 1.941689 v 0.903111 0.880534 h -1.016 -1.016 v 0.677333 0.677333 h 1.603022 1.6256 v 0.880534 0.903111 h -1.6256 -1.603022 v 4.176889 4.176889 h 1.873955 1.896534 v 0.903111 0.880533 h -2.799645 -2.822222 z" />
      <path
         id="path831"
         style="stroke-width:0.26458332"
         d="m 85.98908,26.103354 4.831644,7.021689 v 4.583289 h 1.761067 V 22.648954 h -1.761067 v 7.292622 l -5.057422,-7.292622 h -1.535289 v 15.059378 h 1.761067 z" />
      <path
         id="path833"
         style="stroke-width:0.26458332"
         d="m 96.343457,24.477754 v 11.469511 q 2.144889,-0.270933 3.318933,-2.348089 1.19662,-2.099733 1.19662,-4.696177 0,-2.099734 -1.083731,-3.2512 -1.083733,-1.174045 -3.431822,-1.174045 z m 5.870223,1.715911 q 0.18062,0.383823 0.27093,1.061156 0.0903,0.654755 0.0903,1.399822 0,0.993422 -0.15804,2.009422 -0.13547,0.993423 -0.49671,2.144889 -0.36125,1.151467 -1.51271,2.483556 -1.15147,1.332089 -2.822225,1.941689 l -1.332089,0.293511 q -0.8128,0.180622 -1.286933,0.180622 -0.2032,0 -0.2032,-0.04516 v -14.99164 q 1.896533,0 3.206044,0.2032 1.309511,0.2032 2.438403,0.970844 1.15146,0.745067 1.80622,2.348089 z" />
      <path
         id="path835"
         style="stroke-width:0.26458332"
         d="m 106.34153,27.57091 h 2.032 v -1.783645 h -2.032 v -1.354666 h 2.032 v -1.783645 h -3.8608 v 15.059378 h 3.8608 v -1.783644 h -2.032 z" />
    </g>
  </g>
</svg>
