<?xml version="1.0" encoding="UTF-8"?>
<svg width="93px" height="93px" viewBox="0 0 93 93" version="1.1" xmlns="http://www.w3.org/2000/svg" xmlns:xlink="http://www.w3.org/1999/xlink">
    <!-- Generator: Sketch 51.3 (57544) - http://www.bohemiancoding.com/sketch -->
    <title>office / methodology-process</title>
    <desc>Created with Sketch.</desc>
    <defs>
        <circle id="path-1" cx="45" cy="3" r="3"></circle>
        <circle id="path-2" cx="45" cy="33" r="3"></circle>
        <circle id="path-3" cx="45" cy="59" r="3"></circle>
        <circle id="path-4" cx="45" cy="88" r="3"></circle>
        <circle id="path-5" cx="88" cy="46" r="3"></circle>
        <circle id="path-6" cx="3" cy="46" r="3"></circle>
    </defs>
    <g id="Symbols" stroke="none" stroke-width="1" fill="none" fill-rule="evenodd">
        <g id="10" transform="translate(-20.000000, -20.000000)">
            <g id="office-/-methodology-process" transform="translate(21.000000, 21.000000)">
                <path d="M45.2741935,32.75 L1.72580645,46.25" id="Line" stroke="#E5E5E5" stroke-linecap="round" stroke-linejoin="round"></path>
                <path d="M44.3676961,3.6323039 L1.73333333,46.2666667" id="Line" stroke="#E5E5E5" stroke-linecap="round" stroke-linejoin="round"></path>
                <path d="M45.2741935,45.75 L1.72580645,59.25" id="Line-Copy-2" stroke="#E5E5E5" stroke-linecap="round" stroke-linejoin="round" transform="translate(23.500000, 52.500000) scale(1, -1) translate(-23.500000, -52.500000) "></path>
                <path d="M44.2841696,88.3676961 L1.73192093,45.7333333 L44.2841696,88.3676961 Z" id="Line-Copy-6" stroke="#E5E5E5" stroke-linecap="round" stroke-linejoin="round"></path>
                <path d="M89.2741935,32.75 L45.7258065,46.25" id="Line-Copy-7" stroke="#E5E5E5" stroke-linecap="round" stroke-linejoin="round" transform="translate(67.500000, 39.500000) scale(-1, 1) translate(-67.500000, -39.500000) "></path>
                <path d="M45.1446818,3.6323039 L89.2666667,46.2666667 L45.1446818,3.6323039 Z" id="Line-Copy-8" stroke="#E5E5E5" stroke-linecap="round" stroke-linejoin="round"></path>
                <path d="M89.2741935,45.75 L45.7258065,59.25" id="Line-Copy-9" stroke="#E5E5E5" stroke-linecap="round" stroke-linejoin="round" transform="translate(67.500000, 52.500000) scale(-1, -1) translate(-67.500000, -52.500000) "></path>
                <path d="M45.1446818,88.3676961 L89.2666667,45.7333333 L45.1446818,88.3676961 Z" id="Line-Copy-10" stroke="#E5E5E5" stroke-linecap="round" stroke-linejoin="round"></path>
                <g id="Oval-Copy-490" transform="translate(45.000000, 3.000000) rotate(-360.000000) translate(-45.000000, -3.000000) " stroke="#FFFFFF">
                    <circle stroke-width="1.5" stroke-linejoin="square" fill="#515151" fill-rule="evenodd" cx="45" cy="3" r="2.25"></circle>
                    <use stroke-width="1" xlink:href="#path-1"></use>
                </g>
                <g id="Oval-Copy-491" transform="translate(45.000000, 33.000000) rotate(-360.000000) translate(-45.000000, -33.000000) " stroke="#FFFFFF">
                    <circle stroke-width="1.5" stroke-linejoin="square" fill="#515151" fill-rule="evenodd" cx="45" cy="33" r="2.25"></circle>
                    <use stroke-width="1" xlink:href="#path-2"></use>
                </g>
                <g id="Oval-Copy-492" transform="translate(45.000000, 59.000000) rotate(-360.000000) translate(-45.000000, -59.000000) " stroke="#FFFFFF">
                    <circle stroke-width="1.5" stroke-linejoin="square" fill="#515151" fill-rule="evenodd" cx="45" cy="59" r="2.25"></circle>
                    <use stroke-width="1" xlink:href="#path-3"></use>
                </g>
                <g id="Oval-Copy-493" transform="translate(45.000000, 88.000000) rotate(-360.000000) translate(-45.000000, -88.000000) " stroke="#FFFFFF">
                    <circle stroke-width="1.5" stroke-linejoin="square" fill="#515151" fill-rule="evenodd" cx="45" cy="88" r="2.25"></circle>
                    <use stroke-width="1" xlink:href="#path-4"></use>
                </g>
                <g id="Oval-Copy-495" transform="translate(88.000000, 46.000000) rotate(-360.000000) translate(-88.000000, -46.000000) " stroke="#FFFFFF">
                    <circle stroke-width="1.5" stroke-linejoin="square" fill="#515151" fill-rule="evenodd" cx="88" cy="46" r="2.25"></circle>
                    <use stroke-width="1" xlink:href="#path-5"></use>
                </g>
                <g id="Oval-Copy-496" transform="translate(3.000000, 46.000000) rotate(-360.000000) translate(-3.000000, -46.000000) " stroke="#FFFFFF">
                    <circle stroke-width="1.5" stroke-linejoin="square" fill="#515151" fill-rule="evenodd" cx="3" cy="46" r="2.25"></circle>
                    <use stroke-width="1" xlink:href="#path-6"></use>
                </g>
            </g>
        </g>
    </g>
</svg>