<?xml version="1.0" encoding="UTF-8" standalone="no"?>
<svg
   xmlns:dc="http://purl.org/dc/elements/1.1/"
   xmlns:cc="http://creativecommons.org/ns#"
   xmlns:rdf="http://www.w3.org/1999/02/22-rdf-syntax-ns#"
   xmlns:svg="http://www.w3.org/2000/svg"
   xmlns="http://www.w3.org/2000/svg"
   id="svg8"
   version="1.1"
   viewBox="0 0 107.37045 15.642636"
   height="15.642636mm"
   width="107.37045mm">
  <defs
     id="defs2" />
  <metadata
     id="metadata5">
    <rdf:RDF>
      <cc:Work
         rdf:about="">
        <dc:format>image/svg+xml</dc:format>
        <dc:type
           rdf:resource="http://purl.org/dc/dcmitype/StillImage" />
        <dc:title></dc:title>
      </cc:Work>
    </rdf:RDF>
  </metadata>
  <g
     transform="translate(-53.154133,-52.649982)"
     id="layer1">
    <g
       id="text817"
       style="font-style:normal;font-variant:normal;font-weight:normal;font-stretch:normal;font-size:22.57777786px;line-height:0.25;font-family:'Upperercase and Lowerercase';-inkscape-font-specification:'Upperercase and Lowerercase';letter-spacing:0px;word-spacing:0px;stroke-width:0.26458332"
       aria-label="Dead Neurons">
      <path
         id="path837"
         style="font-style:normal;font-variant:normal;font-weight:normal;font-stretch:normal;font-family:'American Horror Story';-inkscape-font-specification:'American Horror Story';stroke-width:0.26458332"
         d="M 54.73458,54.715849 V 66.18536 q 2.144889,-0.270934 3.318933,-2.348089 1.196622,-2.099734 1.196622,-4.696178 0,-2.099733 -1.083733,-3.2512 -1.083733,-1.174044 -3.431822,-1.174044 z m 5.870222,1.715911 q 0.180622,0.383822 0.270933,1.061155 0.09031,0.654756 0.09031,1.399822 0,0.993423 -0.158045,2.009423 -0.135467,0.993422 -0.496711,2.144889 -0.361244,1.151466 -1.512711,2.483555 -1.151467,1.332089 -2.822222,1.941689 l -1.332089,0.293511 q -0.8128,0.180622 -1.286934,0.180622 -0.2032,0 -0.2032,-0.04516 v -14.99164 q 1.896534,0 3.206045,0.2032 1.309511,0.2032 2.4384,0.970845 1.151467,0.745066 1.806222,2.348089 z" />
      <path
         id="path839"
         style="font-style:normal;font-variant:normal;font-weight:normal;font-stretch:normal;font-family:'American Horror Story';-inkscape-font-specification:'American Horror Story';stroke-width:0.26458332"
         d="m 71.1899,62.798693 0.248355,-0.993422 h 2.889956 l 0.248355,0.993422 z m 3.702755,1.241778 0.970845,3.905955 h 1.919111 L 73.854077,52.887049 h -1.919111 l -3.499555,13.4112 h -3.702756 v -8.963378 h 5.260622 v -1.648178 h -5.260622 v -1.151467 h 4.289778 v -1.648177 h -6.118578 v 15.059377 h 8.918222 v -1.648177 h -1.512711 l 0.564445,-2.257778 z M 74.0347,60.563493 h -2.302934 l 1.151467,-4.583289 z" />
      <path
         id="path841"
         style="font-style:normal;font-variant:normal;font-weight:normal;font-stretch:normal;font-family:'American Horror Story';-inkscape-font-specification:'American Horror Story';stroke-width:0.26458332"
         d="M 80.531455,54.715849 V 66.18536 q 2.144889,-0.270934 3.318933,-2.348089 1.196622,-2.099734 1.196622,-4.696178 0,-2.099733 -1.083733,-3.2512 -1.083733,-1.174044 -3.431822,-1.174044 z m 5.870222,1.715911 q 0.180622,0.383822 0.270933,1.061155 0.09031,0.654756 0.09031,1.399822 0,0.993423 -0.158045,2.009423 -0.135467,0.993422 -0.496711,2.144889 -0.361244,1.151466 -1.512711,2.483555 -1.151467,1.332089 -2.822222,1.941689 l -1.332089,0.293511 q -0.8128,0.180622 -1.286934,0.180622 -0.2032,0 -0.2032,-0.04516 v -14.99164 q 1.896534,0 3.206045,0.2032 1.309511,0.2032 2.4384,0.970845 1.151467,0.745066 1.806222,2.348089 z" />
      <path
         id="path843"
         style="font-style:normal;font-variant:normal;font-weight:normal;font-stretch:normal;font-family:'American Horror Story';-inkscape-font-specification:'American Horror Story';stroke-width:0.26458332"
         d="m 101.58735,67.946426 h 1.64818 V 52.887049 h -1.69334 V 63.724382 L 96.30415,52.887049 h -1.738489 v 15.059377 h 1.693334 V 57.018782 Z" />
      <path
         id="path845"
         style="font-style:normal;font-variant:normal;font-weight:normal;font-stretch:normal;font-family:'American Horror Story';-inkscape-font-specification:'American Horror Story';stroke-width:0.26458332"
         d="m 107.41876,57.809004 h 2.032 V 56.02536 h -2.032 v -1.354667 h 2.032 v -1.783644 h -3.8608 v 15.059377 h 3.8608 v -1.783644 h -2.032 z" />
      <path
         id="path847"
         style="font-style:normal;font-variant:normal;font-weight:normal;font-stretch:normal;font-family:'American Horror Story';-inkscape-font-specification:'American Horror Story';stroke-width:0.26458332"
         d="m 111.85177,58.960471 -0.0226,-6.073422 h 0.92569 0.90311 l 0.0226,5.960533 0.0226,5.960533 0.2032,0.383822 q 0.65475,1.264356 2.07715,1.264356 0.49672,0 0.85796,-0.158044 0.97084,-0.383823 1.33209,-1.174045 l 0.11289,-0.248355 0.0226,-6.005689 v -5.983111 h 0.92568 0.92569 l -0.0226,6.073422 q 0,0.428978 0,1.2192 -0.0226,3.838222 -0.0677,4.560711 -0.0226,0.699911 -0.24835,1.151467 -0.0452,0.09031 -0.0677,0.135466 -0.33866,0.722489 -1.10631,1.332089 -0.76764,0.6096 -1.60302,0.835378 -0.27093,0.06773 -0.67733,0.09031 -0.4064,0.02258 -0.8128,-0.02258 -0.4064,-0.02258 -0.69991,-0.09031 -0.83538,-0.248355 -1.53529,-0.8128 -0.69991,-0.587022 -1.06116,-1.332089 -0.0226,-0.04516 -0.0677,-0.135466 -0.24836,-0.451556 -0.29351,-1.174045 -0.0226,-0.722489 -0.0452,-4.583289 0,-0.767644 0,-1.174044 z" />
      <path
         id="path849"
         style="font-style:normal;font-variant:normal;font-weight:normal;font-stretch:normal;font-family:Willow;-inkscape-font-specification:Willow"
         d="m 130.43329,67.759013 q -0.0441,0.165365 -0.23151,0.209462 -0.1323,0.03307 -0.36381,0.02205 -0.35277,-0.03307 -0.34175,-0.03307 -0.0992,0 -0.28663,0.02205 -0.17639,0.03307 -0.27561,0.03307 -0.50712,0 -0.50712,-0.507118 0,-0.771701 -2.18281,-8.411545 -0.95912,0.352778 -2.29306,0.474045 l 0.011,8.146962 q 0,0.23151 -0.31971,0.23151 h -1.26779 q -0.31971,0 -0.31971,-0.46302 l -0.0221,-14.05599 q 0,-0.507118 0.38586,-0.507118 0.83784,0 2.51354,0.02205 1.67569,0.01102 2.51354,0.01102 0.98116,0 1.5875,0.661458 0.57326,0.63941 0.57326,1.631597 0,1.819011 -1.96232,2.987587 0.48507,1.874132 1.36701,4.773524 1.19063,3.957726 1.42214,4.751476 z m -2.64584,-12.336198 q 0,-0.859896 -2.41432,-0.848871 l -1.42214,0.01102 q 0,0.09922 -0.022,0.418924 -0.011,0.264583 -0.011,0.418923 0,0.330729 0.0331,2.293056 h 0.11025 q 1.01423,0.01102 2.28203,-0.63941 1.44418,-0.738628 1.44418,-1.653646 z" />
      <path
         id="path851"
         style="font-style:normal;font-variant:normal;font-weight:normal;font-stretch:normal;font-family:Willow;-inkscape-font-specification:Willow"
         d="m 140.00238,57.958406 q 0,1.863107 -1.36701,3.175 -1.36702,1.300868 -3.23012,1.300868 -1.69775,0 -2.98759,-1.333941 -1.28984,-1.333941 -1.28984,-3.042709 0,-2.105642 1.10243,-3.516753 1.20165,-1.532379 3.25217,-1.532379 h 0.38585 q 1.8631,0 3.05373,1.576476 1.08038,1.444184 1.08038,3.373438 z m -3.29627,6.250781 q 0,0.507118 -0.0441,0.650434 -0.0992,0.330729 -0.452,0.330729 h -1.01424 q -0.39687,0 -0.48506,-0.341753 -0.0331,-0.121268 -0.0331,-0.694532 0,-1.014236 0.51814,-0.959114 0.41893,0.0441 1.01424,-0.01103 0.49609,0 0.49609,1.025261 z m 0.0331,2.711979 q 0,0.507118 -0.0441,0.650434 -0.0992,0.330729 -0.46302,0.330729 h -1.01424 q -0.38585,0 -0.48507,-0.341753 -0.022,-0.110243 -0.022,-0.694532 0,-1.014236 0.50711,-0.959114 0.42995,0.0441 1.01424,-0.01102 0.50712,0 0.50712,1.02526 z m 1.53238,-9.436806 q 0,-1.212673 -0.66146,-2.017448 -0.71658,-0.87092 -1.90721,-0.87092 -1.37804,0 -2.10564,0.948091 -0.66146,0.859895 -0.66146,2.282031 0,1.091406 0.74965,1.940278 0.76068,0.848871 1.84106,0.848871 1.23473,0 2.01745,-0.970139 0.72761,-0.892968 0.72761,-2.160764 z" />
      <path
         id="path853"
         style="font-style:normal;font-variant:normal;font-weight:normal;font-stretch:normal;font-family:'American Horror Story';-inkscape-font-specification:'American Horror Story';stroke-width:0.26458332"
         d="m 143.86353,56.341449 4.83165,7.021688 v 4.583289 h 1.76106 V 52.887049 h -1.76106 v 7.292622 l -5.05743,-7.292622 h -1.53528 v 15.059377 h 1.76106 z" />
      <path
         id="path855"
         style="font-style:normal;font-variant:normal;font-weight:normal;font-stretch:normal;font-family:'American Horror Story';-inkscape-font-specification:'American Horror Story';stroke-width:0.26458332"
         d="m 155.18875,52.751582 q 0.42898,-0.135467 1.2192,-0.09031 0.8128,0.04516 1.06116,0.225778 0.0677,0.06773 0,0.338666 -0.0452,0.248356 -0.31609,1.286934 l -0.0452,0.225777 -0.18063,-0.112889 q -0.36124,-0.270933 -0.85795,-0.270933 -0.47414,-0.02258 -0.6096,0.225778 -0.11289,0.248355 0.2032,0.6096 0.31609,0.361244 1.2192,1.061155 1.76106,1.332089 2.59644,2.619023 0.83538,1.264355 1.016,2.8448 0.0903,0.903111 -0.0903,1.919111 -0.18062,0.993422 -0.58702,1.806222 -0.29351,0.587022 -0.76765,1.128889 -0.47413,0.541867 -1.06115,0.948267 -0.56445,0.383822 -1.12889,0.564444 -0.79022,0.248356 -1.76107,0.2032 -0.97084,-0.02258 -1.8288,-0.338667 -0.29351,-0.09031 -0.65475,-0.270933 -0.36125,-0.2032 -0.45156,-0.316089 -0.0452,-0.06773 0.36125,-0.8128 0.4064,-0.745067 0.42897,-0.790222 0.0452,-0.02258 0.22578,0.112889 0.45156,0.338666 1.30951,0.519289 0.85796,0.158044 1.46756,0 1.55787,-0.361245 2.28035,-1.896534 0.38383,-0.8128 0.42898,-1.715911 0.0677,-1.6256 -0.67733,-2.8448 -0.36125,-0.564444 -0.79022,-0.993422 -0.42898,-0.428978 -1.37725,-1.196622 -1.24178,-0.970845 -1.53529,-1.332089 -0.83537,-0.925689 -0.72249,-1.919111 0.0903,-0.699911 0.54187,-1.128889 0.45156,-0.4064 1.08373,-0.6096 z" />
    </g>
  </g>
</svg>
