<?xml version="1.0" encoding="iso-8859-1"?>
<!-- Generator: Adobe Illustrator 17.0.0, SVG Export Plug-In . SVG Version: 6.00 Build 0)  -->
<!DOCTYPE svg PUBLIC "-//W3C//DTD SVG 1.1//EN" "http://www.w3.org/Graphics/SVG/1.1/DTD/svg11.dtd">
<svg version="1.1" id="lab_experiments" xmlns="http://www.w3.org/2000/svg" xmlns:xlink="http://www.w3.org/1999/xlink" x="0px"
	 y="0px" width="120px" height="141px" viewBox="0 0 120 141" style="enable-background:new 0 0 120 141;" xml:space="preserve">
<g id="lab_experiments_1_">
	<g>
		<rect x="0" y="130" style="fill:#E4E5E7;" width="120" height="5"/>
	</g>
	<g>
		<rect x="15" style="fill:#E4E5E7;" width="5" height="10"/>
	</g>
	<g>
		<rect x="15" y="30" style="fill:#E4E5E7;" width="5" height="100"/>
	</g>
	<g>
		<circle style="fill:#EFD32E;" cx="109.5" cy="105" r="10.5"/>
	</g>
	<g>
		<circle style="fill:#EFD32E;" cx="31.435" cy="31.083" r="1.757"/>
	</g>
	<g>
		<circle style="fill:#EFD32E;" cx="105" cy="5.562" r="1.757"/>
	</g>
	<g>
		<circle style="fill:#EFD32E;" cx="35.001" cy="67.5" r="1.757"/>
	</g>
	<g>
		<circle style="fill:#EFD32E;" cx="116.757" cy="77.981" r="1.757"/>
	</g>
	<g>
		<polyline style="fill:#C4C4C4;" points="60,130 65,120 85,120 90,130 		"/>
	</g>
	<g>
		<g>
			<path style="fill:#C4C4C4;" d="M79.875,45.479V10H70v35.501C61.948,47.136,55.317,52.65,52.102,60h45.796
				C94.666,52.614,87.984,47.082,79.875,45.479z"/>
		</g>
		<g>
			<path style="fill:#EFD32E;" d="M52.102,60C50.761,63.064,50,66.441,50,70c0,13.807,11.193,25,25,25s25-11.193,25-25
				c0-3.56-0.762-6.936-2.103-10H52.102z"/>
		</g>
	</g>
	<g>
		<rect y="139" width="120" height="2"/>
	</g>
	<g>
		<rect y="129" width="120" height="2"/>
	</g>
	<g>
		<rect x="9" y="29" width="2" height="101"/>
	</g>
	<g>
		<rect x="19" y="29" width="2" height="101"/>
	</g>
	<g>
		<path d="M15,31C8.935,31,4,26.065,4,20S8.935,9,15,9s11,4.935,11,11S21.065,31,15,31z M15,11c-4.963,0-9,4.037-9,9s4.037,9,9,9
			s9-4.037,9-9S19.963,11,15,11z"/>
	</g>
	<g>
		<rect x="9" width="2" height="11.125"/>
	</g>
	<g>
		<rect x="19" width="2" height="11.125"/>
	</g>
	<g>
		<rect x="25" y="19" width="95" height="2"/>
	</g>
	<g>
		<path d="M70,86c-1.93,0-3.5-1.57-3.5-3.5S68.07,79,70,79s3.5,1.57,3.5,3.5S71.93,86,70,86z M70,81c-0.827,0-1.5,0.673-1.5,1.5
			S69.173,84,70,84s1.5-0.673,1.5-1.5S70.827,81,70,81z"/>
	</g>
	<g>
		<path d="M62.5,70.18c-1.478,0-2.68-1.202-2.68-2.68s1.202-2.68,2.68-2.68s2.68,1.202,2.68,2.68S63.978,70.18,62.5,70.18z
			 M62.5,66.82c-0.375,0-0.68,0.305-0.68,0.68s0.305,0.68,0.68,0.68s0.68-0.305,0.68-0.68S62.875,66.82,62.5,66.82z"/>
	</g>
	<g>
		<path d="M86.641,78.98c-3.091,0-5.605-2.515-5.605-5.605s2.515-5.605,5.605-5.605s5.605,2.515,5.605,5.605
			S89.731,78.98,86.641,78.98z M86.641,69.77c-1.988,0-3.605,1.617-3.605,3.605s1.617,3.605,3.605,3.605s3.605-1.617,3.605-3.605
			S88.629,69.77,86.641,69.77z"/>
	</g>
	<g>
		<rect x="67.965" y="9" width="14" height="2"/>
	</g>
	<g>
		<path style="fill:#E2C120;" d="M80.119,110.044c-0.108-0.244-0.326-0.517-0.692-0.828c-4.273-3.624-4.462-9.216-4.462-9.216
			l-5.127,10.008c-0.365,0.509-0.658,1.072-0.86,1.678v0.002c-0.21,0.628-0.328,1.299-0.328,1.997c0,3.487,2.828,6.315,6.315,6.315
			c3.487,0,6.315-2.828,6.315-6.315C81.281,112.327,80.848,111.073,80.119,110.044z"/>
	</g>
	<g>
		<rect x="46" y="60" width="2" height="70"/>
	</g>
	<g>
		<rect x="102" y="60" width="2" height="70"/>
	</g>
	<g>
		<rect x="47" y="69" width="8" height="2"/>
	</g>
	<g>
		<rect x="95" y="69" width="8" height="2"/>
	</g>
	<g>
		<circle style="fill:#E4E5E7;" cx="37.5" cy="112.5" r="2.5"/>
	</g>
	<g>
		<circle style="fill:#E4E5E7;" cx="117.5" cy="60" r="2.5"/>
	</g>
	<g>
		<circle style="fill:#E4E5E7;" cx="42.5" cy="42.929" r="2.5"/>
	</g>
	<g>
		<circle style="fill:#E4E5E7;" cx="45" cy="5" r="5"/>
	</g>
	<g>
		<circle style="fill:#E4E5E7;" cx="35" cy="85" r="5"/>
	</g>
	<g>
		<circle style="fill:#E4E5E7;" cx="105" cy="35" r="5"/>
	</g>
</g>
</svg>
