<?xml version="1.0" encoding="iso-8859-1"?>
<!-- Generator: Adobe Illustrator 17.0.0, SVG Export Plug-In . SVG Version: 6.00 Build 0)  -->
<!DOCTYPE svg PUBLIC "-//W3C//DTD SVG 1.1//EN" "http://www.w3.org/Graphics/SVG/1.1/DTD/svg11.dtd">
<svg version="1.1" id="genetic_engineering" xmlns="http://www.w3.org/2000/svg" xmlns:xlink="http://www.w3.org/1999/xlink"
	 x="0px" y="0px" width="122.027px" height="141px" viewBox="0 0 122.027 141" style="enable-background:new 0 0 122.027 141;"
	 xml:space="preserve">
<g id="genetic_engineering_1_">
	<g>
		<polygon style="fill:#C4C4C4;" points="32,140 30,140 30,119.279 90,99.279 90,40.721 30,20.721 30,0 32,0 32,19.279 92,39.279 
			92,100.721 32,120.721 		"/>
	</g>
	<g>
		<polygon points="92,140 90,140 90,120.721 30,100.721 30,39.279 90,19.279 90,0 92,0 92,20.721 32,40.721 32,99.279 92,119.279 		
			"/>
	</g>
	<g>
		<rect x="36" y="4" style="fill:#E2C120;" width="50" height="2"/>
	</g>
	<g>
		<rect x="36" y="9" style="fill:#E2C120;" width="50" height="2"/>
	</g>
	<g>
		<rect x="36" y="14" style="fill:#E2C120;" width="50" height="2"/>
	</g>
	<g>
		<rect x="46" y="19" style="fill:#E2C120;" width="30" height="2"/>
	</g>
	<g>
		<rect x="56" y="24" style="fill:#E2C120;" width="10" height="2"/>
	</g>
	<g>
		<rect x="36" y="84" style="fill:#C4C4C4;" width="50" height="2"/>
	</g>
	<g>
		<rect x="36" y="89" style="fill:#C4C4C4;" width="50" height="2"/>
	</g>
	<g>
		<rect x="36" y="94" style="fill:#C4C4C4;" width="50" height="2"/>
	</g>
	<g>
		<rect x="46" y="99" style="fill:#C4C4C4;" width="30" height="2"/>
	</g>
	<g>
		<rect x="56" y="104" style="fill:#C4C4C4;" width="10" height="2"/>
	</g>
	<g>
		<rect x="36" y="139" style="fill:#E2C120;" width="50" height="2"/>
	</g>
	<g>
		<rect x="36" y="134" style="fill:#E2C120;" width="50" height="2"/>
	</g>
	<g>
		<rect x="36" y="129" style="fill:#E2C120;" width="50" height="2"/>
	</g>
	<g>
		<rect x="46" y="124" style="fill:#E2C120;" width="30" height="2"/>
	</g>
	<g>
		<rect x="56" y="119" style="fill:#E2C120;" width="10" height="2"/>
	</g>
	<g>
		<rect x="36" y="54.053" style="fill:#C4C4C4;" width="50" height="2"/>
	</g>
	<g>
		<rect x="36" y="49.053" style="fill:#C4C4C4;" width="50" height="2"/>
	</g>
	<g>
		<rect x="36" y="44.053" style="fill:#C4C4C4;" width="50" height="2"/>
	</g>
	<g>
		<rect x="36" y="69" style="fill:#E2C120;" width="50" height="2"/>
	</g>
	<g>
		<rect x="36" y="64" style="fill:#E2C120;" width="50" height="2"/>
	</g>
	<g>
		<rect x="36" y="59" width="75" height="2"/>
	</g>
	<g>
		<rect x="36" y="79" style="fill:#E2C120;" width="50" height="2"/>
	</g>
	<g>
		<rect x="10.973" y="74" width="75.027" height="2"/>
	</g>
	<g>
		<rect x="46" y="39.053" style="fill:#C4C4C4;" width="30" height="2"/>
	</g>
	<g>
		<rect x="56" y="34.053" style="fill:#C4C4C4;" width="10" height="2"/>
	</g>
	<g>
		<path d="M115.974,65.974c-3.294,0-5.974-2.68-5.974-5.974s2.68-5.974,5.974-5.974s5.974,2.68,5.974,5.974
			S119.268,65.974,115.974,65.974z M115.974,56.026c-2.191,0-3.974,1.783-3.974,3.974s1.782,3.974,3.974,3.974
			s3.974-1.783,3.974-3.974S118.165,56.026,115.974,56.026z"/>
	</g>
	<g>
		<path d="M6,81c-3.294,0-5.974-2.68-5.974-5.974S2.706,69.053,6,69.053s5.974,2.68,5.974,5.974S9.294,81,6,81z M6,71.053
			c-2.191,0-3.974,1.783-3.974,3.974S3.809,79,6,79s3.974-1.783,3.974-3.974S8.191,71.053,6,71.053z"/>
	</g>
	<g>
		<path style="fill:#C4C4C4;" d="M2,30H0v-2h2V30z M2,24H0v-2h2V24z M2,18H0v-2h2V18z M2,12H0v-2h2V12z"/>
	</g>
	<g>
		<path style="fill:#C4C4C4;" d="M22,32h-2v-2h2V32z M22,26h-2v-2h2V26z M22,20h-2v-2h2V20z M22,14h-2v-2h2V14z M22,8h-2V6h2V8z
			 M22,2h-2V0h2V2z"/>
	</g>
	<g>
		<path style="fill:#C4C4C4;" d="M11.973,58h-2v-2h2V58z M11.973,52h-2v-2h2V52z M11.973,46h-2v-2h2V46z M11.973,40h-2v-2h2V40z
			 M11.973,34h-2v-2h2V34z M11.973,28h-2v-2h2V28z M11.973,22h-2v-2h2V22z"/>
	</g>
	<g>
		<path style="fill:#C4C4C4;" d="M22,115h-2v-2h2V115z M22,109h-2v-2h2V109z M22,103h-2v-2h2V103z M22,97h-2v-2h2V97z"/>
	</g>
	<g>
		<path style="fill:#C4C4C4;" d="M2,125.053H0v-2h2V125.053z M2,119.053H0v-2h2V119.053z M2,113.053H0v-2h2V113.053z M2,107.053H0
			v-2h2V107.053z M2,101.053H0v-2h2V101.053z M2,95.053H0v-2h2V95.053z"/>
	</g>
	<g>
		<path style="fill:#C4C4C4;" d="M12.027,140h-2v-2h2V140z M12.027,134h-2v-2h2V134z M12.027,128h-2v-2h2V128z M12.027,122h-2v-2h2
			V122z M12.027,116h-2v-2h2V116z M12.027,110h-2v-2h2V110z M12.027,104h-2v-2h2V104z"/>
	</g>
	<g>
		<path style="fill:#C4C4C4;" d="M122.027,111h-2v-2h2V111z M122.027,105h-2v-2h2V105z M122.027,99h-2v-2h2V99z M122.027,93h-2v-2h2
			V93z M122.027,87h-2v-2h2V87z M122.027,81h-2v-1h2V81z"/>
	</g>
	<g>
		<path style="fill:#C4C4C4;" d="M102.027,120h-2v-2h2V120z M102.027,114h-2v-2h2V114z M102.027,108h-2v-2h2V108z M102.027,102h-2
			v-2h2V102z M102.027,96h-2v-2h2V96z M102.027,90h-2v-2h2V90z M102.027,84h-2v-2h2V84z M102.027,78h-2v-2h2V78z M102.027,72h-2
			v-1.947h2V72z"/>
	</g>
	<g>
		<path style="fill:#C4C4C4;" d="M112.055,140h-2v-2h2V140z M112.055,134h-2v-2h2V134z M112.055,128h-2v-2h2V128z M112.055,122h-2
			v-2h2V122z M112.055,116h-2v-2h2V116z M112.055,110h-2v-2h2V110z M112.055,104h-2v-2h2V104z"/>
	</g>
	<g>
		<path style="fill:#C4C4C4;" d="M122,25h-2v-2h2V25z M122,19h-2v-2h2V19z M122,13h-2v-2h2V13z M122,7h-2V5h2V7z"/>
	</g>
	<g>
		<path style="fill:#C4C4C4;" d="M102,32h-2v-2h2V32z M102,26h-2v-2h2V26z M102,20h-2v-2h2V20z M102,14h-2v-2h2V14z M102,8h-2V6h2V8
			z M102,2h-2V0h2V2z"/>
	</g>
	<g>
		<path style="fill:#C4C4C4;" d="M112.027,48h-2v-2h2V48z M112.027,42h-2v-2h2V42z M112.027,36h-2v-2h2V36z M112.027,30h-2v-2h2V30z
			 M112.027,24h-2v-2h2V24z M112.027,18h-2v-2h2V18z M112.027,12h-2v-2h2V12z"/>
	</g>
	<g>
		<g>
			<rect x="110.055" y="82.929" transform="matrix(0.7071 0.7071 -0.7071 0.7071 96.1668 -52.1671)" width="2" height="14.142"/>
		</g>
		<g>
			<rect x="103.984" y="89" transform="matrix(0.7071 0.7071 -0.7071 0.7071 96.1668 -52.1671)" width="14.142" height="2"/>
		</g>
	</g>
	<g>
		<g>
			<rect x="3.901" y="9" width="14.143" height="2"/>
		</g>
		<g>
			<rect x="9.973" y="2.929" width="2" height="14.143"/>
		</g>
	</g>
	<g>
		<rect x="5.901" y="89" width="10.143" height="2"/>
	</g>
</g>
</svg>
