<?xml version="1.0" encoding="UTF-8"?>
<svg width="92px" height="50px" viewBox="0 0 92 50" version="1.1" xmlns="http://www.w3.org/2000/svg" xmlns:xlink="http://www.w3.org/1999/xlink">
    <!-- Generator: Sketch 51.3 (57544) - http://www.bohemiancoding.com/sketch -->
    <title>blockchain / crypto-gpu</title>
    <desc>Created with Sketch.</desc>
    <defs>
        <circle id="path-1" cx="26" cy="24" r="3"></circle>
        <circle id="path-2" cx="64" cy="24" r="3"></circle>
        <circle id="path-3" cx="41" cy="3" r="3"></circle>
        <circle id="path-4" cx="52" cy="44" r="3"></circle>
        <circle id="path-5" cx="88" cy="24" r="3"></circle>
    </defs>
    <g id="Symbols" stroke="none" stroke-width="1" fill="none" fill-rule="evenodd">
        <g id="9" transform="translate(-27.000000, -48.000000)">
            <g id="blockchain-/-crypto-gpu" transform="translate(27.000000, 49.000000)">
                <path d="M0.387712838,3.18135221 L2.68977921,3.18135221 C3.79434871,3.18135221 4.68977921,4.07678271 4.68977921,5.18135221 L4.68977921,47.9494635" id="Path-282" stroke="#E5E5E5" stroke-linecap="round" stroke-linejoin="round"></path>
                <path d="M4.63854619,7.73104482 L12.3435898,7.73104482 L16.5597655,3.51486909 C41.7356019,3.51486909 58.0616884,3.51486909 65.5380251,3.51486909 C73.0143618,3.51486909 78.5421697,7.22239809 82.1214487,14.6374561 L84.9699039,14.6374561 C88.2113129,21.1025268 88.0889229,27.5131833 84.6027339,33.8694256 C81.1165449,40.225668 75.19729,43.7429986 66.8449693,44.4214175 L4.63854619,44.4214175" id="Path-283" stroke="#E5E5E5" stroke-linecap="round" stroke-linejoin="round"></path>
                <polyline id="Path-284" stroke="#E5E5E5" stroke-linecap="round" stroke-linejoin="round" points="40.0003765 3.54450388 47.1205098 10.6646372 55.1372209 10.6646372"></polyline>
                <circle id="Oval-2" stroke="#E5E5E5" stroke-linecap="round" stroke-linejoin="round" cx="64" cy="24" r="16"></circle>
                <circle id="Oval-2" stroke="#E5E5E5" stroke-linecap="round" stroke-linejoin="round" cx="64" cy="24" r="5"></circle>
                <path d="M65.280629,19.2751942 C66.7415916,14.2910157 65.3007845,10.6403851 60.9582078,8.32330234" id="Path-285" stroke="#E5E5E5" stroke-linecap="round" stroke-linejoin="round"></path>
                <path d="M66.3224212,39.9518918 C67.7833838,34.9677133 66.3425767,31.3170827 62,29" id="Path-285" stroke="#E5E5E5" stroke-linecap="round" stroke-linejoin="round" transform="translate(64.437044, 34.475946) rotate(-180.000000) translate(-64.437044, -34.475946) "></path>
                <path d="M55.465742,29.5806943 C56.9267046,24.5965159 55.4858975,20.9458852 51.1433208,18.6288025" id="Path-285" stroke="#E5E5E5" stroke-linecap="round" stroke-linejoin="round" transform="translate(53.580365, 24.104748) rotate(-90.000000) translate(-53.580365, -24.104748) "></path>
                <path d="M76.1113233,28.2889021 C77.5722859,23.5322724 76.1314788,20.0483084 71.7889021,17.8370103" id="Path-285" stroke="#E5E5E5" stroke-linecap="round" stroke-linejoin="round" transform="translate(74.225946, 23.062956) rotate(-270.000000) translate(-74.225946, -23.062956) "></path>
                <path d="M58.244735,22.6905469 C59.7056975,17.7063684 58.2648905,14.0557378 53.9223138,11.7386551" id="Path-285" stroke="#E5E5E5" stroke-linecap="round" stroke-linejoin="round" transform="translate(56.359358, 17.214601) rotate(-45.000000) translate(-56.359358, -17.214601) "></path>
                <path d="M73.6020265,36.5745217 C75.062989,31.5903432 73.6221819,27.9397126 69.2796052,25.6226299" id="Path-285" stroke="#E5E5E5" stroke-linecap="round" stroke-linejoin="round" transform="translate(71.716649, 31.098576) rotate(-225.000000) translate(-71.716649, -31.098576) "></path>
                <path d="M58.5916509,36.9178091 C60.0526134,31.9336306 58.6118064,28.283 54.2692297,25.9659173" id="Path-285" stroke="#E5E5E5" stroke-linecap="round" stroke-linejoin="round" transform="translate(56.706273, 31.441863) rotate(-135.000000) translate(-56.706273, -31.441863) "></path>
                <path d="M72.4358562,21.3754134 C73.8968187,16.5959139 72.4560116,13.0951991 68.1134349,10.8732691" id="Path-285" stroke="#E5E5E5" stroke-linecap="round" stroke-linejoin="round" transform="translate(70.550479, 16.124341) rotate(-315.000000) translate(-70.550479, -16.124341) "></path>
                <circle id="Oval-2" stroke="#E5E5E5" stroke-linecap="round" stroke-linejoin="round" cx="26" cy="24" r="16"></circle>
                <circle id="Oval-2" stroke="#E5E5E5" stroke-linecap="round" stroke-linejoin="round" cx="26" cy="24" r="5"></circle>
                <path d="M27.280629,19.2751942 C28.7415916,14.2910157 27.3007845,10.6403851 22.9582078,8.32330234" id="Path-285" stroke="#E5E5E5" stroke-linecap="round" stroke-linejoin="round"></path>
                <path d="M28.3224212,39.9518918 C29.7833838,34.9677133 28.3425767,31.3170827 24,29" id="Path-285" stroke="#E5E5E5" stroke-linecap="round" stroke-linejoin="round" transform="translate(26.437044, 34.475946) rotate(-180.000000) translate(-26.437044, -34.475946) "></path>
                <path d="M17.465742,29.5806943 C18.9267046,24.5965159 17.4858975,20.9458852 13.1433208,18.6288025" id="Path-285" stroke="#E5E5E5" stroke-linecap="round" stroke-linejoin="round" transform="translate(15.580365, 24.104748) rotate(-90.000000) translate(-15.580365, -24.104748) "></path>
                <path d="M38.1113233,28.2889021 C39.5722859,23.5322724 38.1314788,20.0483084 33.7889021,17.8370103" id="Path-285" stroke="#E5E5E5" stroke-linecap="round" stroke-linejoin="round" transform="translate(36.225946, 23.062956) rotate(-270.000000) translate(-36.225946, -23.062956) "></path>
                <path d="M20.244735,22.6905469 C21.7056975,17.7063684 20.2648905,14.0557378 15.9223138,11.7386551" id="Path-285" stroke="#E5E5E5" stroke-linecap="round" stroke-linejoin="round" transform="translate(18.359358, 17.214601) rotate(-45.000000) translate(-18.359358, -17.214601) "></path>
                <path d="M35.6020265,36.5745217 C37.062989,31.5903432 35.6221819,27.9397126 31.2796052,25.6226299" id="Path-285" stroke="#E5E5E5" stroke-linecap="round" stroke-linejoin="round" transform="translate(33.716649, 31.098576) rotate(-225.000000) translate(-33.716649, -31.098576) "></path>
                <path d="M20.5916509,36.9178091 C22.0526134,31.9336306 20.6118064,28.283 16.2692297,25.9659173" id="Path-285" stroke="#E5E5E5" stroke-linecap="round" stroke-linejoin="round" transform="translate(18.706273, 31.441863) rotate(-135.000000) translate(-18.706273, -31.441863) "></path>
                <path d="M34.4358562,21.3754134 C35.8968187,16.5959139 34.4560116,13.0951991 30.1134349,10.8732691" id="Path-285" stroke="#E5E5E5" stroke-linecap="round" stroke-linejoin="round" transform="translate(32.550479, 16.124341) rotate(-315.000000) translate(-32.550479, -16.124341) "></path>
                <polyline id="Path-286" stroke="#E5E5E5" stroke-linecap="round" stroke-linejoin="round" points="4.58166349 12 1 12 1 19.0751279 4.58166349 19.0751279"></polyline>
                <polyline id="Path-286-Copy" stroke="#E5E5E5" stroke-linecap="round" stroke-linejoin="round" points="4.58166349 22 1 22 1 40 4.58166349 40"></polyline>
                <polyline id="Path-286" stroke="#E5E5E5" stroke-linecap="round" stroke-linejoin="round" transform="translate(21.537564, 46.209168) rotate(-90.000000) translate(-21.537564, -46.209168) " points="23.3283957 42.6716043 19.7467322 42.6716043 19.7467322 49.7467322 23.3283957 49.7467322"></polyline>
                <polyline id="Path-286-Copy" stroke="#E5E5E5" stroke-linecap="round" stroke-linejoin="round" transform="translate(42.000000, 46.209168) rotate(-90.000000) translate(-42.000000, -46.209168) " points="43.7908317 32.2091683 40.2091683 32.2091683 40.2091683 60.2091683 43.7908317 60.2091683"></polyline>
                <path d="M4.60304343,37.0241541 L16.5973044,37.0241541 M35.4243409,37.0241541 L44.6954675,37.0241541 L52.059052,44.3877386" id="Path-287" stroke="#E5E5E5" stroke-linecap="round" stroke-linejoin="round"></path>
                <g id="Oval-Copy-151" transform="translate(26.000000, 24.000000) rotate(-90.000000) translate(-26.000000, -24.000000) " stroke="#FFFFFF">
                    <circle stroke-width="1.5" stroke-linejoin="square" fill="#515151" fill-rule="evenodd" cx="26" cy="24" r="2.25"></circle>
                    <use stroke-width="1" xlink:href="#path-1"></use>
                </g>
                <g id="Oval-Copy-164" transform="translate(64.000000, 24.000000) rotate(-90.000000) translate(-64.000000, -24.000000) " stroke="#FFFFFF">
                    <circle stroke-width="1.5" stroke-linejoin="square" fill="#515151" fill-rule="evenodd" cx="64" cy="24" r="2.25"></circle>
                    <use stroke-width="1" xlink:href="#path-2"></use>
                </g>
                <g id="Oval-Copy-165" transform="translate(41.000000, 3.000000) rotate(-90.000000) translate(-41.000000, -3.000000) " stroke="#FFFFFF">
                    <circle stroke-width="1.5" stroke-linejoin="square" fill="#515151" fill-rule="evenodd" cx="41" cy="3" r="2.25"></circle>
                    <use stroke-width="1" xlink:href="#path-3"></use>
                </g>
                <g id="Oval-Copy-166" transform="translate(52.000000, 44.000000) rotate(-90.000000) translate(-52.000000, -44.000000) " stroke="#FFFFFF">
                    <circle stroke-width="1.5" stroke-linejoin="square" fill="#515151" fill-rule="evenodd" cx="52" cy="44" r="2.25"></circle>
                    <use stroke-width="1" xlink:href="#path-4"></use>
                </g>
                <g id="Oval-Copy-167" transform="translate(88.000000, 24.000000) rotate(-90.000000) translate(-88.000000, -24.000000) " stroke="#FFFFFF">
                    <circle stroke-width="1.5" stroke-linejoin="square" fill="#515151" fill-rule="evenodd" cx="88" cy="24" r="2.25"></circle>
                    <use stroke-width="1" xlink:href="#path-5"></use>
                </g>
            </g>
        </g>
    </g>
</svg>