<?xml version="1.0" encoding="UTF-8"?>
<svg width="46px" height="104px" viewBox="0 0 46 104" version="1.1" xmlns="http://www.w3.org/2000/svg" xmlns:xlink="http://www.w3.org/1999/xlink">
    <!-- Generator: Sketch 51.3 (57544) - http://www.bohemiancoding.com/sketch -->
    <title>science / dna-helix-1</title>
    <desc>Created with Sketch.</desc>
    <defs>
        <circle id="path-1" cx="41" cy="3" r="3"></circle>
        <circle id="path-2" cx="41" cy="99" r="3"></circle>
        <circle id="path-3" cx="3" cy="3" r="3"></circle>
        <circle id="path-4" cx="3" cy="99" r="3"></circle>
        <circle id="path-5" cx="22" cy="40" r="3"></circle>
        <circle id="path-6" cx="22" cy="61" r="3"></circle>
        <circle id="path-7" cx="14" cy="51" r="3"></circle>
    </defs>
    <g id="Symbols" stroke="none" stroke-width="1" fill="none" fill-rule="evenodd">
        <g id="5" transform="translate(-43.000000, -14.000000)">
            <g id="science-/-dna-helix-1" transform="translate(44.000000, 15.000000)">
                <path d="M40.996651,4 C40.996651,10.5290429 36.6270444,17.0942541 18.5543408,30.2286952 C0.481637243,43.3631363 -4.69057742,53.8479165 18.5543408,70.8778145 C41.7992591,87.9077125 40.996651,91.6008949 40.996651,98" id="Path-40" stroke="#E5E5E5" stroke-linecap="round" stroke-linejoin="round"></path>
                <path d="M40.996651,4 C40.996651,10.5290429 36.6270444,17.0942541 18.5543408,30.2286952 C0.481637243,43.3631363 -4.69057742,53.8479165 18.5543408,70.8778145 C41.7992591,87.9077125 40.996651,91.6008949 40.996651,98" id="Path-40-Copy" stroke="#E5E5E5" stroke-linecap="round" stroke-linejoin="round" transform="translate(22.000000, 51.000000) scale(-1, 1) translate(-22.000000, -51.000000) "></path>
                <g id="Oval-Copy-530" stroke="#FFFFFF">
                    <circle stroke-width="1.5" stroke-linejoin="square" fill="#515151" fill-rule="evenodd" cx="41" cy="3" r="2.25"></circle>
                    <use stroke-width="1" xlink:href="#path-1"></use>
                </g>
                <g id="Oval-Copy-532" stroke="#FFFFFF">
                    <circle stroke-width="1.5" stroke-linejoin="square" fill="#515151" fill-rule="evenodd" cx="41" cy="99" r="2.25"></circle>
                    <use stroke-width="1" xlink:href="#path-2"></use>
                </g>
                <g id="Oval-Copy-531" stroke="#FFFFFF">
                    <circle stroke-width="1.5" stroke-linejoin="square" fill="#515151" fill-rule="evenodd" cx="3" cy="3" r="2.25"></circle>
                    <use stroke-width="1" xlink:href="#path-3"></use>
                </g>
                <g id="Oval-Copy-533" stroke="#FFFFFF">
                    <circle stroke-width="1.5" stroke-linejoin="square" fill="#515151" fill-rule="evenodd" cx="3" cy="99" r="2.25"></circle>
                    <use stroke-width="1" xlink:href="#path-4"></use>
                </g>
                <path d="M40.8094505,51 L15,51" id="Line-7" stroke="#E5E5E5" stroke-linecap="round" stroke-linejoin="round"></path>
                <path d="M35.5244038,39.5 L22.5,39.5" id="Line-7-Copy" stroke="#E5E5E5" stroke-linecap="round" stroke-linejoin="round"></path>
                <path d="M37.2482319,61 L23,61" id="Line-7-Copy-2" stroke="#E5E5E5" stroke-linecap="round" stroke-linejoin="round"></path>
                <g id="Oval-Copy-534" stroke="#FFFFFF">
                    <circle stroke-width="1.5" stroke-linejoin="square" fill="#515151" fill-rule="evenodd" cx="22" cy="40" r="2.25"></circle>
                    <use stroke-width="1" xlink:href="#path-5"></use>
                </g>
                <g id="Oval-Copy-535" stroke="#FFFFFF">
                    <circle stroke-width="1.5" stroke-linejoin="square" fill="#515151" fill-rule="evenodd" cx="22" cy="61" r="2.25"></circle>
                    <use stroke-width="1" xlink:href="#path-6"></use>
                </g>
                <g id="Oval-Copy-536" stroke="#FFFFFF">
                    <circle stroke-width="1.5" stroke-linejoin="square" fill="#515151" fill-rule="evenodd" cx="14" cy="51" r="2.25"></circle>
                    <use stroke-width="1" xlink:href="#path-7"></use>
                </g>
            </g>
        </g>
    </g>
</svg>