<?xml version="1.0" encoding="UTF-8"?>
<svg width="69px" height="70px" viewBox="0 0 69 70" version="1.1" xmlns="http://www.w3.org/2000/svg" xmlns:xlink="http://www.w3.org/1999/xlink">
    <!-- Generator: Sketch 51.3 (57544) - http://www.bohemiancoding.com/sketch -->
    <title>real-estate / freezer-ice</title>
    <desc>Created with Sketch.</desc>
    <defs>
        <circle id="path-1" cx="46" cy="41" r="3"></circle>
        <circle id="path-2" cx="23.5" cy="41" r="3"></circle>
        <circle id="path-3" cx="34.5" cy="23" r="3"></circle>
    </defs>
    <g id="Symbols" stroke="none" stroke-width="1" fill="none" fill-rule="evenodd">
        <g id="2" transform="translate(-37.000000, -37.000000)">
            <g id="real-estate-/-freezer-ice" transform="translate(37.000000, 37.000000)">
                <path d="M43.5917578,0.622161762 L34.7763167,9.4376029" id="Path-563" stroke="#3F3F3F" stroke-linecap="round" stroke-linejoin="round"></path>
                <path d="M34.733915,0.727601194 L25.9184739,9.54304233" id="Path-563" stroke="#3F3F3F" stroke-linecap="round" stroke-linejoin="round" transform="translate(30.326194, 5.135322) scale(-1, 1) translate(-30.326194, -5.135322) "></path>
                <path d="M34.7101941,22.5878197 L34.7101941,8.88351856" id="Path-562" stroke="#3F3F3F" stroke-linecap="round" stroke-linejoin="round"></path>
                <path d="M67.0623176,19.6409572 L58.2468765,28.4563983" id="Path-563" stroke="#3F3F3F" stroke-linecap="round" stroke-linejoin="round" transform="translate(62.654597, 24.048678) rotate(60.000000) translate(-62.654597, -24.048678) "></path>
                <path d="M56.5210247,22.4513389 L59.7477001,10.4092223" id="Path-563" stroke="#3F3F3F" stroke-linecap="round" stroke-linejoin="round"></path>
                <path d="M51.1461921,32.3792599 L51.1461921,18.6749587" id="Path-562" stroke="#3F3F3F" stroke-linecap="round" stroke-linejoin="round" transform="translate(51.146192, 25.527109) rotate(60.000000) translate(-51.146192, -25.527109) "></path>
                <path d="M10.6717078,19.6409572 L1.85626668,28.4563983" id="Path-563" stroke="#3F3F3F" stroke-linecap="round" stroke-linejoin="round" transform="translate(6.263987, 24.048678) scale(-1, 1) rotate(60.000000) translate(-6.263987, -24.048678) "></path>
                <path d="M12.3975596,22.4513389 L9.17088416,10.4092223" id="Path-563" stroke="#3F3F3F" stroke-linecap="round" stroke-linejoin="round"></path>
                <path d="M17.7723922,32.3792599 L17.7723922,18.6749587" id="Path-562" stroke="#3F3F3F" stroke-linecap="round" stroke-linejoin="round" transform="translate(17.772392, 25.527109) scale(-1, 1) rotate(60.000000) translate(-17.772392, -25.527109) "></path>
                <path d="M43.5917578,60.5623971 L34.7763167,69.3778382" id="Path-563" stroke="#3F3F3F" stroke-linecap="round" stroke-linejoin="round" transform="translate(39.184037, 64.970118) scale(1, -1) translate(-39.184037, -64.970118) "></path>
                <path d="M34.733915,60.4569577 L25.9184739,69.2723988" id="Path-563" stroke="#3F3F3F" stroke-linecap="round" stroke-linejoin="round" transform="translate(30.326194, 64.864678) scale(-1, -1) translate(-30.326194, -64.864678) "></path>
                <path d="M34.7101941,61.1164814 L34.7101941,47.4121803" id="Path-562" stroke="#3F3F3F" stroke-linecap="round" stroke-linejoin="round" transform="translate(34.710194, 54.264331) scale(1, -1) translate(-34.710194, -54.264331) "></path>
                <path d="M67.0623176,41.5436017 L58.2468765,50.3590428" id="Path-563" stroke="#3F3F3F" stroke-linecap="round" stroke-linejoin="round" transform="translate(62.654597, 45.951322) scale(1, -1) rotate(60.000000) translate(-62.654597, -45.951322) "></path>
                <path d="M56.5210247,47.5486611 L59.7477001,59.5907777" id="Path-563" stroke="#3F3F3F" stroke-linecap="round" stroke-linejoin="round"></path>
                <path d="M51.1461921,51.3250413 L51.1461921,37.6207401" id="Path-562" stroke="#3F3F3F" stroke-linecap="round" stroke-linejoin="round" transform="translate(51.146192, 44.472891) scale(1, -1) rotate(60.000000) translate(-51.146192, -44.472891) "></path>
                <path d="M10.6717078,41.5436017 L1.85626668,50.3590428" id="Path-563" stroke="#3F3F3F" stroke-linecap="round" stroke-linejoin="round" transform="translate(6.263987, 45.951322) scale(-1, -1) rotate(60.000000) translate(-6.263987, -45.951322) "></path>
                <path d="M12.3975596,47.5486611 L9.17088416,59.5907777" id="Path-563" stroke="#3F3F3F" stroke-linecap="round" stroke-linejoin="round"></path>
                <path d="M17.7723922,51.3250413 L17.7723922,37.6207401" id="Path-562" stroke="#3F3F3F" stroke-linecap="round" stroke-linejoin="round" transform="translate(17.772392, 44.472891) scale(-1, -1) rotate(60.000000) translate(-17.772392, -44.472891) "></path>
                <polygon id="Polygon" stroke="#3F3F3F" stroke-linecap="round" stroke-linejoin="round" points="34.5262794 22.5 45.351597 28.75 45.351597 41.25 34.5262794 47.5 23.7009619 41.25 23.7009619 28.75"></polygon>
                <g id="Oval-Copy-498" transform="translate(46.000000, 41.000000) rotate(-90.000000) translate(-46.000000, -41.000000) " stroke="#151515">
                    <circle stroke-width="1.5" stroke-linejoin="square" fill="#C2C2C2" fill-rule="evenodd" cx="46" cy="41" r="2.25"></circle>
                    <use stroke-width="1" xlink:href="#path-1"></use>
                </g>
                <g id="Oval-Copy-500" transform="translate(23.500000, 41.000000) rotate(-90.000000) translate(-23.500000, -41.000000) " stroke="#151515">
                    <circle stroke-width="1.5" stroke-linejoin="square" fill="#C2C2C2" fill-rule="evenodd" cx="23.5" cy="41" r="2.25"></circle>
                    <use stroke-width="1" xlink:href="#path-2"></use>
                </g>
                <g id="Oval-Copy-499" transform="translate(34.500000, 23.000000) rotate(-90.000000) translate(-34.500000, -23.000000) " stroke="#151515">
                    <circle stroke-width="1.5" stroke-linejoin="square" fill="#C2C2C2" fill-rule="evenodd" cx="34.5" cy="23" r="2.25"></circle>
                    <use stroke-width="1" xlink:href="#path-3"></use>
                </g>
            </g>
        </g>
    </g>
</svg>