<?xml version="1.0" encoding="UTF-8" standalone="no"?>
<!DOCTYPE svg PUBLIC "-//W3C//DTD SVG 20010904//EN"
              "http://www.w3.org/TR/2001/REC-SVG-20010904/DTD/svg10.dtd">

<svg xmlns="http://www.w3.org/2000/svg"
     width="1.18333in" height="0.36in"
     viewBox="0 0 355 108">
  <path id="Path"
        fill="black" stroke="none" stroke-width="0" shape-rendering="geometricPrecision"
        d="M 84.00,68.69
           C 84.00,72.00 82.53,74.98 79.59,77.61
             75.26,80.81 70.93,84.00 66.61,87.19
             66.61,87.19 54.48,96.11 54.48,96.11
             53.55,96.86 52.28,97.70 50.69,98.62
             49.30,98.88 48.30,98.79 47.69,98.38
             47.39,98.16 46.62,97.49 45.36,96.36
             44.87,95.90 42.58,93.70 38.50,89.77
             38.12,90.02 33.88,93.18 25.78,99.25
             23.94,100.59 22.28,100.76 20.81,99.75
             20.52,99.54 19.74,98.88 18.48,97.75
             17.94,97.28 15.57,95.08 11.38,91.14
             11.38,91.14 6.75,93.97 6.75,93.97
             5.75,94.69 5.08,94.77 4.75,94.22
             4.29,93.38 4.41,92.61 5.12,91.89
             5.12,91.89 6.75,90.27 6.75,90.27
             7.16,89.85 7.48,89.09 7.69,88.00
             7.89,86.74 8.00,85.06 8.00,82.95
             8.00,80.86 8.00,78.03 8.00,74.47
             8.00,71.07 8.00,66.65 8.00,61.19
             8.00,58.76 8.00,55.01 8.00,49.92
             8.00,49.92 8.00,40.12 8.00,40.12
             8.00,39.66 8.00,37.18 8.00,32.69
             8.00,28.92 8.00,26.63 8.00,25.83
             7.46,25.50 6.35,24.43 4.67,22.62
             3.30,21.20 2.57,20.48 2.45,20.48
             2.30,20.48 2.16,20.55 2.05,20.69
             2.05,20.69 1.41,21.19 1.41,21.19
             0.47,22.02 0.00,21.75 0.00,20.36
             0.00,19.36 0.72,18.19 2.16,16.84
             3.30,15.89 4.47,14.92 5.67,13.95
             7.60,12.28 9.18,10.98 10.42,10.06
             11.16,9.51 11.91,9.62 12.69,10.38
             13.35,11.17 14.44,12.32 15.95,13.83
             18.05,15.67 19.66,17.10 20.77,18.11
             21.59,18.90 22.00,20.01 22.00,21.44
             22.00,24.12 22.00,26.29 22.00,27.97
             22.00,29.40 22.00,32.01 22.00,35.81
             22.00,39.61 22.00,42.11 22.00,43.33
             22.00,53.90 22.00,58.54 22.00,57.23
             22.00,61.18 22.00,65.17 22.00,69.19
             22.00,72.00 22.00,75.84 22.00,80.70
             22.96,81.80 24.11,83.12 25.45,84.67
             27.80,87.39 29.68,89.40 31.11,90.70
             31.11,90.70 34.14,88.00 34.14,88.00
             34.84,87.38 35.12,86.62 35.00,85.73
             35.00,85.15 35.00,83.77 35.00,81.59
             35.00,79.45 35.00,76.62 35.00,73.09
             35.00,68.64 35.00,63.16 35.00,56.67
             35.00,53.73 35.00,50.18 35.00,46.03
             35.00,43.25 35.00,39.12 35.00,33.62
             35.00,26.84 35.00,21.89 35.00,18.78
             35.00,17.65 34.53,16.80 33.59,16.25
             33.59,16.25 31.77,15.25 31.77,15.25
             30.87,14.74 30.42,14.36 30.42,14.11
             30.42,13.36 30.74,12.95 31.38,12.86
             33.49,12.61 36.52,12.19 40.45,11.59
             44.93,10.93 48.04,10.32 49.78,9.78
             51.30,9.31 52.06,9.59 52.06,10.59
             52.06,10.93 51.91,11.30 51.61,11.72
             49.87,13.91 49.00,18.06 49.00,24.19
             49.00,25.95 49.00,29.05 49.00,33.50
             49.00,37.95 49.00,40.76 49.00,41.92
             49.00,43.48 49.00,46.48 49.00,50.91
             49.00,55.34 49.00,57.61 49.00,57.73
             49.00,58.83 49.00,60.51 49.00,62.77
             49.00,65.23 49.00,66.91 49.00,67.80
             49.00,70.61 49.18,74.45 49.53,79.31
             50.43,80.40 51.50,81.72 52.75,83.28
             53.22,83.92 54.38,85.22 56.25,87.19
             56.76,87.73 57.43,88.00 58.25,88.00
             59.57,88.00 60.91,87.45 62.28,86.36
             62.28,86.36 65.50,83.77 65.50,83.77
             69.16,80.83 71.00,76.78 71.00,71.61
             71.00,67.11 68.95,60.67 64.84,52.30
             59.61,41.62 57.00,32.46 57.00,24.81
             57.00,18.51 58.65,13.23 61.95,8.97
             65.05,4.94 68.32,2.92 71.75,2.92
             76.58,2.92 79.00,4.98 79.00,9.11
             79.00,12.00 77.63,13.44 74.91,13.44
             72.30,13.44 71.00,12.21 71.00,9.75
             71.00,8.59 71.35,7.34 72.06,6.00
             71.83,6.00 71.62,6.00 71.44,6.00
             68.48,6.00 67.00,10.57 67.00,19.70
             67.00,29.08 69.74,35.80 75.23,39.88
             75.69,40.12 76.17,40.38 76.67,40.62
             77.17,40.88 77.42,41.17 77.42,41.50
             77.42,41.88 77.13,42.36 76.55,42.95
             76.17,43.58 75.32,44.48 73.98,45.66
             75.20,45.57 77.01,45.23 79.41,44.64
             78.88,45.70 78.61,46.80 78.61,47.97
             78.61,49.52 79.49,52.48 81.25,56.86
             83.08,61.34 84.00,65.28 84.00,68.69 Z
           M 103.86,23.53
           C 103.98,23.99 103.77,24.37 103.22,24.67
             103.22,24.67 96.58,28.16 96.58,28.16
             94.79,29.05 93.64,29.50 93.14,29.50
             92.14,29.50 91.43,29.28 91.02,28.84
             90.60,28.40 90.08,27.80 89.45,27.05
             89.12,26.59 88.64,25.90 88.02,24.97
             87.77,24.68 87.30,24.62 86.64,24.78
             86.64,24.78 85.08,25.16 85.08,25.16
             84.62,25.28 84.24,25.18 83.95,24.84
             83.50,24.30 83.60,23.87 84.27,23.53
             84.27,23.53 85.45,22.95 85.45,22.95
             86.66,22.41 88.39,21.60 90.64,20.52
             91.85,19.92 93.39,19.21 95.27,18.38
             96.27,17.91 97.05,18.09 97.64,18.94
             97.93,19.31 98.33,19.90 98.83,20.70
             99.20,21.25 99.70,21.93 100.33,22.77
             100.83,23.48 101.35,23.72 101.89,23.47
             101.89,23.47 102.95,22.95 102.95,22.95
             103.38,22.79 103.68,22.98 103.86,23.53 Z
           M 110.38,86.11
           C 110.38,86.11 109.81,87.00 109.81,87.00
             109.52,87.00 109.00,87.00 108.25,87.00
             108.25,87.00 97.66,81.86 97.66,81.86
             96.19,81.14 95.15,80.51 94.55,79.95
             93.52,79.00 93.00,77.73 93.00,76.16
             93.00,75.65 93.00,74.56 93.00,72.91
             93.00,71.24 93.00,70.02 93.00,69.25
             93.00,68.75 93.00,67.32 93.00,64.95
             93.00,62.75 93.00,61.03 93.00,59.81
             93.00,55.97 93.00,52.65 93.00,49.86
             93.00,48.10 93.00,44.45 93.00,38.92
             92.86,37.58 92.23,37.02 91.09,37.23
             91.09,37.23 88.25,37.86 88.25,37.86
             87.71,37.98 87.41,37.76 87.38,37.17
             87.29,36.45 87.42,36.01 87.77,35.84
             88.82,35.47 90.37,34.88 92.42,34.08
             94.05,33.41 96.21,32.51 98.92,31.38
             100.67,30.54 102.80,29.58 105.31,28.48
             105.64,28.36 106.00,28.42 106.38,28.66
             106.75,28.89 106.94,29.17 106.94,29.50
             106.89,29.71 106.81,29.88 106.69,30.00
             105.19,31.51 104.44,32.91 104.44,34.20
             104.44,35.51 104.44,37.45 104.44,40.02
             104.44,43.21 104.44,47.91 104.44,54.11
             104.44,55.41 104.44,57.48 104.44,60.31
             104.44,62.84 104.44,64.54 104.44,65.44
             104.44,69.90 104.44,72.99 104.44,74.72
             104.44,76.41 104.44,77.80 104.44,78.91
             104.44,80.09 104.48,80.78 104.58,80.98
             104.75,81.50 105.27,82.00 106.11,82.50
             106.11,82.50 109.75,84.78 109.75,84.78
             110.41,85.24 110.62,85.68 110.38,86.11 Z
           M 136.62,37.00
           C 134.50,37.00 132.35,37.00 130.19,37.00
             130.19,37.84 130.16,39.89 130.12,43.14
             130.08,48.07 129.96,53.89 129.75,60.59
             129.58,65.05 129.12,73.18 128.38,84.98
             128.25,87.35 128.19,88.74 128.19,89.16
             128.19,90.93 128.66,92.17 129.62,92.89
             129.62,92.89 133.00,95.28 133.00,95.28
             133.66,95.75 133.83,96.22 133.50,96.69
             133.50,96.69 132.94,97.50 132.94,97.50
             132.64,97.50 132.12,97.50 131.38,97.50
             131.38,97.50 121.69,91.69 121.69,91.69
             120.23,90.82 119.25,90.13 118.75,89.61
             118.12,88.92 117.75,88.15 117.62,87.30
             117.50,86.73 117.46,86.16 117.50,85.61
             117.50,85.36 117.56,83.10 117.69,78.83
             117.73,76.52 118.08,70.08 118.75,59.52
             118.83,58.21 118.91,56.09 119.00,53.16
             119.08,50.40 119.08,47.70 119.00,45.05
             118.91,43.29 118.79,40.65 118.62,37.12
             118.62,36.59 118.25,36.31 117.50,36.31
             117.50,36.31 110.19,36.31 110.19,36.31
             109.81,36.31 109.62,36.04 109.62,35.50
             109.62,35.04 109.79,34.70 110.12,34.48
             111.04,33.98 112.48,33.13 114.44,31.92
             116.52,30.50 118.91,28.52 121.59,25.98
             124.28,23.45 126.44,21.11 128.06,18.97
             128.31,18.59 128.66,18.09 129.12,17.45
             129.71,16.83 130.00,17.09 130.00,18.22
             130.00,18.47 130.00,18.78 130.00,19.16
             130.00,19.53 130.00,19.79 130.00,19.92
             130.00,19.92 130.00,31.78 130.00,31.78
             131.46,31.78 133.54,31.78 136.25,31.78
             136.33,32.94 136.46,34.68 136.62,37.00 Z
           M 155.25,23.69
           C 155.38,24.40 155.19,25.21 154.69,26.12
             154.31,26.80 153.46,27.64 152.12,28.64
             152.12,28.64 145.75,33.36 145.75,33.36
             144.79,34.07 144.19,34.20 143.94,33.73
             143.48,32.95 143.52,32.29 144.06,31.78
             144.06,31.78 145.56,30.34 145.56,30.34
             146.14,29.80 146.25,29.17 145.88,28.45
             145.88,28.45 142.12,21.23 142.12,21.23
             141.33,19.68 141.77,18.34 143.44,17.20
             143.44,17.20 151.00,12.05 151.00,12.05
             151.62,11.63 152.21,11.71 152.75,12.30
             153.04,12.64 152.85,13.12 152.19,13.75
             152.19,13.75 151.06,14.75 151.06,14.75
             151.98,16.68 153.06,18.92 154.31,21.48
             154.56,21.98 154.88,22.72 155.25,23.69 Z
           M 186.00,30.91
           C 186.00,31.72 185.63,32.60 184.89,33.55
             181.80,37.37 179.28,40.20 177.31,42.05
             176.70,42.66 175.77,43.57 174.55,44.77
             174.00,45.26 173.43,45.50 172.81,45.50
             172.49,45.50 171.81,45.09 170.78,44.25
             168.48,42.28 165.71,39.98 162.47,37.33
             160.82,38.05 160.00,39.29 160.00,41.05
             160.00,41.34 160.00,43.54 160.00,47.64
             160.00,49.20 160.42,50.44 161.27,51.38
             161.69,51.87 162.77,52.69 164.50,53.84
             165.13,54.28 165.70,54.50 166.20,54.50
             166.96,54.50 168.57,53.41 171.03,51.23
             172.33,50.08 173.60,49.50 174.83,49.50
             175.80,49.50 176.91,49.90 178.19,50.69
             178.74,51.02 179.96,51.95 181.86,53.47
             182.62,54.02 183.00,54.84 183.00,55.92
             183.00,56.78 183.00,58.78 183.00,61.92
             183.00,64.41 183.00,66.41 183.00,67.91
             183.00,68.84 182.77,69.55 182.31,70.06
             178.25,74.77 174.21,79.30 170.20,83.66
             169.57,84.34 169.06,84.67 168.69,84.67
             168.39,84.67 167.75,84.34 166.75,83.66
             164.61,82.19 162.50,80.75 160.41,79.33
             157.44,77.45 155.22,76.50 153.75,76.50
             150.95,76.50 149.02,77.44 147.98,79.31
             149.33,79.44 150.00,80.24 150.00,81.72
             150.00,83.24 149.07,84.00 147.20,84.00
             146.18,84.00 145.39,83.71 144.83,83.14
             144.27,82.56 144.00,81.77 144.00,80.77
             144.00,78.98 145.38,76.70 148.16,73.92
             150.38,71.67 152.02,70.20 153.06,69.50
             154.91,68.17 156.89,67.50 158.98,67.50
             160.29,67.50 161.46,67.79 162.52,68.38
             165.58,70.12 168.22,71.85 170.45,73.58
             171.48,72.17 172.00,70.74 172.00,69.28
             172.00,66.34 172.00,64.63 172.00,64.14
             172.00,61.70 171.94,60.25 171.81,59.78
             171.44,58.26 170.49,57.50 168.97,57.50
             167.85,57.50 166.34,58.42 164.42,60.25
             162.50,62.09 160.99,63.00 159.88,63.00
             159.27,63.00 158.55,62.64 157.73,61.92
             154.22,59.14 152.32,57.56 152.02,57.19
             150.67,55.61 150.00,53.34 150.00,50.38
             150.00,49.96 150.00,48.50 150.00,46.00
             150.00,43.66 150.10,42.23 150.31,41.72
             150.52,41.20 150.93,40.62 151.55,39.97
             152.16,39.32 154.05,37.79 157.20,35.38
             160.52,32.82 162.90,31.09 164.33,30.19
             165.13,29.73 166.05,29.50 167.11,29.50
             167.75,29.50 168.66,29.91 169.83,30.73
             171.99,32.43 174.46,34.32 177.23,36.39
             179.95,34.08 181.31,32.45 181.31,31.48
             181.31,31.37 181.26,31.20 181.16,30.98
             181.05,30.76 181.00,30.59 181.00,30.47
             181.00,29.16 181.82,28.50 183.47,28.50
             185.16,28.50 186.00,29.30 186.00,30.91 Z
           M 276.00,25.70
           C 276.00,29.56 274.50,32.74 271.52,35.25
             268.52,37.75 263.98,39.00 257.88,39.00
             249.09,39.00 242.63,36.40 238.50,31.20
             238.50,31.20 238.50,35.73 238.50,35.73
             238.50,38.41 238.50,42.31 238.50,47.44
             238.50,51.62 238.50,55.61 238.50,59.38
             240.59,57.80 244.02,56.30 248.78,54.86
             251.60,54.01 254.08,53.58 256.22,53.58
             256.84,53.58 257.47,53.80 258.09,54.25
             260.27,56.25 262.82,58.53 265.75,61.08
             266.00,61.33 266.12,61.54 266.12,61.70
             266.12,62.29 265.69,62.58 264.81,62.58
             262.47,62.37 259.43,62.62 255.70,63.33
             251.64,64.06 247.12,65.67 242.14,68.17
             241.35,68.55 240.74,68.48 240.33,67.97
             239.73,67.47 239.04,66.66 238.25,65.53
             238.25,66.74 238.25,68.10 238.25,69.61
             238.25,70.83 238.25,71.75 238.25,72.38
             238.25,75.23 238.25,79.67 238.25,85.70
             240.89,84.28 244.63,83.56 249.47,83.56
             258.58,83.56 266.55,85.90 273.36,90.58
             274.73,91.52 275.42,92.24 275.42,92.73
             275.42,93.04 275.27,93.41 274.98,93.88
             274.44,94.77 273.36,96.19 271.73,98.14
             270.90,99.18 269.55,100.80 267.67,102.98
             270.18,102.27 272.31,102.02 274.06,102.23
             274.89,102.36 275.19,102.73 274.94,103.36
             274.06,105.20 273.35,106.57 272.81,107.45
             272.52,107.87 271.64,107.95 270.19,107.70
             264.98,106.86 261.00,105.69 258.25,104.20
             257.21,103.65 257.10,102.96 257.94,102.14
             259.69,100.63 261.98,98.62 264.81,96.12
             265.44,95.53 265.77,95.17 265.81,95.05
             265.81,94.85 265.48,94.56 264.81,94.19
             263.48,93.39 261.46,93.00 258.75,93.00
             253.04,93.00 246.94,94.78 240.44,98.34
             237.64,99.84 234.54,102.10 231.12,105.12
             230.21,105.91 229.21,105.89 228.12,105.06
             226.50,103.63 223.60,101.22 219.44,97.83
             218.61,97.24 218.38,96.72 218.75,96.27
             219.21,95.67 219.71,95.63 220.25,96.14
             220.25,96.14 220.81,96.58 220.81,96.58
             221.27,96.99 221.91,96.68 222.75,95.64
             223.46,94.75 224.58,93.48 226.12,91.81
             228.16,89.95 230.12,88.79 232.00,88.34
             230.33,88.01 228.94,87.28 227.81,86.14
             227.27,85.60 227.00,84.41 227.00,82.56
             227.00,79.88 227.00,76.52 227.00,72.50
             227.00,64.79 227.00,59.22 227.00,55.78
             227.00,52.64 227.00,47.95 227.00,41.70
             227.00,40.36 226.94,39.49 226.81,39.09
             226.69,38.70 226.62,37.87 226.62,36.61
             226.62,35.73 226.24,35.38 225.48,35.55
             225.48,35.55 221.06,36.48 221.06,36.48
             220.39,36.61 220.06,36.27 220.06,35.47
             220.06,35.12 220.33,34.76 220.88,34.38
             222.38,33.32 225.21,31.11 229.38,27.72
             232.97,24.74 235.39,22.58 236.64,21.23
             238.05,19.70 239.79,17.56 241.83,14.81
             241.83,14.81 244.02,16.14 244.02,16.14
             243.72,17.61 243.27,18.82 242.64,19.78
             244.22,18.73 245.47,18.31 246.39,18.53
             247.27,18.70 249.20,20.24 252.16,23.16
             256.25,27.18 260.48,29.19 264.86,29.19
             268.41,29.19 270.19,28.12 270.19,26.00
             268.06,26.00 267.00,24.85 267.00,22.55
             267.00,20.25 268.23,19.09 270.70,19.09
             274.23,19.09 276.00,21.30 276.00,25.70 Z
           M 314.38,101.08
           C 314.38,101.08 313.50,102.89 313.50,102.89
             313.29,103.32 312.75,103.36 311.88,103.02
             311.88,103.02 302.89,99.69 302.89,99.69
             301.73,99.27 300.71,98.64 299.83,97.80
             298.94,96.96 298.41,95.73 298.25,94.09
             298.08,92.71 298.00,90.45 298.00,87.31
             298.00,85.93 298.00,84.06 298.00,81.72
             298.00,79.07 298.00,77.25 298.00,76.25
             298.00,71.97 298.00,69.39 298.00,68.52
             298.00,62.65 298.00,58.38 298.00,55.69
             297.83,54.14 297.61,51.90 297.33,48.97
             297.33,47.75 296.79,46.98 295.72,46.64
             295.21,46.48 294.26,46.73 292.88,47.39
             291.38,48.15 290.23,48.82 289.44,49.41
             289.44,49.41 289.44,58.20 289.44,58.20
             289.44,66.30 289.44,71.58 289.44,74.05
             289.44,79.20 289.09,83.08 288.41,85.67
             288.41,85.67 287.19,90.45 287.19,90.45
             286.82,91.71 286.23,92.38 285.42,92.47
             284.69,92.59 283.86,92.25 282.92,91.45
             282.92,91.45 274.38,84.42 274.38,84.42
             273.91,84.04 273.66,83.76 273.62,83.59
             273.62,83.43 273.98,83.30 274.69,83.22
             274.69,83.22 276.38,82.97 276.38,82.97
             277.46,82.76 278.00,82.07 278.00,80.89
             278.00,80.89 278.00,59.78 278.00,59.78
             278.00,56.59 278.00,52.89 278.00,48.66
             278.00,47.77 277.86,47.18 277.58,46.89
             277.25,46.68 276.75,46.68 276.06,46.89
             276.06,46.89 272.14,48.28 272.14,48.28
             271.38,48.53 271.00,48.38 271.00,47.83
             271.00,47.33 271.29,46.87 271.86,46.45
             271.86,46.45 283.77,38.28 283.77,38.28
             285.24,37.23 286.12,36.70 286.41,36.70
             286.86,36.70 287.34,36.85 287.83,37.14
             288.08,37.32 288.24,37.74 288.31,38.41
             288.31,38.41 288.88,42.23 288.88,42.23
             290.33,41.45 292.73,40.36 296.06,38.97
             296.94,38.59 297.82,38.65 298.72,39.12
             299.61,39.61 300.75,40.41 302.12,41.55
             304.25,43.35 305.79,44.76 306.75,45.77
             307.41,46.43 307.85,47.36 308.06,48.53
             308.44,50.72 308.75,53.17 309.00,55.89
             309.29,59.08 309.44,61.55 309.44,63.31
             309.44,65.34 309.44,67.88 309.44,70.94
             309.44,74.07 309.44,77.58 309.44,81.45
             309.44,84.63 309.44,88.34 309.44,92.58
             309.44,93.75 309.54,95.41 309.73,97.55
             309.77,97.77 309.90,98.19 310.11,98.81
             310.35,99.60 310.91,100.00 311.81,100.00
             311.81,100.00 314.06,100.00 314.06,100.00
             314.27,100.00 314.41,100.02 314.50,100.06
             314.71,100.20 314.66,100.54 314.38,101.08 Z
           M 354.88,77.31
           C 354.88,77.49 354.56,77.79 353.94,78.20
             353.94,78.20 341.75,86.30 341.75,86.30
             340.64,87.02 339.74,87.34 339.05,87.25
             338.93,87.21 338.42,86.89 337.52,86.30
             337.19,86.09 337.05,85.70 337.09,85.11
             337.09,85.11 337.30,81.72 337.30,81.72
             335.30,82.68 332.87,83.68 330.02,84.73
             329.17,85.07 328.28,84.96 327.34,84.42
             326.96,84.21 325.66,83.34 323.45,81.78
             321.40,80.31 319.82,78.98 318.72,77.80
             318.00,76.96 317.55,76.02 317.39,74.97
             317.13,73.25 317.00,70.78 317.00,67.55
             317.00,63.63 317.00,61.15 317.00,60.11
             317.00,58.17 317.00,55.73 317.00,52.78
             317.00,50.48 317.22,47.48 317.67,43.78
             317.92,42.77 318.33,41.77 318.91,40.77
             319.36,39.87 320.33,39.01 321.80,38.17
             322.30,37.92 325.03,36.90 330.00,35.09
             331.06,34.72 332.13,34.46 333.20,34.33
             334.05,34.20 335.08,34.62 336.28,35.59
             336.89,36.09 337.47,36.57 338.00,37.03
             338.00,31.62 338.00,28.79 338.00,28.53
             338.00,26.30 338.00,23.17 338.00,19.14
             337.96,18.38 337.58,18.00 336.88,18.00
             336.88,18.00 332.16,18.00 332.16,18.00
             331.78,18.00 331.59,17.75 331.59,17.23
             331.59,16.82 331.86,16.46 332.41,16.17
             333.83,15.29 335.57,14.03 337.62,12.41
             339.79,10.61 341.57,8.97 342.95,7.50
             343.90,6.53 345.48,4.71 347.69,2.03
             347.89,1.70 348.25,1.21 348.75,0.58
             349.29,-0.05 349.56,0.20 349.56,1.33
             349.56,4.31 349.54,8.79 349.50,14.78
             349.50,15.79 349.39,21.38 349.19,31.55
             349.10,36.55 348.89,44.26 348.56,54.69
             348.35,60.74 348.06,67.57 347.69,75.17
             347.60,76.39 348.23,77.00 349.56,77.00
             349.56,77.00 353.69,77.00 353.69,77.00
             354.48,77.00 354.88,77.11 354.88,77.31 Z
           M 337.00,50.08
           C 337.00,47.10 337.00,44.66 337.00,42.77
             336.96,42.30 336.74,41.80 336.36,41.28
             335.98,40.76 335.46,40.17 334.78,39.50
             334.10,38.82 333.41,38.61 332.69,38.86
             331.72,39.23 330.72,39.91 329.70,40.88
             329.15,41.34 328.81,41.90 328.69,42.56
             328.52,43.53 328.44,45.17 328.44,47.48
             328.44,49.34 328.44,51.93 328.44,55.25
             328.44,61.18 328.44,65.46 328.44,68.11
             328.44,69.63 328.44,71.82 328.44,74.67
             328.44,75.89 329.01,76.67 330.16,77.00
             330.72,77.21 331.62,77.14 332.88,76.78
             334.13,76.43 335.51,75.95 337.00,75.36
             337.00,75.36 337.00,65.97 337.00,65.97
             337.00,57.76 337.00,52.46 337.00,50.08 Z" />
</svg>
