<?xml version="1.0" encoding="UTF-8"?>
<svg width="85px" height="82px" viewBox="0 0 85 82" version="1.1" xmlns="http://www.w3.org/2000/svg" xmlns:xlink="http://www.w3.org/1999/xlink">
    <!-- Generator: Sketch 51.3 (57544) - http://www.bohemiancoding.com/sketch -->
    <title>the-human-body / nerve-cells</title>
    <desc>Created with Sketch.</desc>
    <defs>
        <circle id="path-1" cx="80" cy="77" r="3"></circle>
        <circle id="path-2" cx="63" cy="34" r="3"></circle>
        <circle id="path-3" cx="19" cy="18" r="3"></circle>
        <circle id="path-4" cx="22" cy="59" r="3"></circle>
    </defs>
    <g id="Symbols" stroke="none" stroke-width="1" fill="none" fill-rule="evenodd">
        <g id="8" transform="translate(-27.000000, -29.000000)">
            <g id="the-human-body-/-nerve-cells" transform="translate(27.000000, 30.000000)">
                <path d="M15,50.32826 C15.8026322,51.1697218 18.2690826,51.0802817 19.930769,50.1482976 C21.5924554,49.2163134 22.8433016,49.6488385 25.0396907,49.6319361 C27.2360798,49.6150338 30.100556,48.0857086 31.3942694,46.1510772 C32.6879828,44.2164458 34.4444545,43.3361542 32.6879828,40" id="Path-146-Copy" stroke="#3F3F3F" stroke-linecap="round" stroke-linejoin="round"></path>
                <path d="M34.7475859,39.242738 C34.6288128,40.9393663 34.7950952,42.5629035 35.8019258,42.1165907 C36.8087564,41.6702779 39.0244308,39.9862737 39.0879287,39" id="Path-147-Copy" stroke="#3F3F3F" stroke-linecap="round" stroke-linejoin="round"></path>
                <path d="M40.9543797,41 C39.7209665,41.2864259 35.683594,43.662802 36.0198133,44.5458345 C36.3560326,45.428867 39.7392393,43.9999349 40.9543797,42.7729172" id="Path-148-Copy" stroke="#3F3F3F" stroke-linecap="round" stroke-linejoin="round"></path>
                <path d="M42.0506031,44.2416754 C41.56627,44.442479 39.3398317,45.1197154 39.2052584,46.2138382 C39.0706851,47.307961 45.6132832,47.5725786 43.9203004,47.5618015 C42.2273175,47.5510244 39.1259776,47.3745054 36.9551704,47.5618015 C34.7843633,47.7490976 32.1581068,48.4886887 32.0950657,51.1889499 C32.0320246,53.8892111 31.3175586,56.8329572 35.0470346,57.9019153 C38.7765106,58.9708734 44.965047,58.4624331 48.3715515,58.4098988 C51.778056,58.3573645 68.2450355,58.6300859 70.151801,58.4624331 C72.0585664,58.2947803 76.5701177,57.3002838 76.4618514,54.0797049 C76.3535852,50.8591261 76.3576965,49.1716341 75.7090126,47.0871658 C75.2765566,45.6975203 75.5275029,44.3351317 76.4618514,43" id="Path-149-Copy" stroke="#3F3F3F" stroke-linecap="round" stroke-linejoin="round"></path>
                <path d="M78.1713107,43.2428966 C77.7475721,43.7318258 76.6465227,44.1178378 77.2719089,46.4316296 C77.688833,47.9741574 79.3050611,46.9926396 82.120593,43.4870762" id="Path-150-Copy" stroke="#3F3F3F" stroke-linecap="round" stroke-linejoin="round"></path>
                <path d="M82.8805403,44.9587925 C82.268096,45.6425506 81.1537839,46.4045669 80.5106239,47.8970827 C80.0818506,48.8920932 81.2124928,49.189927 83.9025504,48.7905841" id="Path-151-Copy" stroke="#3F3F3F" stroke-linecap="round" stroke-linejoin="round"></path>
                <path d="M82.8767202,50.4542976 C81.9891701,50.5453763 80.0070728,49.7774839 79.6635912,51.0101182 C79.3201096,52.2427525 80.2533326,54.7380054 78.5639692,55.9556825 C76.8746059,57.1733595 79.0303137,57.4321727 84.3630928,57.2919488" id="Path-152-Copy" stroke="#3F3F3F" stroke-linecap="round" stroke-linejoin="round"></path>
                <path d="M83.6980937,59.2531564 C80.9350164,59.0592469 76.7531411,58.7133614 75.3693322,59.4470659 C73.9855233,60.1807704 76.7942734,62.6826307 78.7755694,63.2902673 C80.0964334,63.6953584 81.7372748,64.2277638 83.6980937,64.8874836" id="Path-153-Copy" stroke="#3F3F3F" stroke-linecap="round" stroke-linejoin="round"></path>
                <path d="M83.1346473,67.1749556 C81.7348128,66.8349462 77.5203521,65.1650807 78.0449228,66.5261867 C78.5694935,67.8872927 82.881176,71.3151644 84.4038733,72.0136127" id="Path-154-Copy" stroke="#3F3F3F" stroke-linecap="round" stroke-linejoin="round"></path>
                <path d="M82.90964,72.8797644 C81.9051032,72.464969 79.377602,70.2363449 79.0509472,71.2715974 C78.7242924,72.3068499 80.0058047,76.3030956 81.8236398,77.4449182" id="Path-155-Copy" stroke="#3F3F3F" stroke-linecap="round" stroke-linejoin="round"></path>
                <path d="M80.6402227,78.4825377 C79.6081753,77.6855321 77.1186013,75.7942465 76.8728758,72.8853365 C76.6271502,69.9764264 76.6704193,66.4323692 74.5927027,64.5149084 C72.5149861,62.5974477 71.9439413,60.0109189 69.4741321,60.0002352 C67.004323,59.9895515 52.0863769,60.347189 42.5273849,60.1839952 C32.968393,60.0208014 29.2897209,61.524268 25.2170866,63.2422102 C21.1444523,64.9601525 21.3426353,64.2483496 18.065404,66.8655941 C15.8805832,68.6104237 12.8587818,70.3113611 9,71.9684061" id="Path-156-Copy" stroke="#3F3F3F" stroke-linecap="round" stroke-linejoin="round"></path>
                <path d="M8.3156539,70.6817004 C9.49246573,70.046019 13.7246419,68.1768671 12.323739,67.5347755 C11.3898037,67.1067144 9.75098093,67.7363534 7.40727056,69.4236923" id="Path-157-Copy" stroke="#3F3F3F" stroke-linecap="round" stroke-linejoin="round"></path>
                <path d="M6.99571901,67.7895491 C7.78204085,67.4025314 9.96285532,65.4463421 12.1418001,65.9046737 C14.320745,66.3630053 17.6500594,65.3186716 18.0600472,62.6613632 C18.4700349,60.0040548 18.3356872,55.1130475 14.5213318,53.3908318 C10.7069765,51.668616 7.40730935,51.0705948 5,54.4191399" id="Path-158-Copy" stroke="#3F3F3F" stroke-linecap="round" stroke-linejoin="round"></path>
                <path d="M5,50.238232 C7.17066494,49.6997724 8.32210292,49.5854566 7.17066494,48.3247776 C6.40303961,47.4843249 5.67948463,46.709399 5,46" id="Path-159-Copy" stroke="#3F3F3F" stroke-linecap="round" stroke-linejoin="round"></path>
                <path d="M6,43.9738136 C7.22275182,45.4917032 8.63941318,47.8098035 10.1444823,47.7334149 C11.6495515,47.6570263 9.49865141,45.396351 9.29726327,44.4441644 C9.16300452,43.8093734 8.41069252,42.6613186 7.04032729,41" id="Path-160-Copy" stroke="#3F3F3F" stroke-linecap="round" stroke-linejoin="round"></path>
                <path d="M11.0599242,40 C10.861207,41.134344 11.0666015,44.2833707 13.0775449,46.960444 C15.0884882,49.6375173 14.9461276,50.2360727 15.6405694,50.5873" id="Path-161-Copy" stroke="#3F3F3F" stroke-linecap="round" stroke-linejoin="round"></path>
                <path d="M21.0012664,55.9380996 C21.0678064,57.5712168 21.9364729,59.7922562 24.3206721,60.0635816 C26.7048713,60.3349069 29.1069969,59.2842428 29.5114023,57.1631654 C29.9158077,55.0420879 28.3379885,53.5159209 25.9200635,53.0723207 C23.5021386,52.6287204 20.9347264,54.3049823 21.0012664,55.9380996 Z" id="Path-162-Copy" stroke="#3F3F3F" stroke-linecap="round" stroke-linejoin="round"></path>
                <path d="M3,26.3235944 C3.41442539,24.8679681 4.10798853,22.5813503 6.58469396,22.4088158 C9.0613994,22.2362813 13.1144625,21.4913431 15.584318,22.5813503 C18.0541734,23.6713576 20.9919699,22.6468535 23.5157691,23.6713576 C26.0395683,24.6958617 57.0803723,34.3222613 60.3636659,36.7206198 C63.6469596,39.1189782 63.9963099,43.3749728 63.6469596,45.5412873 C63.2976093,47.7076019 62.1378176,54.0592703 63.9963099,56.0483409" id="Path-163-Copy" stroke="#3F3F3F" stroke-linecap="round" stroke-linejoin="round"></path>
                <path d="M66.6891698,54.4221638 C65.6920657,52.9288624 64.0621923,48.4472458 65.6920657,48.0456641 C66.778648,47.7779431 67.8288396,48.6874241 68.8426405,50.7741073" id="Path-164-Copy" stroke="#3F3F3F" stroke-linecap="round" stroke-linejoin="round"></path>
                <path d="M69.4189087,47.2459379 C67.856251,46.1884682 66.1240557,44.5744354 66.2195276,42.6889712 C66.3149996,40.8035069 64.6371762,39.0785897 65.0721516,37.9093792 C65.507127,36.7401687 68.3344671,34.9904202 68.8554957,36.7401687 C69.2028481,37.9066678 69.9586322,39.014799 71.1228478,40.0645625" id="Path-165-Copy" stroke="#3F3F3F" stroke-linecap="round" stroke-linejoin="round"></path>
                <path d="M73.3038875,37.0197825 C72.1115582,36.3544756 69.7431685,35.6818906 70.0227344,34.5606302 C70.2091117,33.8131233 71.3028293,33.8131233 73.3038875,34.5606302" id="Path-166-Copy" stroke="#3F3F3F" stroke-linecap="round" stroke-linejoin="round"></path>
                <path d="M75.3719921,32.3585402 C73.989147,32.3508339 71.6550073,32.8581625 72.042889,31.3751361 C72.4307706,29.8921097 73.7994875,28.7631431 75.3719921,29.0427089 C76.4203284,29.2290862 77.3610627,29.787547 78.1941947,30.7180914" id="Path-167-Copy" stroke="#3F3F3F" stroke-linecap="round" stroke-linejoin="round"></path>
                <path d="M79.0289275,27.209228 C78.2090674,27.2978499 76.036331,28.1605226 76.0007966,27.120606 C75.977107,26.4273283 76.4817955,25.3871263 77.5148621,24" id="Path-168-Copy" stroke="#3F3F3F" stroke-linecap="round" stroke-linejoin="round"></path>
                <path d="M75.5427377,24 C74.7130307,25.054901 73.652564,27.0294153 72.826282,26.980609 C72.2754273,26.9480715 72,25.9545352 72,24" id="Path-169-Copy" stroke="#3F3F3F" stroke-linecap="round" stroke-linejoin="round"></path>
                <path d="M70.3902146,24.1401941 C70.3602458,25.6202236 71.036684,30.0842872 68.8228475,31.7441293 C66.6090111,33.4039715 64.0008712,34.50511 60.9521902,33.4039715 C57.9035092,32.302833 29.1510356,24.1594598 26.6477864,22.2508767 C24.1445372,20.3422937 29.4271764,15.2690077 33.4395677,16.0888679 C37.4519589,16.908728 37.7452248,21.6562106 39.7848142,22.2508767" id="Path-170-Copy" stroke="#3F3F3F" stroke-linecap="round" stroke-linejoin="round"></path>
                <path d="M40.987609,20.4259073 C39.2168824,19.4647658 37.3429775,17.4153295 38.225344,17.0124635 C39.1077104,16.6095975 39.7327735,14.921499 44.0371462,15.0028429" id="Path-171-Copy" stroke="#3F3F3F" stroke-linecap="round" stroke-linejoin="round"></path>
                <path d="M44.0310877,13.086356 C43.3473714,13.188678 40.0221215,13.5662846 41.2825226,12.2767709 C42.1227901,11.4170951 43.0389784,10.6581714 44.0310877,10" id="Path-172-Copy" stroke="#3F3F3F" stroke-linecap="round" stroke-linejoin="round"></path>
                <path d="M42.8390616,7.98725717 C41.860367,8.76516102 40.1839357,12.4025158 39.1862957,11.9713921 C38.1886557,11.5402685 40.5498751,8.35587314 41.7541919,7" id="Path-173-Copy" stroke="#3F3F3F" stroke-linecap="round" stroke-linejoin="round"></path>
                <path d="M39.2968229,6.13204009 C38.5784285,7.34320684 37.9366685,12.5008335 33.7102146,12.9216808 C29.4837606,13.3425281 26.4085359,13.7398284 24.5080873,12.9216808 C22.6076386,12.1035331 21.7107159,10.0557484 20.0179081,9.76486768 C18.3251002,9.47398695 17.5549027,10.3293815 15.5328664,9.47398695 C13.5108301,8.6185924 12.2932415,6.03999313 11.2550374,3.01999656 C10.5629013,1.00666552 9.47788888,0 8,0" id="Path-174-Copy" stroke="#3F3F3F" stroke-linecap="round" stroke-linejoin="round"></path>
                <path d="M7.89402676,2 C8.77596509,3.13581668 11.3597019,4.82263075 10.0453569,5.74395661 C9.16912691,6.35817385 7.82067461,5.5852648 6,3.42522945" id="Path-175-Copy" stroke="#3F3F3F" stroke-linecap="round" stroke-linejoin="round"></path>
                <path d="M4.91830458,5 C7.60307896,7.21597706 7.58766644,6.748036 9.03173341,7.80464949 C10.4758004,8.86126297 12.4134959,10.902993 13.7171378,11.9313502 C15.0207796,12.9597074 15.8444929,17.2281176 13.7171378,18.2230811 C11.5897827,19.2180445 9.00947089,19.5879448 6.53747484,18.2230811 C4.06547879,16.8582173 2.82776826,15.1799657 0,15.167122" id="Path-176-Copy" stroke="#3F3F3F" stroke-linecap="round" stroke-linejoin="round"></path>
                <path d="M0,17 C1.67311406,17.6070818 4.06933192,17.5762568 4.11685383,18.6555609 C4.14853511,19.375097 2.7762505,19.734865 0,19.734865" id="Path-177-Copy" stroke="#3F3F3F" stroke-linecap="round" stroke-linejoin="round"></path>
                <path d="M1,21.6264843 C1.9658509,21.1602557 4.63392839,20.7689491 4.60224711,21.1602557 C4.57056583,21.5515623 2.23471365,23.178867 1.91832898,24.3784743" id="Path-178-Copy" stroke="#3F3F3F" stroke-linecap="round" stroke-linejoin="round"></path>
                <path d="M18.0003327,17.1046363 C17.9780615,18.9071946 19.0738613,20.7151092 21.3334022,20.6530882 C23.5929431,20.5910671 24.9805239,18.8423544 24.7468172,17.1046363 C24.5131105,15.3669183 23.4405588,13.8879973 21.3861857,14.0066831 C19.3318126,14.1253689 18.0226039,15.3020781 18.0003327,17.1046363 Z" id="Path-179-Copy" stroke="#3F3F3F" stroke-linecap="round" stroke-linejoin="round"></path>
                <g id="Oval-Copy-512" transform="translate(80.000000, 77.000000) rotate(-90.000000) translate(-80.000000, -77.000000) " stroke="#151515">
                    <circle stroke-width="1.5" stroke-linejoin="square" fill="#C2C2C2" fill-rule="evenodd" cx="80" cy="77" r="2.25"></circle>
                    <use stroke-width="1" xlink:href="#path-1"></use>
                </g>
                <g id="Oval-Copy-513" transform="translate(63.000000, 34.000000) rotate(-90.000000) translate(-63.000000, -34.000000) " stroke="#151515">
                    <circle stroke-width="1.5" stroke-linejoin="square" fill="#C2C2C2" fill-rule="evenodd" cx="63" cy="34" r="2.25"></circle>
                    <use stroke-width="1" xlink:href="#path-2"></use>
                </g>
                <g id="Oval-Copy-514" transform="translate(19.000000, 18.000000) rotate(-90.000000) translate(-19.000000, -18.000000) " stroke="#151515">
                    <circle stroke-width="1.5" stroke-linejoin="square" fill="#C2C2C2" fill-rule="evenodd" cx="19" cy="18" r="2.25"></circle>
                    <use stroke-width="1" xlink:href="#path-3"></use>
                </g>
                <g id="Oval-Copy-515" transform="translate(22.000000, 59.000000) rotate(-90.000000) translate(-22.000000, -59.000000) " stroke="#151515">
                    <circle stroke-width="1.5" stroke-linejoin="square" fill="#C2C2C2" fill-rule="evenodd" cx="22" cy="59" r="2.25"></circle>
                    <use stroke-width="1" xlink:href="#path-4"></use>
                </g>
            </g>
        </g>
    </g>
</svg>