<?xml version="1.0" encoding="UTF-8"?>
<svg width="88px" height="99px" viewBox="0 0 88 99" version="1.1" xmlns="http://www.w3.org/2000/svg" xmlns:xlink="http://www.w3.org/1999/xlink">
    <!-- Generator: Sketch 51.3 (57544) - http://www.bohemiancoding.com/sketch -->
    <title>office / nucleus-atom-4</title>
    <desc>Created with Sketch.</desc>
    <defs>
        <circle id="path-1" cx="51" cy="49" r="3"></circle>
        <circle id="path-2" cx="38" cy="16" r="3"></circle>
        <circle id="path-3" cx="62" cy="82" r="3"></circle>
        <circle id="path-4" cx="84" cy="54" r="3"></circle>
        <circle id="path-5" cx="28" cy="75" r="3"></circle>
        <circle id="path-6" cx="73" cy="21" r="3"></circle>
        <circle id="path-7" cx="16" cy="43" r="3"></circle>
    </defs>
    <g id="Symbols" stroke="none" stroke-width="1" fill="none" fill-rule="evenodd">
        <g id="8" transform="translate(-22.000000, -17.000000)">
            <g id="office-/-nucleus-atom-4" transform="translate(16.000000, 18.000000)">
                <circle id="Oval-10-Copy-3" stroke="#E5E5E5" stroke-linecap="round" stroke-linejoin="round" cx="51" cy="49" r="4"></circle>
                <ellipse id="Oval-10-Copy-4" stroke="#E5E5E5" stroke-linecap="round" stroke-linejoin="round" cx="50.5" cy="48.5" rx="16.5" ry="48.5"></ellipse>
                <ellipse id="Oval-10-Copy-5" stroke="#E5E5E5" stroke-linecap="round" stroke-linejoin="round" transform="translate(50.252232, 48.539419) rotate(-120.000000) translate(-50.252232, -48.539419) " cx="50.2522321" cy="48.5394192" rx="16.5" ry="48.5"></ellipse>
                <path d="M98.7522321,48.5394192 C98.7522321,39.4267208 77.0380424,32.0394192 50.2522321,32.0394192 C23.4664217,32.0394192 1.75223208,39.4267208 1.75223208,48.5394192 C1.75223208,57.6521175 23.4664217,65.0394192 50.2522321,65.0394192 C77.0380424,65.0394192 98.7522321,57.6521175 98.7522321,48.5394192 Z" id="Oval-10-Copy-6" stroke="#E5E5E5" stroke-linecap="round" stroke-linejoin="round" transform="translate(50.252232, 48.539419) rotate(-330.000000) translate(-50.252232, -48.539419) "></path>
                <g id="Oval-Copy-89" transform="translate(51.000000, 49.000000) rotate(-90.000000) translate(-51.000000, -49.000000) " stroke="#FFFFFF">
                    <circle stroke-width="1.5" stroke-linejoin="square" fill="#515151" fill-rule="evenodd" cx="51" cy="49" r="2.25"></circle>
                    <use stroke-width="1" xlink:href="#path-1"></use>
                </g>
                <g id="Oval-Copy-91" transform="translate(38.000000, 16.000000) rotate(-90.000000) translate(-38.000000, -16.000000) " stroke="#FFFFFF">
                    <circle stroke-width="1.5" stroke-linejoin="square" fill="#515151" fill-rule="evenodd" cx="38" cy="16" r="2.25"></circle>
                    <use stroke-width="1" xlink:href="#path-2"></use>
                </g>
                <g id="Oval-Copy-92" transform="translate(62.000000, 82.000000) rotate(-90.000000) translate(-62.000000, -82.000000) " stroke="#FFFFFF">
                    <circle stroke-width="1.5" stroke-linejoin="square" fill="#515151" fill-rule="evenodd" cx="62" cy="82" r="2.25"></circle>
                    <use stroke-width="1" xlink:href="#path-3"></use>
                </g>
                <g id="Oval-Copy-95" transform="translate(84.000000, 54.000000) rotate(-90.000000) translate(-84.000000, -54.000000) " stroke="#FFFFFF">
                    <circle stroke-width="1.5" stroke-linejoin="square" fill="#515151" fill-rule="evenodd" cx="84" cy="54" r="2.25"></circle>
                    <use stroke-width="1" xlink:href="#path-4"></use>
                </g>
                <g id="Oval-Copy-96" transform="translate(28.000000, 75.000000) rotate(-90.000000) translate(-28.000000, -75.000000) " stroke="#FFFFFF">
                    <circle stroke-width="1.5" stroke-linejoin="square" fill="#515151" fill-rule="evenodd" cx="28" cy="75" r="2.25"></circle>
                    <use stroke-width="1" xlink:href="#path-5"></use>
                </g>
                <g id="Oval-Copy-97" transform="translate(73.000000, 21.000000) rotate(-90.000000) translate(-73.000000, -21.000000) " stroke="#FFFFFF">
                    <circle stroke-width="1.5" stroke-linejoin="square" fill="#515151" fill-rule="evenodd" cx="73" cy="21" r="2.25"></circle>
                    <use stroke-width="1" xlink:href="#path-6"></use>
                </g>
                <g id="Oval-Copy-98" transform="translate(16.000000, 43.000000) rotate(-90.000000) translate(-16.000000, -43.000000) " stroke="#FFFFFF">
                    <circle stroke-width="1.5" stroke-linejoin="square" fill="#515151" fill-rule="evenodd" cx="16" cy="43" r="2.25"></circle>
                    <use stroke-width="1" xlink:href="#path-7"></use>
                </g>
            </g>
        </g>
    </g>
</svg>