<?xml version="1.0" encoding="UTF-8"?>
<svg width="67px" height="77px" viewBox="0 0 67 77" version="1.1" xmlns="http://www.w3.org/2000/svg" xmlns:xlink="http://www.w3.org/1999/xlink">
    <!-- Generator: Sketch 51.3 (57544) - http://www.bohemiancoding.com/sketch -->
    <title>technology / robotic-arm</title>
    <desc>Created with Sketch.</desc>
    <defs>
        <circle id="path-1" cx="35" cy="44" r="3"></circle>
        <circle id="path-2" cx="60" cy="5" r="3"></circle>
        <circle id="path-3" cx="3" cy="9" r="3"></circle>
        <circle id="path-4" cx="6" cy="72" r="3"></circle>
        <circle id="path-5" cx="37" cy="72" r="3"></circle>
    </defs>
    <g id="Symbols" stroke="none" stroke-width="1" fill="none" fill-rule="evenodd">
        <g id="20" transform="translate(-37.000000, -32.000000)">
            <g id="technology-/-robotic-arm" transform="translate(38.000000, 33.000000)">
                <path d="M12.1382592,61.3360448 C8.05610548,61.6796517 5.38095238,62.2541083 5.38095238,62.9047619 C5.38095238,63.9567329 12.3738382,64.8095238 21,64.8095238 C29.6261618,64.8095238 36.6190476,63.9567329 36.6190476,62.9047619 C36.6190476,62.3254439 34.4983294,61.8065309 31.151996,61.4571816" id="Oval-11" stroke="#E5E5E5" stroke-linecap="round" stroke-linejoin="round"></path>
                <path d="M5.38095238,72.047619 C5.38095238,73.09959 12.3738382,73.952381 21,73.952381 C29.6261618,73.952381 36.6190476,73.09959 36.6190476,72.047619" id="Oval-11-Copy" stroke="#E5E5E5" stroke-linecap="round" stroke-linejoin="round"></path>
                <path d="M5.38095238,62.9047619 L5.38095238,71.9572511" id="Path-73" stroke="#E5E5E5" stroke-linecap="round" stroke-linejoin="round"></path>
                <path d="M36.6190476,62.9047619 L36.6190476,71.9572511" id="Path-73-Copy" stroke="#E5E5E5" stroke-linecap="round" stroke-linejoin="round"></path>
                <path d="M29.7985828,58.2386943 C30.4551586,58.2386943 31.1681826,58.6195982 31.1681826,59.1598712 C31.1681826,59.7001441 31.1681826,61.1296109 31.1681826,61.4126974 C31.1681826,61.695784 30.8579606,62.124012 30.3535761,62.3089286 C29.8491916,62.4938453 27.606469,63.497748 21.0896171,63.497748 C14.5727652,63.497748 12.8338188,62.5050376 12.4827205,62.3089286 C12.1316222,62.1128197 12.1316222,61.7206142 12.1316222,61.4126974 C12.1316222,61.1047806 12.1316222,59.7517032 12.1316222,59.4319427 C12.1316222,59.1121821 13.0256699,58.5428335 13.7480613,58.5428335" id="Path-284" stroke="#E5E5E5" stroke-linecap="round" stroke-linejoin="round"></path>
                <polyline id="Path-288" stroke="#E5E5E5" stroke-linecap="round" stroke-linejoin="round" points="13.8593846 59.7488447 13.8593846 51.3839444 20.4496694 51.3839444"></polyline>
                <path d="M21.551973,49.7594069 C19.5992767,52.3426996 20.1537298,54.7310963 20.558379,55.6965322 C21.5128263,57.9737091 23.4782015,58.7821135 25.541353,58.850138 C27.6045044,58.9181625 28.9221278,58.252667 29.3986109,57.9372946 C29.8750939,57.6219223 32.7439547,54.3941037 34.686312,53.5796772 C36.6286693,52.7652508 40.0957413,51.2791404 41.5066667,49.088657 C42.917592,46.8981736 43.8760063,44.1476163 42.4474911,40.4358428 C41.0189759,36.7240693 36.8649921,35.1206888 34.7327265,35.1829538 C32.6004609,35.2452188 29.5256315,35.5005617 27.2736614,38.7878434 C25.0216913,42.0751251 24.8089006,44.6597461 23.8207547,46.3026087 C22.8326088,47.9454712 22.2157182,48.8813145 21.551973,49.7594069 Z" id="Path-290" stroke="#E5E5E5" stroke-linecap="round" stroke-linejoin="round"></path>
                <circle id="Oval-5" stroke="#E5E5E5" stroke-linecap="round" stroke-linejoin="round" cx="34.5" cy="44" r="6.5"></circle>
                <circle id="Oval-5" stroke="#E5E5E5" stroke-linecap="round" stroke-linejoin="round" cx="26" cy="53" r="3"></circle>
                <path d="M27.1150257,38.7320463 C25.8939874,34.3433612 23.6912033,26.5024653 20.5066732,15.2093585" id="Path-291" stroke="#E5E5E5" stroke-linecap="round" stroke-linejoin="round"></path>
                <path d="M17.6535481,10.41284 C17.6535481,12.04136 18.3438835,14.3071455 20.6726984,15.2244152 C23.0015133,16.1416848 25.0723773,14.8866459 25.9681629,14.016755 C26.8639485,13.1468641 27.2959061,11.8879837 27.1867785,10.5397524" id="Path-293" stroke="#E5E5E5" stroke-linecap="round" stroke-linejoin="round"></path>
                <path d="M24.966445,10.2280162 C24.966445,10.973458 24.966445,11.9998256 24.966445,12.5769378 C24.966445,13.15405 24.6213669,13.5811872 23.9551833,13.5811872 C23.2889996,13.5811872 21.5723387,13.5811872 21.0400748,13.5811872 C20.5078109,13.5811872 20,13.3181687 20,12.5769378 C20,12.0827838 20,11.3117167 20,10.2637364" id="Path-294" stroke="#E5E5E5" stroke-linecap="round" stroke-linejoin="round"></path>
                <circle id="Oval-25" stroke="#E5E5E5" stroke-linecap="round" stroke-linejoin="round" cx="28.5" cy="28.5" r="1.5"></circle>
                <path d="M31.6778389,1.84143059 C29.4025644,1.11097277 26.711603,0.133662516 25.7222053,0.133662516 C24.7328076,0.133662516 17.9596959,0.133662516 16.0621864,0.133662516 C14.5025224,0.133662516 14.2143077,0.927263487 14.2129713,1.95329387 C14.2087985,5.15694319 14.2129713,6.95634778 14.2129713,8.22973791 C14.2129713,9.50312803 15.0194362,10.1543789 16.0621864,10.1543789 C17.1049366,10.1543789 25.7837311,10.1341108 26.9714156,10.1341108 C27.7632052,10.1341108 29.3368665,9.71696705 31.6923995,8.88267963" id="Path-295" stroke="#E5E5E5" stroke-linecap="round" stroke-linejoin="round"></path>
                <polyline id="Path-297" stroke="#E5E5E5" stroke-linecap="round" stroke-linejoin="round" points="14.1228691 2.00877567 10.2932768 2.00877567 10.2932768 5.26646676 10.9325331 6.25447539 14.1447556 6.25447539"></polyline>
                <path d="M36.347946,3 L44.470474,3" id="Path-299" stroke="#E5E5E5" stroke-linecap="round" stroke-linejoin="round"></path>
                <path d="M36.35929,8 L44.470474,8" id="Path-299-Copy" stroke="#E5E5E5" stroke-linecap="round" stroke-linejoin="round"></path>
                <path d="M44.563871,2.39940788 C44.5899271,5.95361063 44.563871,8.01728553 44.563871,8.37930389 C44.563871,8.74132224 44.9043122,8.86100726 45.2257917,8.86100726 C45.5472713,8.86100726 46.1348964,8.86100726 46.3563122,8.86100726 C46.577728,8.86100726 46.7913518,8.60806828 46.7913518,8.38652922 C46.7913518,8.16499016 46.7913518,2.60165168 46.7913518,2.37436472 C46.7913518,2.14707776 46.5217126,1.8989227 46.2570313,1.8989227 C45.9923499,1.8989227 45.2077613,1.8989227 45.0127768,1.8989227 C44.8177922,1.8989227 44.5606527,1.96041784 44.563871,2.39940788 Z" id="Path-300" stroke="#E5E5E5" stroke-linecap="round" stroke-linejoin="round"></path>
                <path d="M46.9884131,4.96820197 C46.9884131,3.45259486 48.2157766,2.02712854 49.8949939,2.02712854 C51.5742111,2.02712854 52.3862831,2.64178759 54.3904212,2.64178759 C56.3945592,2.64178759 58.0050211,0.992693916 59.9963969,0.992693916 C61.9877726,0.992693916 64.0115715,2.57280229 64.0115715,5.03293318 C64.0115715,7.49306408 61.8606097,9.00832626 59.9963969,9.00832626 C58.132184,9.00832626 56.4951628,7.33140851 54.3654715,7.33140851 C52.2357802,7.33140851 51.607784,7.99573699 49.8949939,7.99573699 C48.1822038,7.99573699 46.9884131,6.48380909 46.9884131,4.96820197 Z" id="Path-301" stroke="#E5E5E5" stroke-linecap="round" stroke-linejoin="round"></path>
                <path d="M59.694775,12.9499427 C57.6260216,12.9346485 56.0610966,13.2570001 55,13.9169976 C55,12.956937 55.3730297,10.7792535 56.2296482,9.88962673 C57.0862667,9 58.3608257,9 59.694775,9" id="Path-302" stroke="#E5E5E5" stroke-linecap="round" stroke-linejoin="round"></path>
                <path d="M64,12.9499427 C61.9312467,12.9346485 60.3663217,13.2570001 59.305225,13.9169976 C59.305225,12.956937 59.6782547,10.7792535 60.5348732,9.88962673 C61.3914917,9 62.6660507,9 64,9" id="Path-302-Copy" stroke="#E5E5E5" stroke-linecap="round" stroke-linejoin="round" transform="translate(61.652613, 11.458499) scale(-1, 1) translate(-61.652613, -11.458499) "></path>
                <path d="M55.0730362,12.8824743 C54.616853,13.100416 54.1872137,13.3982822 54.0202846,13.7410559 C53.8687052,14.0523104 54.6084101,19.0532997 54.8528514,20.9189411 C54.9121051,21.3711815 55.6281453,21.5941582 56.0260411,22.393567 C56.4239369,23.1929758 57.0903693,24.3256009 57.1438527,24.7981667 C57.1973361,25.2707326 57.3884466,25.2707326 57.8132994,25.2707326 C58.2381522,25.2707326 58.2381522,24.7238411 58.2381522,24.3916584 C58.2381522,24.0594757 58.2381522,22.4901988 58.2381522,22.0771451 C58.2381522,21.6640914 57.8440459,21.172492 57.6249449,20.9189411 C57.4058438,20.6653902 57.4727626,20.4234661 57.6249449,20.211944 C57.7771271,20.0004219 57.9985535,19.5342292 57.7771271,19.3430326 C57.5557007,19.1518359 57.0244839,19.0912903 56.5936024,19.5342292 C56.1627209,19.9771682 55.8705861,19.8662397 55.8506913,19.5342292 C55.8307966,19.2022188 55.7043656,17.0559069 55.6854182,16.67937 C55.6664708,16.3028331 56.0540316,15.9046789 56.9679862,15.9046789 C57.5772892,15.9046789 58.5546913,15.9046789 59.9001923,15.9046789" id="Path-305" stroke="#E5E5E5" stroke-linecap="round" stroke-linejoin="round"></path>
                <path d="M60.1502853,12.8933276 C59.702554,13.1102579 59.284267,13.403938 59.1200923,13.7410559 C58.9685129,14.0523104 59.7082178,19.0532997 59.9526591,20.9189411 C60.0119128,21.3711815 60.727953,21.5941582 61.1258488,22.393567 C61.5237446,23.1929758 62.190177,24.3256009 62.2436604,24.7981667 C62.2971438,25.2707326 62.4882543,25.2707326 62.9131072,25.2707326 C63.33796,25.2707326 63.33796,24.7238411 63.33796,24.3916584 C63.33796,24.0594757 63.33796,22.4901988 63.33796,22.0771451 C63.33796,21.6640914 62.9438536,21.172492 62.7247526,20.9189411 C62.5056515,20.6653902 62.5725704,20.4234661 62.7247526,20.211944 C62.8769348,20.0004219 63.0983612,19.5342292 62.8769348,19.3430326 C62.6555084,19.1518359 62.1242917,19.0912903 61.6934101,19.5342292 C61.2625286,19.9771682 60.9703939,19.8662397 60.9504991,19.5342292 C60.9306043,19.2022188 60.8041733,17.0559069 60.7852259,16.67937 C60.7662785,16.3028331 61.1538393,15.9046789 62.0677939,15.9046789 C62.677097,15.9046789 63.654499,15.9046789 65,15.9046789" id="Path-305-Copy" stroke="#E5E5E5" stroke-linecap="round" stroke-linejoin="round" transform="translate(62.049904, 19.082030) scale(-1, 1) translate(-62.049904, -19.082030) "></path>
                <path d="M31.0876465,58.8361454 C30.7167183,59.1001382 29.3433473,60.3512453 21.1602991,60.3512453 C15.7049336,60.3512453 12.738968,59.9718418 12.2624021,59.2130347" id="Path-285" stroke="#E5E5E5" stroke-linecap="round" stroke-linejoin="round"></path>
                <path d="M29.6853765,59.3572677 L29.6853765,57.6249152" id="Path-289" stroke="#E5E5E5" stroke-linecap="round" stroke-linejoin="round"></path>
                <path d="M26.8072473,13.2074711 C27.8725243,16.552596 30.721364,24.0119855 31.3187442,25.3752378 C31.9161244,26.73849 35.7740772,32.9385817 36.7262094,35.2747978" id="Path-292" stroke="#E5E5E5" stroke-linecap="round" stroke-linejoin="round"></path>
                <path d="M31.641598,1.86627652 L31.641598,8.85804964 C34.0346268,8.85804964 35.360941,8.85804964 35.6205407,8.85804964 C36.0099401,8.85804964 36.2902558,8.35287009 36.2902558,7.94666981 C36.2902558,7.54046953 36.2902558,3.24068355 36.2902558,2.7373275 C36.2902558,2.23397144 35.8613906,1.86934274 35.3992358,1.86934274 C35.0911326,1.86934274 33.8385867,1.86832066 31.641598,1.86627652 Z" id="Path-296" stroke="#E5E5E5" stroke-linecap="round" stroke-linejoin="round"></path>
                <path d="M17.7424654,11.5379127 C16.9663772,11.5223781 13.7061984,11.5633766 11.133865,11.5534473 C8.56153151,11.543518 4.45864204,11.117198 2.85810036,8.71350275 C1.25755868,6.30980752 0.714168852,3.32829016 3.43127813,1.8606732 C6.14838742,0.39305623 6.32471285,3.03553549 10.1604717,3.03553549" id="Path-298" stroke="#E5E5E5" stroke-linecap="round" stroke-linejoin="round"></path>
                <g id="Oval-Copy-523" transform="translate(35.000000, 44.000000) rotate(-90.000000) translate(-35.000000, -44.000000) " stroke="#FFFFFF">
                    <circle stroke-width="1.5" stroke-linejoin="square" fill="#515151" fill-rule="evenodd" cx="35" cy="44" r="2.25"></circle>
                    <use stroke-width="1" xlink:href="#path-1"></use>
                </g>
                <g id="Oval-Copy-527" transform="translate(60.000000, 5.000000) rotate(-90.000000) translate(-60.000000, -5.000000) " stroke="#FFFFFF">
                    <circle stroke-width="1.5" stroke-linejoin="square" fill="#515151" fill-rule="evenodd" cx="60" cy="5" r="2.25"></circle>
                    <use stroke-width="1" xlink:href="#path-2"></use>
                </g>
                <g id="Oval-Copy-528" transform="translate(3.000000, 9.000000) rotate(-90.000000) translate(-3.000000, -9.000000) " stroke="#FFFFFF">
                    <circle stroke-width="1.5" stroke-linejoin="square" fill="#515151" fill-rule="evenodd" cx="3" cy="9" r="2.25"></circle>
                    <use stroke-width="1" xlink:href="#path-3"></use>
                </g>
                <g id="Oval-Copy-529" transform="translate(6.000000, 72.000000) rotate(-90.000000) translate(-6.000000, -72.000000) " stroke="#FFFFFF">
                    <circle stroke-width="1.5" stroke-linejoin="square" fill="#515151" fill-rule="evenodd" cx="6" cy="72" r="2.25"></circle>
                    <use stroke-width="1" xlink:href="#path-4"></use>
                </g>
                <g id="Oval-Copy-530" transform="translate(37.000000, 72.000000) rotate(-90.000000) translate(-37.000000, -72.000000) " stroke="#FFFFFF">
                    <circle stroke-width="1.5" stroke-linejoin="square" fill="#515151" fill-rule="evenodd" cx="37" cy="72" r="2.25"></circle>
                    <use stroke-width="1" xlink:href="#path-5"></use>
                </g>
            </g>
        </g>
    </g>
</svg>