<?xml version="1.0" encoding="iso-8859-1"?>
<!-- Generator: Adobe Illustrator 17.0.0, SVG Export Plug-In . SVG Version: 6.00 Build 0)  -->
<!DOCTYPE svg PUBLIC "-//W3C//DTD SVG 1.1//EN" "http://www.w3.org/Graphics/SVG/1.1/DTD/svg11.dtd">
<svg version="1.1" id="space_and_universe" xmlns="http://www.w3.org/2000/svg" xmlns:xlink="http://www.w3.org/1999/xlink" x="0px"
	 y="0px" width="122px" height="140px" viewBox="0 0 122 140" style="enable-background:new 0 0 122 140;" xml:space="preserve">
<g id="space__x26__universe">
	<g>
		<circle style="fill:#EFD32E;" cx="61" cy="70" r="10"/>
	</g>
	<g>
		<path d="M61.015,86H61c-0.691,0-1.388-0.044-2.07-0.133l0.256-1.983C59.784,83.961,60.394,84,61,84L61.015,86z M65.153,85.455
			l-0.517-1.932c0.587-0.157,1.169-0.355,1.731-0.589l0.768,1.847C66.492,85.049,65.826,85.275,65.153,85.455z M54.893,84.793
			c-0.643-0.266-1.275-0.577-1.878-0.925l1-1.732c0.527,0.305,1.079,0.577,1.642,0.809L54.893,84.793z M70.747,82.689l-1.219-1.586
			c0.481-0.37,0.944-0.776,1.375-1.208l1.415,1.413C71.826,81.802,71.297,82.267,70.747,82.689z M49.701,81.329
			c-0.494-0.493-0.958-1.021-1.381-1.57l1.584-1.221c0.37,0.48,0.777,0.943,1.21,1.375L49.701,81.329z M74.86,77.999l-1.731-1.001
			c0.305-0.527,0.578-1.08,0.811-1.642l1.848,0.767C75.521,76.764,75.209,77.396,74.86,77.999z M46.224,76.149
			c-0.267-0.64-0.494-1.306-0.676-1.98l1.931-0.521c0.159,0.589,0.358,1.172,0.592,1.732L46.224,76.149z M76.865,72.086
			l-1.983-0.259C74.96,71.227,75,70.612,75,70l2-0.058V70C77,70.698,76.955,71.4,76.865,72.086z M45,70.029V70
			c0-0.686,0.044-1.377,0.131-2.056l1.983,0.255C47.039,68.793,47,69.399,47,70L45,70.029z M74.514,66.326
			c-0.16-0.587-0.36-1.169-0.595-1.73l1.845-0.772c0.269,0.642,0.498,1.308,0.68,1.979L74.514,66.326z M48.051,64.668l-1.85-0.762
			c0.265-0.642,0.575-1.273,0.923-1.879l1.733,0.997C48.553,63.555,48.282,64.108,48.051,64.668z M72.08,61.44
			c-0.373-0.482-0.781-0.943-1.213-1.372l1.41-1.419c0.492,0.489,0.958,1.017,1.384,1.566L72.08,61.44z M51.077,60.124l-1.417-1.411
			c0.492-0.494,1.02-0.959,1.568-1.383l1.222,1.583C51.97,59.283,51.508,59.69,51.077,60.124z M67.963,57.852
			c-0.529-0.304-1.083-0.575-1.644-0.806l0.76-1.85c0.643,0.264,1.275,0.574,1.88,0.921L67.963,57.852z M55.607,57.076l-0.771-1.846
			c0.643-0.269,1.309-0.497,1.98-0.678l0.521,1.931C56.752,56.642,56.169,56.841,55.607,57.076z M62.787,56.113
			C62.2,56.038,61.599,56,61,56l-0.044-2H61c0.684,0,1.37,0.043,2.041,0.129L62.787,56.113z"/>
	</g>
	<g>
		<path style="fill:#C4C4C4;" d="M61,96c-14.336,0-26-11.664-26-26h2c0,13.233,10.767,24,24,24s24-10.767,24-24S74.233,46,61,46v-2
			c14.336,0,26,11.664,26,26S75.336,96,61,96z"/>
	</g>
	<g>
		<path d="M61,106c-19.851,0-36-16.149-36-36s16.149-36,36-36s36,16.149,36,36h-2c0-18.748-15.252-34-34-34S27,51.252,27,70
			s15.252,34,34,34V106z"/>
	</g>
	<g>
		<path d="M61.045,106c-0.016,0-0.031,0-0.047,0l0.003-2c0.32,0.006,0.646-0.004,0.967-0.013l0.056,1.999
			C61.699,105.995,61.373,106,61.045,106z M66.119,105.639l-0.283-1.979c0.645-0.092,1.283-0.202,1.915-0.329l0.395,1.961
			C67.476,105.425,66.8,105.542,66.119,105.639z M72.122,104.249l-0.617-1.902c0.618-0.201,1.228-0.418,1.829-0.652l0.726,1.863
			C73.422,103.806,72.776,104.037,72.122,104.249z M77.797,101.849l-0.933-1.77c0.572-0.302,1.135-0.62,1.688-0.954l1.034,1.712
			C79.001,101.19,78.405,101.528,77.797,101.849z M82.978,98.515l-1.223-1.583c0.513-0.396,1.014-0.806,1.503-1.23l1.31,1.512
			C84.051,97.662,83.521,98.096,82.978,98.515z M87.516,94.35l-1.472-1.354c0.438-0.476,0.863-0.965,1.273-1.467l1.547,1.268
			C88.429,93.327,87.98,93.845,87.516,94.35z M91.285,89.472l-1.682-1.083c0.351-0.544,0.686-1.099,1.006-1.664l1.74,0.985
			C92.011,88.309,91.656,88.896,91.285,89.472z M94.167,84.021l-1.843-0.778c0.252-0.596,0.488-1.201,0.707-1.813l1.884,0.673
			C94.684,82.75,94.434,83.39,94.167,84.021z M96.073,78.153l-1.948-0.45c0.145-0.628,0.273-1.263,0.383-1.904l1.971,0.339
			C96.362,76.816,96.227,77.488,96.073,78.153z M96.942,72.054l-1.997-0.112C94.981,71.299,95,70.652,95,70h2
			C97,70.689,96.98,71.374,96.942,72.054z"/>
	</g>
	<g>
		<path d="M61,116c-25.364,0-46-20.636-46-46h2c0,24.262,19.738,44,44,44s44-19.738,44-44S85.262,26,61,26v-2
			c25.364,0,46,20.636,46,46S86.364,116,61,116z"/>
	</g>
	<g>
		<path d="M61,131c-33.636,0-61-27.364-61-61S27.364,9,61,9s61,27.364,61,61S94.636,131,61,131z M61,11C28.467,11,2,37.467,2,70
			s26.467,59,59,59s59-26.467,59-59S93.533,11,61,11z"/>
	</g>
	<g>
		<path d="M61.052,121L60.972,121c-0.652-0.004-1.307-0.012-1.971-0.039l0.078-1.998C59.716,118.988,60.357,119,61,119L61.052,121z
			 M65.153,120.833l-0.159-1.993c0.658-0.053,1.312-0.119,1.961-0.198l0.241,1.985C66.52,120.709,65.838,120.778,65.153,120.833z
			 M54.911,120.641c-0.682-0.082-1.359-0.176-2.033-0.284l0.315-1.975c0.647,0.103,1.298,0.194,1.954,0.272L54.911,120.641z
			 M71.248,119.97l-0.399-1.96c0.646-0.131,1.288-0.276,1.924-0.433l0.479,1.941C72.588,119.682,71.92,119.833,71.248,119.97z
			 M48.854,119.544c-0.667-0.163-1.328-0.338-1.984-0.527l0.553-1.922c0.63,0.181,1.266,0.35,1.906,0.507L48.854,119.544z
			 M77.193,118.375l-0.634-1.896c0.624-0.209,1.243-0.43,1.856-0.664l0.712,1.869C78.488,117.928,77.844,118.159,77.193,118.375z
			 M42.974,117.723c-0.643-0.243-1.279-0.499-1.909-0.766l0.781-1.841c0.605,0.257,1.217,0.502,1.835,0.736L42.974,117.723z
			 M82.9,116.071l-0.86-1.806c0.593-0.282,1.179-0.576,1.759-0.881l0.932,1.77C84.127,115.472,83.517,115.777,82.9,116.071z
			 M37.351,115.197c-0.607-0.319-1.208-0.649-1.801-0.991l0.998-1.733c0.57,0.329,1.147,0.646,1.731,0.953L37.351,115.197z
			 M88.282,113.097l-1.072-1.688c0.555-0.353,1.103-0.715,1.643-1.088l1.138,1.645C89.429,112.353,88.859,112.73,88.282,113.097z
			 M32.079,112.012c-0.564-0.389-1.121-0.79-1.667-1.201l1.201-1.599c0.525,0.395,1.059,0.779,1.601,1.153L32.079,112.012z
			 M93.269,109.496l-1.267-1.548c0.509-0.417,1.009-0.843,1.501-1.279l1.327,1.496C94.319,108.619,93.798,109.062,93.269,109.496z
			 M27.229,108.217c-0.513-0.454-1.016-0.917-1.51-1.39l1.383-1.444c0.475,0.455,0.959,0.9,1.452,1.336L27.229,108.217z
			 M97.791,105.319l-1.443-1.385c0.456-0.475,0.901-0.958,1.338-1.45l1.497,1.326C98.729,104.323,98.264,104.826,97.791,105.319z
			 M22.87,103.871c-0.454-0.511-0.898-1.031-1.332-1.56l1.547-1.269c0.417,0.508,0.844,1.009,1.28,1.5L22.87,103.871z
			 M101.78,100.631l-1.599-1.202c0.396-0.525,0.781-1.059,1.155-1.601l1.646,1.137C102.592,99.529,102.191,100.084,101.78,100.631z
			 M19.065,99.035c-0.389-0.562-0.768-1.131-1.135-1.708l1.688-1.072c0.352,0.555,0.715,1.101,1.09,1.64L19.065,99.035z
			 M105.179,95.496l-1.731-1.002c0.329-0.569,0.647-1.145,0.954-1.729l1.771,0.931C105.853,94.303,105.522,94.904,105.179,95.496z
			 M15.871,93.778c-0.318-0.604-0.625-1.213-0.919-1.831l1.805-0.861c0.283,0.593,0.578,1.179,0.883,1.758L15.871,93.778z
			 M107.935,89.986l-1.84-0.785c0.258-0.605,0.504-1.216,0.738-1.833l1.87,0.709C108.46,88.719,108.204,89.355,107.935,89.986z
			 M13.335,88.176c-0.244-0.638-0.475-1.283-0.693-1.933l1.896-0.637c0.209,0.625,0.431,1.244,0.665,1.856L13.335,88.176z
			 M110.002,84.181l-1.922-0.555c0.182-0.63,0.352-1.265,0.509-1.905l1.942,0.477C110.368,82.864,110.191,83.526,110.002,84.181z
			 M11.494,82.302c-0.164-0.663-0.315-1.33-0.453-2.002L13,79.897c0.133,0.646,0.278,1.288,0.435,1.924L11.494,82.302z
			 M111.349,78.175l-1.975-0.318c0.104-0.646,0.196-1.297,0.274-1.953l1.985,0.238C111.552,76.824,111.457,77.502,111.349,78.175z
			 M10.379,76.249c-0.083-0.677-0.152-1.357-0.208-2.042l1.993-0.162c0.054,0.657,0.12,1.312,0.2,1.962L10.379,76.249z
			 M111.959,72.051l-1.998-0.079C109.987,71.318,110,70.661,110,70v-0.202l2-0.014v0.222C112,70.687,111.986,71.371,111.959,72.051z
			 M12,70.104h-2V70c0-0.651,0.012-1.3,0.037-1.945l1.999,0.075C12.012,68.751,12,69.374,12,70V70.104z M109.827,65.854
			c-0.055-0.658-0.123-1.312-0.204-1.961l1.984-0.247c0.084,0.676,0.155,1.357,0.212,2.042L109.827,65.854z M12.34,64.198
			l-1.986-0.235c0.081-0.681,0.175-1.359,0.281-2.032l1.976,0.312C12.508,62.891,12.417,63.542,12.34,64.198z M108.98,60.002
			c-0.134-0.646-0.281-1.287-0.439-1.923l1.94-0.484c0.166,0.662,0.318,1.329,0.457,2.001L108.98,60.002z M13.386,58.378
			l-1.943-0.473c0.163-0.667,0.338-1.328,0.525-1.984l1.923,0.551C13.71,57.102,13.542,57.737,13.386,58.378z M107.43,54.296
			c-0.21-0.624-0.434-1.242-0.669-1.854l1.867-0.718c0.245,0.638,0.478,1.282,0.697,1.932L107.43,54.296z M15.131,52.728
			l-1.872-0.705c0.242-0.643,0.497-1.28,0.764-1.91l1.842,0.779C15.608,51.498,15.363,52.11,15.131,52.728z M105.2,48.823
			c-0.284-0.592-0.58-1.178-0.887-1.757l1.767-0.938c0.32,0.603,0.627,1.212,0.923,1.828L105.2,48.823z M17.55,47.325l-1.772-0.928
			c0.318-0.608,0.648-1.208,0.99-1.802l1.733,0.998C18.173,46.164,17.856,46.741,17.55,47.325z M102.326,43.66
			c-0.354-0.553-0.718-1.1-1.093-1.638l1.641-1.144c0.391,0.561,0.77,1.129,1.138,1.706L102.326,43.66z M20.605,42.256l-1.647-1.134
			c0.388-0.564,0.788-1.121,1.198-1.669l1.601,1.199C21.362,41.179,20.979,41.713,20.605,42.256z M98.85,38.878
			c-0.418-0.508-0.846-1.007-1.283-1.497l1.492-1.332c0.455,0.51,0.9,1.03,1.335,1.558L98.85,38.878z M24.247,37.591l-1.499-1.323
			c0.453-0.514,0.916-1.017,1.388-1.512l1.446,1.382C25.127,36.613,24.683,37.098,24.247,37.591z M94.824,34.546
			c-0.476-0.454-0.96-0.898-1.455-1.333l1.321-1.502c0.514,0.453,1.019,0.915,1.513,1.387L94.824,34.546z M28.419,33.399
			l-1.33-1.493c0.51-0.455,1.03-0.899,1.559-1.333l1.27,1.545C29.41,32.535,28.91,32.962,28.419,33.399z M90.307,30.726
			c-0.527-0.394-1.062-0.777-1.605-1.15l1.133-1.648c0.564,0.388,1.121,0.787,1.669,1.197L90.307,30.726z M33.063,29.738
			l-1.142-1.642c0.561-0.39,1.13-0.769,1.706-1.137l1.075,1.687C34.149,28.999,33.603,29.363,33.063,29.738z M85.362,27.476
			c-0.57-0.328-1.148-0.644-1.732-0.949l0.925-1.773c0.609,0.317,1.21,0.646,1.804,0.988L85.362,27.476z M38.111,26.663
			l-0.937-1.768c0.603-0.319,1.213-0.626,1.83-0.922l0.863,1.805C39.276,26.061,38.69,26.356,38.111,26.663z M80.06,24.845
			c-0.606-0.256-1.218-0.5-1.836-0.732l0.703-1.872c0.644,0.241,1.28,0.496,1.912,0.762L80.06,24.845z M43.489,24.221l-0.715-1.868
			c0.638-0.244,1.282-0.476,1.931-0.695l0.64,1.896C44.721,23.764,44.102,23.987,43.489,24.221z M74.479,22.877
			c-0.63-0.18-1.265-0.348-1.906-0.502l0.471-1.944c0.667,0.162,1.33,0.336,1.986,0.524L74.479,22.877z M49.129,22.447l-0.483-1.94
			c0.663-0.165,1.331-0.317,2.003-0.455l0.402,1.959C50.406,22.143,49.765,22.289,49.129,22.447z M68.706,21.602
			c-0.647-0.102-1.298-0.191-1.954-0.268l0.232-1.986c0.682,0.08,1.36,0.173,2.033,0.279L68.706,21.602z M54.943,21.371
			l-0.244-1.985c0.677-0.083,1.358-0.153,2.042-0.209l0.164,1.993C56.247,21.223,55.593,21.291,54.943,21.371z M62.819,21.034
			C62.215,21.011,61.609,21,61,21l-0.157,0v-2l0.147,0c0.001,0,0.002,0,0.004,0c0.642,0,1.271,0.012,1.898,0.035L62.819,21.034z"/>
	</g>
	<g>
		<circle style="fill:#C4C4C4;" cx="13.985" cy="32.719" r="5.615"/>
	</g>
	<g>
		<circle style="fill:#C4C4C4;" cx="76.162" cy="38.334" r="3.281"/>
	</g>
	<g>
		<circle style="fill:#E4E5E7;" cx="104.734" cy="28.926" r="3.793"/>
	</g>
	<g>
		<circle style="fill:#E2C120;" cx="32.207" cy="91.207" r="3.793"/>
	</g>
	<g>
		<circle style="fill:#E2C120;" cx="86" cy="70" r="3.793"/>
	</g>
	<g>
		<circle style="fill:#E2C120;" cx="21" cy="2.5" r="2.5"/>
	</g>
	<g>
		<circle style="fill:#E2C120;" cx="103.5" cy="137.5" r="2.5"/>
	</g>
	<g>
		<circle style="fill:#E2C120;" cx="43.5" cy="52.5" r="2.5"/>
	</g>
	<g>
		<circle style="fill:#E2C120;" cx="81" cy="2.5" r="2.5"/>
	</g>
	<g>
		<circle style="fill:#E2C120;" cx="83.261" cy="125.734" r="7.099"/>
	</g>
	<g>
		<circle style="fill:#E4E5E7;" cx="11" cy="130" r="10"/>
	</g>
	<g>
		<circle style="fill:#E4E5E7;" cx="116" cy="120" r="5"/>
	</g>
	<g>
		<circle style="fill:#E4E5E7;" cx="4.685" cy="15" r="3.686"/>
	</g>
	<g>
		<circle style="fill:#E4E5E7;" cx="111" cy="7.5" r="7.5"/>
	</g>
</g>
</svg>
