<?xml version="1.0" encoding="UTF-8"?>
<svg width="79px" height="89px" viewBox="0 0 79 89" version="1.1" xmlns="http://www.w3.org/2000/svg" xmlns:xlink="http://www.w3.org/1999/xlink">
    <!-- Generator: Sketch 51.3 (57544) - http://www.bohemiancoding.com/sketch -->
    <title>science / hexa-cell-2</title>
    <desc>Created with Sketch.</desc>
    <defs>
        <circle id="path-1" cx="46" cy="84" r="3"></circle>
        <circle id="path-2" cx="9" cy="84" r="3"></circle>
        <circle id="path-3" cx="9" cy="21" r="3"></circle>
        <circle id="path-4" cx="80" cy="66" r="3"></circle>
        <circle id="path-5" cx="79" cy="3" r="3"></circle>
        <circle id="path-6" cx="42" cy="3" r="3"></circle>
    </defs>
    <g id="Symbols" stroke="none" stroke-width="1" fill="none" fill-rule="evenodd">
        <g id="10" transform="translate(-27.000000, -22.000000)">
            <g id="science-/-hexa-cell-2" transform="translate(22.000000, 23.000000)">
                <g id="Group-6-Copy" transform="translate(0.000000, 22.000000)" stroke="#E5E5E5" stroke-linecap="round" stroke-linejoin="round">
                    <polygon id="Polygon-2" transform="translate(28.000000, 31.500000) rotate(-30.000000) translate(-28.000000, -31.500000) " points="28 9.45 47.2 20.475 47.2 42.525 28 53.55 8.8 42.525 8.8 20.475"></polygon>
                    <path d="M46.4,50.4 L39.2,63" id="Line-6-Copy-2" transform="translate(42.800000, 56.700000) scale(1, -1) translate(-42.800000, -56.700000) "></path>
                    <path d="M16.8,0 L9.6,12.6" id="Line-6-Copy" transform="translate(13.200000, 6.300000) scale(1, -1) translate(-13.200000, -6.300000) "></path>
                    <path d="M16.8,50.4 L9.6,63" id="Line-6-Copy-3"></path>
                </g>
                <g id="Group-6-Copy-2" transform="translate(33.000000, 3.000000)" stroke="#E5E5E5" stroke-linecap="round" stroke-linejoin="round">
                    <polyline id="Polygon-2" transform="translate(28.000000, 31.500000) rotate(-30.000000) translate(-28.000000, -31.500000) " points="8.8 20.475 28 9.45 28 9.45 47.2 20.475 47.2 42.525 28 53.55 8.8 42.525"></polyline>
                    <path d="M46.4,0 L39.2,12.6" id="Line-6"></path>
                    <path d="M46.4,50.4 L39.2,63" id="Line-6-Copy-2" transform="translate(42.800000, 56.700000) scale(1, -1) translate(-42.800000, -56.700000) "></path>
                    <path d="M16.8,0 L9.6,12.6" id="Line-6-Copy" transform="translate(13.200000, 6.300000) scale(1, -1) translate(-13.200000, -6.300000) "></path>
                </g>
                <g id="Oval-Copy-274" transform="translate(46.000000, 84.000000) rotate(-90.000000) translate(-46.000000, -84.000000) " stroke="#FFFFFF">
                    <circle stroke-width="1.5" stroke-linejoin="square" fill="#515151" fill-rule="evenodd" cx="46" cy="84" r="2.25"></circle>
                    <use stroke-width="1" xlink:href="#path-1"></use>
                </g>
                <g id="Oval-Copy-280" transform="translate(9.000000, 84.000000) rotate(-90.000000) translate(-9.000000, -84.000000) " stroke="#FFFFFF">
                    <circle stroke-width="1.5" stroke-linejoin="square" fill="#515151" fill-rule="evenodd" cx="9" cy="84" r="2.25"></circle>
                    <use stroke-width="1" xlink:href="#path-2"></use>
                </g>
                <g id="Oval-Copy-275" transform="translate(9.000000, 21.000000) rotate(-90.000000) translate(-9.000000, -21.000000) " stroke="#FFFFFF">
                    <circle stroke-width="1.5" stroke-linejoin="square" fill="#515151" fill-rule="evenodd" cx="9" cy="21" r="2.25"></circle>
                    <use stroke-width="1" xlink:href="#path-3"></use>
                </g>
                <g id="Oval-Copy-276" transform="translate(80.000000, 66.000000) rotate(-90.000000) translate(-80.000000, -66.000000) " stroke="#FFFFFF">
                    <circle stroke-width="1.5" stroke-linejoin="square" fill="#515151" fill-rule="evenodd" cx="80" cy="66" r="2.25"></circle>
                    <use stroke-width="1" xlink:href="#path-4"></use>
                </g>
                <g id="Oval-Copy-277" transform="translate(79.000000, 3.000000) rotate(-90.000000) translate(-79.000000, -3.000000) " stroke="#FFFFFF">
                    <circle stroke-width="1.5" stroke-linejoin="square" fill="#515151" fill-rule="evenodd" cx="79" cy="3" r="2.25"></circle>
                    <use stroke-width="1" xlink:href="#path-5"></use>
                </g>
                <g id="Oval-Copy-279" transform="translate(42.000000, 3.000000) rotate(-90.000000) translate(-42.000000, -3.000000) " stroke="#FFFFFF">
                    <circle stroke-width="1.5" stroke-linejoin="square" fill="#515151" fill-rule="evenodd" cx="42" cy="3" r="2.25"></circle>
                    <use stroke-width="1" xlink:href="#path-6"></use>
                </g>
            </g>
        </g>
    </g>
</svg>