<?xml version="1.0" encoding="UTF-8" standalone="no"?>
<svg
   xmlns:dc="http://purl.org/dc/elements/1.1/"
   xmlns:cc="http://creativecommons.org/ns#"
   xmlns:rdf="http://www.w3.org/1999/02/22-rdf-syntax-ns#"
   xmlns:svg="http://www.w3.org/2000/svg"
   xmlns="http://www.w3.org/2000/svg"
   id="svg8"
   version="1.1"
   viewBox="0 0 46.325893 7.8210254"
   height="7.8210254mm"
   width="46.325893mm">
  <defs
     id="defs2" />
  <metadata
     id="metadata5">
    <rdf:RDF>
      <cc:Work
         rdf:about="">
        <dc:format>image/svg+xml</dc:format>
        <dc:type
           rdf:resource="http://purl.org/dc/dcmitype/StillImage" />
        <dc:title></dc:title>
      </cc:Work>
    </rdf:RDF>
  </metadata>
  <g
     transform="translate(-50.039164,-78.58106)"
     id="layer1">
    <g
       id="text817"
       style="font-style:normal;font-variant:normal;font-weight:normal;font-stretch:normal;font-size:11.28888893px;line-height:0.25;font-family:Bembo;-inkscape-font-specification:Bembo;letter-spacing:0px;word-spacing:0px;stroke-width:0.26458332"
       aria-label="Wittes Ende">
      <path
         id="path847"
         style="font-style:normal;font-variant:normal;font-weight:normal;font-stretch:normal;font-family:'American Horror Story';-inkscape-font-specification:'American Horror Story';stroke-width:0.26458332"
         d="m 54.012853,82.018523 0.869244,-3.318933 h -0.891822 l -0.417689,1.885244 -0.417689,-1.885244 h -0.959556 l 0.9144,3.4544 -0.6096,2.381955 -1.501422,-5.836355 h -0.959555 l 1.986844,7.529689 h 0.869245 l 0.643466,-2.754489 0.643467,2.754489 h 0.869244 l 1.986845,-7.529689 h -0.891822 l -1.490134,5.836355 z" />
      <path
         id="path849"
         style="font-style:normal;font-variant:normal;font-weight:normal;font-stretch:normal;font-family:'American Horror Story';-inkscape-font-specification:'American Horror Story';stroke-width:0.26458332"
         d="m 57.294744,79.139856 v -0.451555 h 0.880533 0.880534 v 0.451555 0.440267 h -0.214489 -0.225778 v 2.878667 2.867377 h 0.225778 0.214489 v 0.451556 0.440267 h -0.880534 -0.880533 v -0.440267 -0.451556 h 0.214489 0.225778 V 82.45879 79.580123 h -0.225778 -0.214489 z" />
      <path
         id="path851"
         style="font-style:normal;font-variant:normal;font-weight:normal;font-stretch:normal;font-size:11.28888893px;font-family:'American Horror Story';-inkscape-font-specification:'American Horror Story, Normal';font-variant-ligatures:no-common-ligatures;font-variant-caps:normal;font-variant-numeric:normal;font-feature-settings:normal;text-align:start;writing-mode:lr-tb;text-anchor:start"
         d="m 62.245451,79.523679 h 1.806222 V 78.69959 h -4.526844 v 0.824089 h 1.806222 v 6.7056 h 0.9144 z" />
      <path
         id="path853"
         style="font-style:normal;font-variant:normal;font-weight:normal;font-stretch:normal;font-size:11.28888893px;font-family:'American Horror Story';-inkscape-font-specification:'American Horror Story, Normal';font-variant-ligatures:no-common-ligatures;font-variant-caps:normal;font-variant-numeric:normal;font-feature-settings:normal;text-align:start;writing-mode:lr-tb;text-anchor:start"
         d="m 67.316631,79.523679 h 1.806222 V 78.69959 h -4.526844 v 0.824089 h 1.806222 v 6.7056 h 0.9144 z" />
      <path
         id="path855"
         style="font-style:normal;font-variant:normal;font-weight:normal;font-stretch:normal;font-family:'American Horror Story';-inkscape-font-specification:'American Horror Story';stroke-width:0.26458332"
         d="m 70.8751,81.160567 h 1.016 v -0.891822 h -1.016 v -0.677333 h 1.016 V 78.69959 h -1.9304 v 7.529689 h 1.9304 v -0.891823 h -1.016 z" />
      <path
         id="path857"
         style="font-style:normal;font-variant:normal;font-weight:normal;font-stretch:normal;font-family:'American Horror Story';-inkscape-font-specification:'American Horror Story';stroke-width:0.26458332"
         d="m 74.276937,78.631856 q 0.214489,-0.06773 0.6096,-0.04515 0.4064,0.02258 0.530578,0.112889 0.03387,0.03387 0,0.169333 -0.02258,0.124178 -0.158045,0.643467 l -0.02258,0.112889 -0.09031,-0.05645 q -0.180622,-0.135467 -0.428977,-0.135467 -0.237067,-0.01129 -0.3048,0.112889 -0.05644,0.124178 0.1016,0.3048 0.158044,0.180623 0.6096,0.530578 0.880533,0.666045 1.298222,1.309511 0.417689,0.632178 0.508,1.4224 0.04515,0.451556 -0.04516,0.959556 -0.09031,0.496711 -0.293511,0.903111 -0.146755,0.293511 -0.383822,0.564444 -0.237067,0.270934 -0.530578,0.474134 -0.282222,0.191911 -0.564444,0.282222 -0.395111,0.124178 -0.880534,0.1016 -0.485422,-0.01129 -0.9144,-0.169333 -0.146755,-0.04516 -0.327377,-0.135467 -0.180623,-0.1016 -0.225778,-0.158045 -0.02258,-0.03387 0.180622,-0.4064 0.2032,-0.372533 0.214489,-0.395111 0.02258,-0.01129 0.112889,0.05645 0.225778,0.169333 0.654755,0.259644 0.428978,0.07902 0.733778,0 0.778934,-0.180622 1.140178,-0.948266 0.191911,-0.4064 0.214489,-0.857956 0.03387,-0.8128 -0.338667,-1.4224 -0.180622,-0.282222 -0.395111,-0.496711 -0.214489,-0.214489 -0.688622,-0.598311 -0.620889,-0.485422 -0.767645,-0.666045 -0.417688,-0.462844 -0.361244,-0.959555 0.04516,-0.349956 0.270933,-0.564445 0.225778,-0.2032 0.541867,-0.3048 z" />
      <path
         id="path859"
         style="font-style:normal;font-variant:normal;font-weight:normal;font-stretch:normal;font-family:'American Horror Story';-inkscape-font-specification:'American Horror Story';stroke-width:0.26458332"
         d="M 80.548445,82.470079 V 78.69959 h 0.970844 0.970845 v 0.451555 0.440267 h -0.508 -0.508 v 0.338667 0.338666 h 0.801511 0.8128 v 0.440267 0.451555 h -0.8128 -0.801511 v 2.088445 2.088444 h 0.936977 0.948267 v 0.451556 0.440267 h -1.399822 -1.411111 z" />
      <path
         id="path861"
         style="font-style:normal;font-variant:normal;font-weight:normal;font-stretch:normal;font-family:'American Horror Story';-inkscape-font-specification:'American Horror Story';stroke-width:0.26458332"
         d="m 85.172832,80.42679 2.415822,3.510844 v 2.291645 h 0.880534 V 78.69959 h -0.880534 v 3.646311 L 85.059943,78.69959 h -0.767644 v 7.529689 h 0.880533 z" />
      <path
         id="path863"
         style="font-style:normal;font-variant:normal;font-weight:normal;font-stretch:normal;font-family:'American Horror Story';-inkscape-font-specification:'American Horror Story';stroke-width:0.26458332"
         d="m 90.350021,79.61399 v 5.734755 q 1.072444,-0.135466 1.659466,-1.174044 0.598312,-1.049867 0.598312,-2.348089 0,-1.049867 -0.541867,-1.6256 -0.541867,-0.587022 -1.715911,-0.587022 z m 2.935111,0.857955 q 0.09031,0.191911 0.135467,0.530578 0.04516,0.327378 0.04516,0.699911 0,0.496711 -0.07902,1.004711 -0.06773,0.496711 -0.248356,1.072445 -0.180622,0.575733 -0.756355,1.241777 -0.575734,0.666045 -1.411111,0.970845 l -0.666045,0.146755 q -0.4064,0.09031 -0.643466,0.09031 -0.1016,0 -0.1016,-0.02258 v -7.495822 q 0.948266,0 1.603022,0.1016 0.654755,0.1016 1.2192,0.485422 0.575733,0.372533 0.903111,1.174044 z" />
      <path
         id="path865"
         style="font-style:normal;font-variant:normal;font-weight:normal;font-stretch:normal;font-family:'American Horror Story';-inkscape-font-specification:'American Horror Story';stroke-width:0.26458332"
         d="m 95.349059,81.160567 h 1.016 v -0.891822 h -1.016 v -0.677333 h 1.016 V 78.69959 h -1.9304 v 7.529689 h 1.9304 v -0.891823 h -1.016 z" />
    </g>
  </g>
</svg>
