<?xml version="1.0" encoding="UTF-8" standalone="no"?>
<svg
   xmlns:dc="http://purl.org/dc/elements/1.1/"
   xmlns:cc="http://creativecommons.org/ns#"
   xmlns:rdf="http://www.w3.org/1999/02/22-rdf-syntax-ns#"
   xmlns:svg="http://www.w3.org/2000/svg"
   xmlns="http://www.w3.org/2000/svg"
   id="svg8"
   version="1.1"
   viewBox="0 0 127.48718 17.700977"
   height="17.700977mm"
   width="127.48718mm">
  <defs
     id="defs2" />
  <metadata
     id="metadata5">
    <rdf:RDF>
      <cc:Work
         rdf:about="">
        <dc:format>image/svg+xml</dc:format>
        <dc:type
           rdf:resource="http://purl.org/dc/dcmitype/StillImage" />
        <dc:title></dc:title>
      </cc:Work>
    </rdf:RDF>
  </metadata>
  <g
     transform="translate(-49.079669,-28.53543)"
     id="layer1">
    <g
       id="text817"
       style="font-style:normal;font-variant:normal;font-weight:normal;font-stretch:normal;font-size:22.57777786px;line-height:0.25;font-family:'American Horror Story';-inkscape-font-specification:'American Horror Story';letter-spacing:0px;word-spacing:0px;stroke-width:0.26458332"
       aria-label="The White Acre">
      <path
         id="path957"
         style="font-style:normal;font-variant:normal;font-weight:normal;font-stretch:normal;font-family:'Chinese Rocks';-inkscape-font-specification:'Chinese Rocks';stroke-width:0.26458332"
         d="m 58.539758,32.19303 h -3.431822 v 14.0208 l -1.783644,-0.158044 -0.4064,0.180622 -0.428978,-0.02258 v -4.763911 l -0.04516,-0.2032 0.09031,-0.135467 -0.180622,-2.009422 -0.09031,-0.112889 0.225778,-0.541866 V 32.19303 h -3.409245 v -2.799644 h 9.414934 v 0.519289 l -0.06773,0.2032 0.112889,0.225777 z" />
      <path
         id="path959"
         style="font-style:normal;font-variant:normal;font-weight:normal;font-stretch:normal;font-family:'Chinese Rocks';-inkscape-font-specification:'Chinese Rocks';stroke-width:0.26458332"
         d="m 66.122364,45.875163 0.248356,-0.338666 0.112888,-0.496711 -0.451555,-6.5024 H 63.32272 l -0.270934,0.2032 0.293511,7.292622 -0.4064,-0.158045 H 60.523075 L 59.890897,34.586275 V 28.73863 h 2.822223 l 0.428977,6.818489 h 3.115734 l 0.2032,-0.293511 V 34.699163 L 66.212675,33.20903 v -3.702755 l -0.09031,-0.857956 0.925689,0.04516 1.8288,-0.158045 0.135467,0.316089 -0.04516,0.564444 0.248356,2.596445 0.270933,5.8928 v 4.492978 l -0.112889,2.754489 0.158044,0.361244 0.04516,0.361244 z" />
      <path
         id="path961"
         style="font-style:normal;font-variant:normal;font-weight:normal;font-stretch:normal;font-family:'Chinese Rocks';-inkscape-font-specification:'Chinese Rocks';stroke-width:0.26458332"
         d="m 78.92714,45.965475 -0.880533,-0.04516 -0.338667,0.06773 -0.2032,-0.135466 -0.880533,0.135466 h -5.644445 v -1.016 L 70.79914,44.18183 V 29.438541 l -0.2032,-0.09031 h 7.699022 l 0.474133,0.180622 v 2.393245 l -0.361244,-0.158045 h -4.334933 l -0.925689,0.04516 -0.135467,0.135467 v 1.580444 l 0.112889,0.857956 v 1.557866 l 0.180622,0.158045 h 2.257778 l 1.467556,-0.158045 0.04515,0.970845 -0.09031,0.09031 0.112889,1.603022 h -4.086578 l 0.270933,1.467556 v 1.851377 l -0.06773,0.722489 0.09031,0.970845 h 5.621867 z" />
      <path
         id="path963"
         style="font-style:normal;font-variant:normal;font-weight:normal;font-stretch:normal;font-family:'Chinese Rocks';-inkscape-font-specification:'Chinese Rocks';stroke-width:0.26458332"
         d="m 94.008037,29.461119 -0.135466,0.767644 0.04516,0.180623 v 2.799644 h -0.09031 v 2.302933 l -0.248355,0.6096 -0.474134,5.034845 -0.248355,1.241778 0.135466,0.02258 -0.564444,1.648178 0.06773,0.248356 -0.09031,1.512711 h -1.783644 l -0.293511,-0.2032 0.02258,-0.496711 -0.338666,-5.328356 -0.270934,0.02258 -0.903111,5.870222 -0.112889,0.06773 h -1.806222 l -1.8288,-16.707556 h 2.190045 l -0.158045,0.225778 v 0.970844 l 0.180622,0.451556 -0.06773,0.158044 0.2032,0.993422 0.474133,4.4704 1.715911,-6.953955 0.722489,3.115733 0.767645,4.064 0.112889,0.158045 0.09031,0.02258 0.767644,-7.563555 h 1.783645 z" />
      <path
         id="path965"
         style="font-style:normal;font-variant:normal;font-weight:normal;font-stretch:normal;font-family:'Chinese Rocks';-inkscape-font-specification:'Chinese Rocks';stroke-width:0.26458332"
         d="m 102.0175,45.875163 0.24836,-0.338666 0.11289,-0.496711 -0.45156,-6.5024 h -2.709332 l -0.270933,0.2032 0.293511,7.292622 -0.4064,-0.158045 H 96.418214 L 95.786036,34.586275 V 28.73863 h 2.822222 l 0.428978,6.818489 h 3.115734 l 0.2032,-0.293511 v -0.564445 l -0.24836,-1.490133 v -3.702755 l -0.0903,-0.857956 0.92569,0.04516 1.8288,-0.158045 0.13547,0.316089 -0.0452,0.564444 0.24836,2.596445 0.27093,5.8928 v 4.492978 l -0.11289,2.754489 0.15805,0.361244 0.0452,0.361244 z" />
      <path
         id="path967"
         style="font-style:normal;font-variant:normal;font-weight:normal;font-stretch:normal;font-family:'Chinese Rocks';-inkscape-font-specification:'Chinese Rocks';stroke-width:0.26458332"
         d="m 110.44219,41.720852 -0.18062,0.654756 v 2.754489 l -0.13547,-0.02258 v 0.835378 l 0.0903,0.06773 h -2.86738 l -0.29351,-1.083733 0.13547,-0.316089 v -1.467556 l -0.13547,-3.928533 0.0903,-0.180622 v -2.054578 l -0.15804,-0.225778 0.13547,-0.225778 -0.0677,-0.948266 0.0677,-1.490134 0.0677,-0.09031 -0.13547,-0.09031 0.0452,-0.474133 0.13546,-0.248356 -0.18062,-0.225777 0.13547,-0.428978 v -2.506134 l 0.15804,-0.835377 h 1.87396 l 0.72249,-0.06773 0.31609,2.709334 v 7.360355 l 0.0677,1.603022 -0.0452,0.835378 z" />
      <path
         id="path969"
         style="font-style:normal;font-variant:normal;font-weight:normal;font-stretch:normal;font-family:'Chinese Rocks';-inkscape-font-specification:'Chinese Rocks';stroke-width:0.26458332"
         d="m 121.02341,31.741475 -0.29351,0.293511 -1.06116,-0.225778 h -1.28693 l -0.4064,0.06773 v 4.380089 l 0.0903,0.790222 v 5.531556 l 0.0677,0.338667 v 1.264355 l 0.13547,0.2032 -0.13547,0.04516 v 0.2032 l -0.11289,0.293511 v 0.541866 l 0.11289,0.338667 -0.27093,0.225778 h -2.19005 l -0.13546,-0.2032 V 31.98983 h -3.79307 l 0.0903,-0.474133 v -2.077156 l -0.18062,-0.383822 v -0.135467 l 0.0903,-0.09031 2.09973,0.225778 h 2.77707 l 0.27093,-0.04516 0.63218,0.09031 1.016,-0.04516 0.15805,0.09031 0.0677,-0.112889 0.18062,-0.06773 0.33867,0.02258 0.27093,0.158044 h 1.24178 l 0.11289,0.451556 v 1.919111 z" />
      <path
         id="path971"
         style="font-style:normal;font-variant:normal;font-weight:normal;font-stretch:normal;font-family:'Chinese Rocks';-inkscape-font-specification:'Chinese Rocks';stroke-width:0.26458332"
         d="m 130.21221,45.965475 -0.88053,-0.04516 -0.33867,0.06773 -0.2032,-0.135466 -0.88053,0.135466 h -5.64445 v -1.016 L 122.08421,44.18183 V 29.438541 l -0.2032,-0.09031 h 7.69902 l 0.47413,0.180622 v 2.393245 l -0.36124,-0.158045 h -4.33493 l -0.92569,0.04516 -0.13547,0.135467 v 1.580444 l 0.11289,0.857956 v 1.557866 l 0.18062,0.158045 h 2.25778 l 1.46756,-0.158045 0.0452,0.970845 -0.0903,0.09031 0.11289,1.603022 h -4.08658 l 0.27093,1.467556 v 1.851377 l -0.0677,0.722489 0.0903,0.970845 h 5.62187 z" />
      <path
         id="path973"
         style="font-style:normal;font-variant:normal;font-weight:normal;font-stretch:normal;font-family:'Chinese Rocks';-inkscape-font-specification:'Chinese Rocks';stroke-width:0.26458332"
         d="m 145.15764,45.80743 -0.0903,0.09031 h -0.49671 l -1.19662,-0.180622 -0.29351,0.04516 -0.47413,-0.496712 0.0452,-0.857955 -0.18062,-0.112889 v -0.180622 l 0.11289,-0.112889 -0.4064,-0.654756 0.11289,-0.338666 -0.72249,0.180622 -0.56445,-0.04516 -1.67075,0.06773 -0.22578,-0.293511 -0.24835,0.654755 -0.36125,1.467556 -0.0903,0.790222 -2.2352,-0.2032 0.85796,-7.112 0.99342,-5.260622 0.22578,-0.699911 v -0.948267 l 0.15804,-0.180622 V 30.77063 l 0.22578,-0.428978 0.13546,-1.038577 3.13832,0.135466 0.0903,0.857956 0.18062,0.587022 0.22578,0.451556 0.11289,0.09031 v 0.925689 l 0.27093,0.451555 -0.0452,0.496711 0.15805,-0.02258 0.47413,2.325512 0.2032,0.270933 0.29351,1.738489 0.29351,1.083733 -0.0677,0.180622 0.45156,1.693334 0.13546,0.8128 0.0452,0.790222 0.22578,0.428978 v 0.112889 l -0.11289,0.180622 0.0903,0.248355 0.13546,1.444978 z m -4.42525,-12.282311 h -0.27093 l -0.58702,5.350933 h 0.2032 v 0.135467 l -0.36125,0.790222 -0.2032,0.722489 0.47413,-0.09031 1.80623,-0.112889 z" />
      <path
         id="path975"
         style="font-style:normal;font-variant:normal;font-weight:normal;font-stretch:normal;font-family:'Chinese Rocks';-inkscape-font-specification:'Chinese Rocks';stroke-width:0.26458332"
         d="m 156.1569,41.653119 0.13546,0.428978 -0.13546,0.677333 v 0.4064 h -0.13547 l -0.0677,0.06773 0.18062,0.8128 -0.11289,0.180623 v 0.6096 l 0.0677,0.361244 -0.13546,0.677333 -1.30951,-0.180622 -0.31609,0.135467 h -7.42809 l -0.31609,-2.731911 0.18062,-0.135467 v -0.541867 l -0.0903,-0.699911 v -3.2512 l -0.18062,-1.174044 0.0677,-0.04516 v -1.038577 l -0.13546,-0.903112 0.13546,-0.2032 -0.0903,-0.293511 0.0903,-0.02258 v -5.192889 h 9.43751 v 5.621866 l 0.15805,0.383823 -0.15805,0.09031 v 0.790222 l -0.54186,0.04516 -0.0677,-0.09031 -0.18062,0.270934 -0.45155,-0.180623 -0.27094,0.248356 -0.0452,-0.158044 -1.35467,0.338666 v -3.928533 l -0.0452,-0.474133 0.0677,-0.383823 -0.31609,0.06773 -3.70276,0.180622 0.2032,1.467555 v 1.512712 l 0.13547,0.857955 v 0.677333 l 0.11289,0.09031 v 6.276622 l 1.76107,-0.2032 h 2.00942 l 0.0226,-0.06773 -0.11289,-0.158044 0.13546,-0.699911 -0.2032,-0.361245 v -1.399822 l -0.13546,-0.316089 0.13546,0.02258 0.0677,-0.2032 -0.18063,-0.04516 v -0.316089 l 0.15805,-0.428978 h 1.46755 l 0.27094,-0.248356 h 0.0903 l 0.18062,0.135467 0.29351,-0.09031 h 0.58702 z" />
      <path
         id="path977"
         style="font-style:normal;font-variant:normal;font-weight:normal;font-stretch:normal;font-family:'Chinese Rocks';-inkscape-font-specification:'Chinese Rocks';stroke-width:0.26458332"
         d="m 157.90068,43.391608 -0.2032,-0.316089 0.15805,-0.225778 V 39.91463 l -0.24836,-0.158044 0.11289,-0.112889 V 38.49223 l -0.15805,-0.225778 0.11289,-0.6096 v -8.353777 h 8.60214 v 0.541866 l 0.29351,1.264356 v 0.6096 l -0.0677,0.158044 0.38383,3.409245 -0.0677,0.112889 -0.15804,0.09031 -1.39982,-0.09031 h -0.58703 l -0.15804,0.158044 0.54187,2.596444 0.94826,3.702756 0.22578,1.196622 -0.0677,0.09031 0.15804,0.158045 0.15805,0.925689 -0.0452,0.316089 0.2032,0.225777 0.18062,1.241778 h -2.30293 l -1.03858,-3.025422 -0.31609,-1.106311 -0.94826,-4.4704 -0.33867,-1.896534 h -1.73849 l 0.36125,4.921956 v 1.851378 l 0.0677,1.535289 -0.22578,2.054577 -2.21262,0.09031 -0.2032,-0.2032 -0.0226,-0.383823 z m 6.34436,-10.114845 -0.0452,-0.654755 0.0452,-0.8128 h -4.19947 l 0.13547,0.677333 v 0.474134 l -0.13547,0.316088 z m -6.34436,12.079112 -0.0226,0.02258 v -0.04516 z" />
      <path
         id="path979"
         style="font-style:normal;font-variant:normal;font-weight:normal;font-stretch:normal;font-family:'Chinese Rocks';-inkscape-font-specification:'Chinese Rocks';stroke-width:0.26458332"
         d="m 176.29592,44.249563 0.0677,0.993423 h -7.85706 l -0.36125,-7.428089 v -5.4864 l -0.29351,-0.474134 0.18062,-0.225777 v -2.506134 h 7.85707 l 0.0903,0.270934 v 1.061155 l -0.0677,0.225778 0.27093,1.174044 h -1.58044 l -3.88338,0.2032 -0.18062,0.112889 -0.0226,0.4064 -0.24836,0.135467 0.27094,2.889956 1.39982,-0.09031 0.8128,0.09031 1.51271,0.316088 v 0.925689 l -0.15804,0.632178 0.15804,0.316089 v 0.474133 l -3.72533,0.2032 -0.0903,0.225778 -0.11289,0.790222 v 0.632178 l 0.11289,0.225778 v 1.964267 l 0.27093,0.135466 h 3.68018 l 0.54186,-0.158044 1.6256,-0.270934 z" />
    </g>
  </g>
</svg>
